<svg width="564" height="17" viewBox="0 0 564 17" fill="none" xmlns="http://www.w3.org/2000/svg">
<path d="M1.75 9V7.25H12.25V9H1.75ZM28 14.25V2H40.25V3.75H31.5V7.25H38.5V9H31.5V12.5H40.25V14.25H28ZM42 14.25V2H45.5V3.75H47.25V5.5H49V3.75H50.75V2H54.25V14.25H50.75V7.25H49V10.75H47.25V7.25H45.5V14.25H42ZM56 14.25V2H66.5V3.75H68.25V9H66.5V10.75H59.5V14.25H56ZM59.5 9H64.75V3.75H59.5V9ZM71.75 14.25V12.5H70V3.75H71.75V2H80.5V3.75H82.25V12.5H80.5V14.25H71.75ZM73.5 12.5H78.75V3.75H73.5V12.5ZM85.75 14.25V12.5H84V2H87.5V9H89.25V2H91V9H92.75V2H96.25V12.5H94.5V14.25H92.75V12.5H91V10.75H89.25V12.5H87.5V14.25H85.75ZM98 14.25V2H110.25V3.75H101.5V7.25H108.5V9H101.5V12.5H110.25V14.25H98ZM112 14.25V2H122.5V3.75H124.25V9H120.75V10.75H122.5V12.5H124.25V14.25H119V12.5H117.25V10.75H115.5V14.25H112ZM115.5 9H119V7.25H120.75V3.75H115.5V9ZM127.75 14.25V12.5H131.25V3.75H127.75V2H138.25V3.75H134.75V12.5H138.25V14.25H127.75ZM140 14.25V2H143.5V3.75H145.25V5.5H147V7.25H148.75V2H152.25V14.25H148.75V10.75H147V9H145.25V7.25H143.5V14.25H140ZM157.5 14.25V12.5H155.75V10.75H154V5.5H155.75V3.75H157.5V2H166.25V3.75H159.25V5.5H157.5V10.75H159.25V12.5H162.75V9H161V7.25H166.25V14.25H157.5ZM183.75 14.25V12.5H182V2H185.5V9H187.25V2H189V9H190.75V2H194.25V12.5H192.5V14.25H190.75V12.5H189V10.75H187.25V12.5H185.5V14.25H183.75ZM197.75 14.25V12.5H196V3.75H197.75V2H206.5V3.75H208.25V12.5H206.5V14.25H197.75ZM199.5 12.5H204.75V3.75H199.5V12.5ZM210 14.25V2H213.5V3.75H215.25V5.5H217V3.75H218.75V2H222.25V14.25H218.75V7.25H217V10.75H215.25V7.25H213.5V14.25H210ZM224 14.25V2H236.25V3.75H227.5V7.25H234.5V9H227.5V12.5H236.25V14.25H224ZM238 14.25V2H241.5V3.75H243.25V5.5H245V7.25H246.75V2H250.25V14.25H246.75V10.75H245V9H243.25V7.25H241.5V14.25H238ZM271.25 14.25V3.75H267.75V2H278.25V3.75H274.75V14.25H271.25ZM280 14.25V2H283.5V7.25H288.75V2H292.25V14.25H288.75V9H283.5V14.25H280ZM294 14.25V2H304.5V3.75H306.25V9H302.75V10.75H304.5V12.5H306.25V14.25H301V12.5H299.25V10.75H297.5V14.25H294ZM297.5 9H301V7.25H302.75V3.75H297.5V9ZM309.75 14.25V12.5H308V3.75H309.75V2H318.5V3.75H320.25V12.5H318.5V14.25H309.75ZM311.5 12.5H316.75V3.75H311.5V12.5ZM323.75 14.25V12.5H322V2H325.5V12.5H330.75V2H334.25V12.5H332.5V14.25H323.75ZM339.5 14.25V12.5H337.75V10.75H336V5.5H337.75V3.75H339.5V2H348.25V3.75H341.25V5.5H339.5V10.75H341.25V12.5H344.75V9H343V7.25H348.25V14.25H339.5ZM350 14.25V2H353.5V7.25H358.75V2H362.25V14.25H358.75V9H353.5V14.25H350ZM379.75 14.25V12.5H383.25V3.75H379.75V2H390.25V3.75H386.75V12.5H390.25V14.25H379.75ZM392 14.25V2H395.5V3.75H397.25V5.5H399V7.25H400.75V2H404.25V14.25H400.75V10.75H399V9H397.25V7.25H395.5V14.25H392ZM406 14.25V2H418.25V3.75H409.5V7.25H416.5V9H409.5V14.25H406ZM421.75 14.25V12.5H420V3.75H421.75V2H430.5V3.75H432.25V12.5H430.5V14.25H421.75ZM423.5 12.5H428.75V3.75H423.5V12.5ZM434 14.25V2H444.5V3.75H446.25V9H442.75V10.75H444.5V12.5H446.25V14.25H441V12.5H439.25V10.75H437.5V14.25H434ZM437.5 9H441V7.25H442.75V3.75H437.5V9ZM448 14.25V2H451.5V3.75H453.25V5.5H455V3.75H456.75V2H460.25V14.25H456.75V7.25H455V10.75H453.25V7.25H451.5V14.25H448ZM462 14.25V5.5H463.75V3.75H465.5V2H470.75V3.75H472.5V5.5H474.25V14.25H470.75V10.75H465.5V14.25H462ZM465.5 9H470.75V5.5H469V3.75H467.25V5.5H465.5V9ZM481.25 14.25V3.75H477.75V2H488.25V3.75H484.75V14.25H481.25ZM491.75 14.25V12.5H495.25V3.75H491.75V2H502.25V3.75H498.75V12.5H502.25V14.25H491.75ZM505.75 14.25V12.5H504V3.75H505.75V2H514.5V3.75H516.25V12.5H514.5V14.25H505.75ZM507.5 12.5H512.75V3.75H507.5V12.5ZM518 14.25V2H521.5V3.75H523.25V5.5H525V7.25H526.75V2H530.25V14.25H526.75V10.75H525V9H523.25V7.25H521.5V14.25H518ZM547.75 9V7.25H558.25V9H547.75Z" fill="#5EC1E6"/>
<mask id="path-2-outside-1_182_5494" maskUnits="userSpaceOnUse" x="2" y="1" width="560" height="15" fill="black">
<rect fill="white" x="2" y="1" width="560" height="15"/>
<path d="M3.75 9V7.25H14.25V9H3.75ZM30 14.25V2H42.25V3.75H33.5V7.25H40.5V9H33.5V12.5H42.25V14.25H30ZM44 14.25V2H47.5V3.75H49.25V5.5H51V3.75H52.75V2H56.25V14.25H52.75V7.25H51V10.75H49.25V7.25H47.5V14.25H44ZM58 14.25V2H68.5V3.75H70.25V9H68.5V10.75H61.5V14.25H58ZM61.5 9H66.75V3.75H61.5V9ZM73.75 14.25V12.5H72V3.75H73.75V2H82.5V3.75H84.25V12.5H82.5V14.25H73.75ZM75.5 12.5H80.75V3.75H75.5V12.5ZM87.75 14.25V12.5H86V2H89.5V9H91.25V2H93V9H94.75V2H98.25V12.5H96.5V14.25H94.75V12.5H93V10.75H91.25V12.5H89.5V14.25H87.75ZM100 14.25V2H112.25V3.75H103.5V7.25H110.5V9H103.5V12.5H112.25V14.25H100ZM114 14.25V2H124.5V3.75H126.25V9H122.75V10.75H124.5V12.5H126.25V14.25H121V12.5H119.25V10.75H117.5V14.25H114ZM117.5 9H121V7.25H122.75V3.75H117.5V9ZM129.75 14.25V12.5H133.25V3.75H129.75V2H140.25V3.75H136.75V12.5H140.25V14.25H129.75ZM142 14.25V2H145.5V3.75H147.25V5.5H149V7.25H150.75V2H154.25V14.25H150.75V10.75H149V9H147.25V7.25H145.5V14.25H142ZM159.5 14.25V12.5H157.75V10.75H156V5.5H157.75V3.75H159.5V2H168.25V3.75H161.25V5.5H159.5V10.75H161.25V12.5H164.75V9H163V7.25H168.25V14.25H159.5ZM185.75 14.25V12.5H184V2H187.5V9H189.25V2H191V9H192.75V2H196.25V12.5H194.5V14.25H192.75V12.5H191V10.75H189.25V12.5H187.5V14.25H185.75ZM199.75 14.25V12.5H198V3.75H199.75V2H208.5V3.75H210.25V12.5H208.5V14.25H199.75ZM201.5 12.5H206.75V3.75H201.5V12.5ZM212 14.25V2H215.5V3.75H217.25V5.5H219V3.75H220.75V2H224.25V14.25H220.75V7.25H219V10.75H217.25V7.25H215.5V14.25H212ZM226 14.25V2H238.25V3.75H229.5V7.25H236.5V9H229.5V12.5H238.25V14.25H226ZM240 14.25V2H243.5V3.75H245.25V5.5H247V7.25H248.75V2H252.25V14.25H248.75V10.75H247V9H245.25V7.25H243.5V14.25H240ZM273.25 14.25V3.75H269.75V2H280.25V3.75H276.75V14.25H273.25ZM282 14.25V2H285.5V7.25H290.75V2H294.25V14.25H290.75V9H285.5V14.25H282ZM296 14.25V2H306.5V3.75H308.25V9H304.75V10.75H306.5V12.5H308.25V14.25H303V12.5H301.25V10.75H299.5V14.25H296ZM299.5 9H303V7.25H304.75V3.75H299.5V9ZM311.75 14.25V12.5H310V3.75H311.75V2H320.5V3.75H322.25V12.5H320.5V14.25H311.75ZM313.5 12.5H318.75V3.75H313.5V12.5ZM325.75 14.25V12.5H324V2H327.5V12.5H332.75V2H336.25V12.5H334.5V14.25H325.75ZM341.5 14.25V12.5H339.75V10.75H338V5.5H339.75V3.75H341.5V2H350.25V3.75H343.25V5.5H341.5V10.75H343.25V12.5H346.75V9H345V7.25H350.25V14.25H341.5ZM352 14.25V2H355.5V7.25H360.75V2H364.25V14.25H360.75V9H355.5V14.25H352ZM381.75 14.25V12.5H385.25V3.75H381.75V2H392.25V3.75H388.75V12.5H392.25V14.25H381.75ZM394 14.25V2H397.5V3.75H399.25V5.5H401V7.25H402.75V2H406.25V14.25H402.75V10.75H401V9H399.25V7.25H397.5V14.25H394ZM408 14.25V2H420.25V3.75H411.5V7.25H418.5V9H411.5V14.25H408ZM423.75 14.25V12.5H422V3.75H423.75V2H432.5V3.75H434.25V12.5H432.5V14.25H423.75ZM425.5 12.5H430.75V3.75H425.5V12.5ZM436 14.25V2H446.5V3.75H448.25V9H444.75V10.75H446.5V12.5H448.25V14.25H443V12.5H441.25V10.75H439.5V14.25H436ZM439.5 9H443V7.25H444.75V3.75H439.5V9ZM450 14.25V2H453.5V3.75H455.25V5.5H457V3.75H458.75V2H462.25V14.25H458.75V7.25H457V10.75H455.25V7.25H453.5V14.25H450ZM464 14.25V5.5H465.75V3.75H467.5V2H472.75V3.75H474.5V5.5H476.25V14.25H472.75V10.75H467.5V14.25H464ZM467.5 9H472.75V5.5H471V3.75H469.25V5.5H467.5V9ZM483.25 14.25V3.75H479.75V2H490.25V3.75H486.75V14.25H483.25ZM493.75 14.25V12.5H497.25V3.75H493.75V2H504.25V3.75H500.75V12.5H504.25V14.25H493.75ZM507.75 14.25V12.5H506V3.75H507.75V2H516.5V3.75H518.25V12.5H516.5V14.25H507.75ZM509.5 12.5H514.75V3.75H509.5V12.5ZM520 14.25V2H523.5V3.75H525.25V5.5H527V7.25H528.75V2H532.25V14.25H528.75V10.75H527V9H525.25V7.25H523.5V14.25H520ZM549.75 9V7.25H560.25V9H549.75Z"/>
</mask>
<path d="M3.75 9V7.25H14.25V9H3.75ZM30 14.25V2H42.25V3.75H33.5V7.25H40.5V9H33.5V12.5H42.25V14.25H30ZM44 14.25V2H47.5V3.75H49.25V5.5H51V3.75H52.75V2H56.25V14.25H52.75V7.25H51V10.75H49.25V7.25H47.5V14.25H44ZM58 14.25V2H68.5V3.75H70.25V9H68.5V10.75H61.5V14.25H58ZM61.5 9H66.75V3.75H61.5V9ZM73.75 14.25V12.5H72V3.75H73.75V2H82.5V3.75H84.25V12.5H82.5V14.25H73.75ZM75.5 12.5H80.75V3.75H75.5V12.5ZM87.75 14.25V12.5H86V2H89.5V9H91.25V2H93V9H94.75V2H98.25V12.5H96.5V14.25H94.75V12.5H93V10.75H91.25V12.5H89.5V14.25H87.75ZM100 14.25V2H112.25V3.75H103.5V7.25H110.5V9H103.5V12.5H112.25V14.25H100ZM114 14.25V2H124.5V3.75H126.25V9H122.75V10.75H124.5V12.5H126.25V14.25H121V12.5H119.25V10.75H117.5V14.25H114ZM117.5 9H121V7.25H122.75V3.75H117.5V9ZM129.75 14.25V12.5H133.25V3.75H129.75V2H140.25V3.75H136.75V12.5H140.25V14.25H129.75ZM142 14.25V2H145.5V3.75H147.25V5.5H149V7.25H150.75V2H154.25V14.25H150.75V10.75H149V9H147.25V7.25H145.5V14.25H142ZM159.5 14.25V12.5H157.75V10.75H156V5.5H157.75V3.75H159.5V2H168.25V3.75H161.25V5.5H159.5V10.75H161.25V12.5H164.75V9H163V7.25H168.25V14.25H159.5ZM185.75 14.25V12.5H184V2H187.5V9H189.25V2H191V9H192.75V2H196.25V12.5H194.5V14.25H192.75V12.5H191V10.75H189.25V12.5H187.5V14.25H185.75ZM199.75 14.25V12.5H198V3.75H199.75V2H208.5V3.75H210.25V12.5H208.5V14.25H199.75ZM201.5 12.5H206.75V3.75H201.5V12.5ZM212 14.25V2H215.5V3.75H217.25V5.5H219V3.75H220.75V2H224.25V14.25H220.75V7.25H219V10.75H217.25V7.25H215.5V14.25H212ZM226 14.25V2H238.25V3.75H229.5V7.25H236.5V9H229.5V12.5H238.25V14.25H226ZM240 14.25V2H243.5V3.75H245.25V5.5H247V7.25H248.75V2H252.25V14.25H248.75V10.75H247V9H245.25V7.25H243.5V14.25H240ZM273.25 14.25V3.75H269.75V2H280.25V3.75H276.75V14.25H273.25ZM282 14.25V2H285.5V7.25H290.75V2H294.25V14.25H290.75V9H285.5V14.25H282ZM296 14.25V2H306.5V3.75H308.25V9H304.75V10.75H306.5V12.5H308.25V14.25H303V12.5H301.25V10.75H299.5V14.25H296ZM299.5 9H303V7.25H304.75V3.75H299.5V9ZM311.75 14.25V12.5H310V3.75H311.75V2H320.5V3.75H322.25V12.5H320.5V14.25H311.75ZM313.5 12.5H318.75V3.75H313.5V12.5ZM325.75 14.25V12.5H324V2H327.5V12.5H332.75V2H336.25V12.5H334.5V14.25H325.75ZM341.5 14.25V12.5H339.75V10.75H338V5.5H339.75V3.75H341.5V2H350.25V3.75H343.25V5.5H341.5V10.75H343.25V12.5H346.75V9H345V7.25H350.25V14.25H341.5ZM352 14.25V2H355.5V7.25H360.75V2H364.25V14.25H360.75V9H355.5V14.25H352ZM381.75 14.25V12.5H385.25V3.75H381.75V2H392.25V3.75H388.75V12.5H392.25V14.25H381.75ZM394 14.25V2H397.5V3.75H399.25V5.5H401V7.25H402.75V2H406.25V14.25H402.75V10.75H401V9H399.25V7.25H397.5V14.25H394ZM408 14.25V2H420.25V3.75H411.5V7.25H418.5V9H411.5V14.25H408ZM423.75 14.25V12.5H422V3.75H423.75V2H432.5V3.75H434.25V12.5H432.5V14.25H423.75ZM425.5 12.5H430.75V3.75H425.5V12.5ZM436 14.25V2H446.5V3.75H448.25V9H444.75V10.75H446.5V12.5H448.25V14.25H443V12.5H441.25V10.75H439.5V14.25H436ZM439.5 9H443V7.25H444.75V3.75H439.5V9ZM450 14.25V2H453.5V3.75H455.25V5.5H457V3.75H458.75V2H462.25V14.25H458.75V7.25H457V10.75H455.25V7.25H453.5V14.25H450ZM464 14.25V5.5H465.75V3.75H467.5V2H472.75V3.75H474.5V5.5H476.25V14.25H472.75V10.75H467.5V14.25H464ZM467.5 9H472.75V5.5H471V3.75H469.25V5.5H467.5V9ZM483.25 14.25V3.75H479.75V2H490.25V3.75H486.75V14.25H483.25ZM493.75 14.25V12.5H497.25V3.75H493.75V2H504.25V3.75H500.75V12.5H504.25V14.25H493.75ZM507.75 14.25V12.5H506V3.75H507.75V2H516.5V3.75H518.25V12.5H516.5V14.25H507.75ZM509.5 12.5H514.75V3.75H509.5V12.5ZM520 14.25V2H523.5V3.75H525.25V5.5H527V7.25H528.75V2H532.25V14.25H528.75V10.75H527V9H525.25V7.25H523.5V14.25H520ZM549.75 9V7.25H560.25V9H549.75Z" fill="#DBC9FF"/>
<path d="M3.75 9H2.95V9.8H3.75V9ZM3.75 7.25V6.45H2.95V7.25H3.75ZM14.25 7.25H15.05V6.45H14.25V7.25ZM14.25 9V9.8H15.05V9H14.25ZM4.55 9V7.25H2.95V9H4.55ZM3.75 8.05H14.25V6.45H3.75V8.05ZM13.45 7.25V9H15.05V7.25H13.45ZM14.25 8.2H3.75V9.8H14.25V8.2ZM30 14.25H29.2V15.05H30V14.25ZM30 2V1.2H29.2V2H30ZM42.25 2H43.05V1.2H42.25V2ZM42.25 3.75V4.55H43.05V3.75H42.25ZM33.5 3.75V2.95H32.7V3.75H33.5ZM33.5 7.25H32.7V8.05H33.5V7.25ZM40.5 7.25H41.3V6.45H40.5V7.25ZM40.5 9V9.8H41.3V9H40.5ZM33.5 9V8.2H32.7V9H33.5ZM33.5 12.5H32.7V13.3H33.5V12.5ZM42.25 12.5H43.05V11.7H42.25V12.5ZM42.25 14.25V15.05H43.05V14.25H42.25ZM30.8 14.25V2H29.2V14.25H30.8ZM30 2.8H42.25V1.2H30V2.8ZM41.45 2V3.75H43.05V2H41.45ZM42.25 2.95H33.5V4.55H42.25V2.95ZM32.7 3.75V7.25H34.3V3.75H32.7ZM33.5 8.05H40.5V6.45H33.5V8.05ZM39.7 7.25V9H41.3V7.25H39.7ZM40.5 8.2H33.5V9.8H40.5V8.2ZM32.7 9V12.5H34.3V9H32.7ZM33.5 13.3H42.25V11.7H33.5V13.3ZM41.45 12.5V14.25H43.05V12.5H41.45ZM42.25 13.45H30V15.05H42.25V13.45ZM44 14.25H43.2V15.05H44V14.25ZM44 2V1.2H43.2V2H44ZM47.5 2H48.3V1.2H47.5V2ZM47.5 3.75H46.7V4.55H47.5V3.75ZM49.25 3.75H50.05V2.95H49.25V3.75ZM49.25 5.5H48.45V6.3H49.25V5.5ZM51 5.5V6.3H51.8V5.5H51ZM51 3.75V2.95H50.2V3.75H51ZM52.75 3.75V4.55H53.55V3.75H52.75ZM52.75 2V1.2H51.95V2H52.75ZM56.25 2H57.05V1.2H56.25V2ZM56.25 14.25V15.05H57.05V14.25H56.25ZM52.75 14.25H51.95V15.05H52.75V14.25ZM52.75 7.25H53.55V6.45H52.75V7.25ZM51 7.25V6.45H50.2V7.25H51ZM51 10.75V11.55H51.8V10.75H51ZM49.25 10.75H48.45V11.55H49.25V10.75ZM49.25 7.25H50.05V6.45H49.25V7.25ZM47.5 7.25V6.45H46.7V7.25H47.5ZM47.5 14.25V15.05H48.3V14.25H47.5ZM44.8 14.25V2H43.2V14.25H44.8ZM44 2.8H47.5V1.2H44V2.8ZM46.7 2V3.75H48.3V2H46.7ZM47.5 4.55H49.25V2.95H47.5V4.55ZM48.45 3.75V5.5H50.05V3.75H48.45ZM49.25 6.3H51V4.7H49.25V6.3ZM51.8 5.5V3.75H50.2V5.5H51.8ZM51 4.55H52.75V2.95H51V4.55ZM53.55 3.75V2H51.95V3.75H53.55ZM52.75 2.8H56.25V1.2H52.75V2.8ZM55.45 2V14.25H57.05V2H55.45ZM56.25 13.45H52.75V15.05H56.25V13.45ZM53.55 14.25V7.25H51.95V14.25H53.55ZM52.75 6.45H51V8.05H52.75V6.45ZM50.2 7.25V10.75H51.8V7.25H50.2ZM51 9.95H49.25V11.55H51V9.95ZM50.05 10.75V7.25H48.45V10.75H50.05ZM49.25 6.45H47.5V8.05H49.25V6.45ZM46.7 7.25V14.25H48.3V7.25H46.7ZM47.5 13.45H44V15.05H47.5V13.45ZM58 14.25H57.2V15.05H58V14.25ZM58 2V1.2H57.2V2H58ZM68.5 2H69.3V1.2H68.5V2ZM68.5 3.75H67.7V4.55H68.5V3.75ZM70.25 3.75H71.05V2.95H70.25V3.75ZM70.25 9V9.8H71.05V9H70.25ZM68.5 9V8.2H67.7V9H68.5ZM68.5 10.75V11.55H69.3V10.75H68.5ZM61.5 10.75V9.95H60.7V10.75H61.5ZM61.5 14.25V15.05H62.3V14.25H61.5ZM61.5 9H60.7V9.8H61.5V9ZM66.75 9V9.8H67.55V9H66.75ZM66.75 3.75H67.55V2.95H66.75V3.75ZM61.5 3.75V2.95H60.7V3.75H61.5ZM58.8 14.25V2H57.2V14.25H58.8ZM58 2.8H68.5V1.2H58V2.8ZM67.7 2V3.75H69.3V2H67.7ZM68.5 4.55H70.25V2.95H68.5V4.55ZM69.45 3.75V9H71.05V3.75H69.45ZM70.25 8.2H68.5V9.8H70.25V8.2ZM67.7 9V10.75H69.3V9H67.7ZM68.5 9.95H61.5V11.55H68.5V9.95ZM60.7 10.75V14.25H62.3V10.75H60.7ZM61.5 13.45H58V15.05H61.5V13.45ZM61.5 9.8H66.75V8.2H61.5V9.8ZM67.55 9V3.75H65.95V9H67.55ZM66.75 2.95H61.5V4.55H66.75V2.95ZM60.7 3.75V9H62.3V3.75H60.7ZM73.75 14.25H72.95V15.05H73.75V14.25ZM73.75 12.5H74.55V11.7H73.75V12.5ZM72 12.5H71.2V13.3H72V12.5ZM72 3.75V2.95H71.2V3.75H72ZM73.75 3.75V4.55H74.55V3.75H73.75ZM73.75 2V1.2H72.95V2H73.75ZM82.5 2H83.3V1.2H82.5V2ZM82.5 3.75H81.7V4.55H82.5V3.75ZM84.25 3.75H85.05V2.95H84.25V3.75ZM84.25 12.5V13.3H85.05V12.5H84.25ZM82.5 12.5V11.7H81.7V12.5H82.5ZM82.5 14.25V15.05H83.3V14.25H82.5ZM75.5 12.5H74.7V13.3H75.5V12.5ZM80.75 12.5V13.3H81.55V12.5H80.75ZM80.75 3.75H81.55V2.95H80.75V3.75ZM75.5 3.75V2.95H74.7V3.75H75.5ZM74.55 14.25V12.5H72.95V14.25H74.55ZM73.75 11.7H72V13.3H73.75V11.7ZM72.8 12.5V3.75H71.2V12.5H72.8ZM72 4.55H73.75V2.95H72V4.55ZM74.55 3.75V2H72.95V3.75H74.55ZM73.75 2.8H82.5V1.2H73.75V2.8ZM81.7 2V3.75H83.3V2H81.7ZM82.5 4.55H84.25V2.95H82.5V4.55ZM83.45 3.75V12.5H85.05V3.75H83.45ZM84.25 11.7H82.5V13.3H84.25V11.7ZM81.7 12.5V14.25H83.3V12.5H81.7ZM82.5 13.45H73.75V15.05H82.5V13.45ZM75.5 13.3H80.75V11.7H75.5V13.3ZM81.55 12.5V3.75H79.95V12.5H81.55ZM80.75 2.95H75.5V4.55H80.75V2.95ZM74.7 3.75V12.5H76.3V3.75H74.7ZM87.75 14.25H86.95V15.05H87.75V14.25ZM87.75 12.5H88.55V11.7H87.75V12.5ZM86 12.5H85.2V13.3H86V12.5ZM86 2V1.2H85.2V2H86ZM89.5 2H90.3V1.2H89.5V2ZM89.5 9H88.7V9.8H89.5V9ZM91.25 9V9.8H92.05V9H91.25ZM91.25 2V1.2H90.45V2H91.25ZM93 2H93.8V1.2H93V2ZM93 9H92.2V9.8H93V9ZM94.75 9V9.8H95.55V9H94.75ZM94.75 2V1.2H93.95V2H94.75ZM98.25 2H99.05V1.2H98.25V2ZM98.25 12.5V13.3H99.05V12.5H98.25ZM96.5 12.5V11.7H95.7V12.5H96.5ZM96.5 14.25V15.05H97.3V14.25H96.5ZM94.75 14.25H93.95V15.05H94.75V14.25ZM94.75 12.5H95.55V11.7H94.75V12.5ZM93 12.5H92.2V13.3H93V12.5ZM93 10.75H93.8V9.95H93V10.75ZM91.25 10.75V9.95H90.45V10.75H91.25ZM91.25 12.5V13.3H92.05V12.5H91.25ZM89.5 12.5V11.7H88.7V12.5H89.5ZM89.5 14.25V15.05H90.3V14.25H89.5ZM88.55 14.25V12.5H86.95V14.25H88.55ZM87.75 11.7H86V13.3H87.75V11.7ZM86.8 12.5V2H85.2V12.5H86.8ZM86 2.8H89.5V1.2H86V2.8ZM88.7 2V9H90.3V2H88.7ZM89.5 9.8H91.25V8.2H89.5V9.8ZM92.05 9V2H90.45V9H92.05ZM91.25 2.8H93V1.2H91.25V2.8ZM92.2 2V9H93.8V2H92.2ZM93 9.8H94.75V8.2H93V9.8ZM95.55 9V2H93.95V9H95.55ZM94.75 2.8H98.25V1.2H94.75V2.8ZM97.45 2V12.5H99.05V2H97.45ZM98.25 11.7H96.5V13.3H98.25V11.7ZM95.7 12.5V14.25H97.3V12.5H95.7ZM96.5 13.45H94.75V15.05H96.5V13.45ZM95.55 14.25V12.5H93.95V14.25H95.55ZM94.75 11.7H93V13.3H94.75V11.7ZM93.8 12.5V10.75H92.2V12.5H93.8ZM93 9.95H91.25V11.55H93V9.95ZM90.45 10.75V12.5H92.05V10.75H90.45ZM91.25 11.7H89.5V13.3H91.25V11.7ZM88.7 12.5V14.25H90.3V12.5H88.7ZM89.5 13.45H87.75V15.05H89.5V13.45ZM100 14.25H99.2V15.05H100V14.25ZM100 2V1.2H99.2V2H100ZM112.25 2H113.05V1.2H112.25V2ZM112.25 3.75V4.55H113.05V3.75H112.25ZM103.5 3.75V2.95H102.7V3.75H103.5ZM103.5 7.25H102.7V8.05H103.5V7.25ZM110.5 7.25H111.3V6.45H110.5V7.25ZM110.5 9V9.8H111.3V9H110.5ZM103.5 9V8.2H102.7V9H103.5ZM103.5 12.5H102.7V13.3H103.5V12.5ZM112.25 12.5H113.05V11.7H112.25V12.5ZM112.25 14.25V15.05H113.05V14.25H112.25ZM100.8 14.25V2H99.2V14.25H100.8ZM100 2.8H112.25V1.2H100V2.8ZM111.45 2V3.75H113.05V2H111.45ZM112.25 2.95H103.5V4.55H112.25V2.95ZM102.7 3.75V7.25H104.3V3.75H102.7ZM103.5 8.05H110.5V6.45H103.5V8.05ZM109.7 7.25V9H111.3V7.25H109.7ZM110.5 8.2H103.5V9.8H110.5V8.2ZM102.7 9V12.5H104.3V9H102.7ZM103.5 13.3H112.25V11.7H103.5V13.3ZM111.45 12.5V14.25H113.05V12.5H111.45ZM112.25 13.45H100V15.05H112.25V13.45ZM114 14.25H113.2V15.05H114V14.25ZM114 2V1.2H113.2V2H114ZM124.5 2H125.3V1.2H124.5V2ZM124.5 3.75H123.7V4.55H124.5V3.75ZM126.25 3.75H127.05V2.95H126.25V3.75ZM126.25 9V9.8H127.05V9H126.25ZM122.75 9V8.2H121.95V9H122.75ZM122.75 10.75H121.95V11.55H122.75V10.75ZM124.5 10.75H125.3V9.95H124.5V10.75ZM124.5 12.5H123.7V13.3H124.5V12.5ZM126.25 12.5H127.05V11.7H126.25V12.5ZM126.25 14.25V15.05H127.05V14.25H126.25ZM121 14.25H120.2V15.05H121V14.25ZM121 12.5H121.8V11.7H121V12.5ZM119.25 12.5H118.45V13.3H119.25V12.5ZM119.25 10.75H120.05V9.95H119.25V10.75ZM117.5 10.75V9.95H116.7V10.75H117.5ZM117.5 14.25V15.05H118.3V14.25H117.5ZM117.5 9H116.7V9.8H117.5V9ZM121 9V9.8H121.8V9H121ZM121 7.25V6.45H120.2V7.25H121ZM122.75 7.25V8.05H123.55V7.25H122.75ZM122.75 3.75H123.55V2.95H122.75V3.75ZM117.5 3.75V2.95H116.7V3.75H117.5ZM114.8 14.25V2H113.2V14.25H114.8ZM114 2.8H124.5V1.2H114V2.8ZM123.7 2V3.75H125.3V2H123.7ZM124.5 4.55H126.25V2.95H124.5V4.55ZM125.45 3.75V9H127.05V3.75H125.45ZM126.25 8.2H122.75V9.8H126.25V8.2ZM121.95 9V10.75H123.55V9H121.95ZM122.75 11.55H124.5V9.95H122.75V11.55ZM123.7 10.75V12.5H125.3V10.75H123.7ZM124.5 13.3H126.25V11.7H124.5V13.3ZM125.45 12.5V14.25H127.05V12.5H125.45ZM126.25 13.45H121V15.05H126.25V13.45ZM121.8 14.25V12.5H120.2V14.25H121.8ZM121 11.7H119.25V13.3H121V11.7ZM120.05 12.5V10.75H118.45V12.5H120.05ZM119.25 9.95H117.5V11.55H119.25V9.95ZM116.7 10.75V14.25H118.3V10.75H116.7ZM117.5 13.45H114V15.05H117.5V13.45ZM117.5 9.8H121V8.2H117.5V9.8ZM121.8 9V7.25H120.2V9H121.8ZM121 8.05H122.75V6.45H121V8.05ZM123.55 7.25V3.75H121.95V7.25H123.55ZM122.75 2.95H117.5V4.55H122.75V2.95ZM116.7 3.75V9H118.3V3.75H116.7ZM129.75 14.25H128.95V15.05H129.75V14.25ZM129.75 12.5V11.7H128.95V12.5H129.75ZM133.25 12.5V13.3H134.05V12.5H133.25ZM133.25 3.75H134.05V2.95H133.25V3.75ZM129.75 3.75H128.95V4.55H129.75V3.75ZM129.75 2V1.2H128.95V2H129.75ZM140.25 2H141.05V1.2H140.25V2ZM140.25 3.75V4.55H141.05V3.75H140.25ZM136.75 3.75V2.95H135.95V3.75H136.75ZM136.75 12.5H135.95V13.3H136.75V12.5ZM140.25 12.5H141.05V11.7H140.25V12.5ZM140.25 14.25V15.05H141.05V14.25H140.25ZM130.55 14.25V12.5H128.95V14.25H130.55ZM129.75 13.3H133.25V11.7H129.75V13.3ZM134.05 12.5V3.75H132.45V12.5H134.05ZM133.25 2.95H129.75V4.55H133.25V2.95ZM130.55 3.75V2H128.95V3.75H130.55ZM129.75 2.8H140.25V1.2H129.75V2.8ZM139.45 2V3.75H141.05V2H139.45ZM140.25 2.95H136.75V4.55H140.25V2.95ZM135.95 3.75V12.5H137.55V3.75H135.95ZM136.75 13.3H140.25V11.7H136.75V13.3ZM139.45 12.5V14.25H141.05V12.5H139.45ZM140.25 13.45H129.75V15.05H140.25V13.45ZM142 14.25H141.2V15.05H142V14.25ZM142 2V1.2H141.2V2H142ZM145.5 2H146.3V1.2H145.5V2ZM145.5 3.75H144.7V4.55H145.5V3.75ZM147.25 3.75H148.05V2.95H147.25V3.75ZM147.25 5.5H146.45V6.3H147.25V5.5ZM149 5.5H149.8V4.7H149V5.5ZM149 7.25H148.2V8.05H149V7.25ZM150.75 7.25V8.05H151.55V7.25H150.75ZM150.75 2V1.2H149.95V2H150.75ZM154.25 2H155.05V1.2H154.25V2ZM154.25 14.25V15.05H155.05V14.25H154.25ZM150.75 14.25H149.95V15.05H150.75V14.25ZM150.75 10.75H151.55V9.95H150.75V10.75ZM149 10.75H148.2V11.55H149V10.75ZM149 9H149.8V8.2H149V9ZM147.25 9H146.45V9.8H147.25V9ZM147.25 7.25H148.05V6.45H147.25V7.25ZM145.5 7.25V6.45H144.7V7.25H145.5ZM145.5 14.25V15.05H146.3V14.25H145.5ZM142.8 14.25V2H141.2V14.25H142.8ZM142 2.8H145.5V1.2H142V2.8ZM144.7 2V3.75H146.3V2H144.7ZM145.5 4.55H147.25V2.95H145.5V4.55ZM146.45 3.75V5.5H148.05V3.75H146.45ZM147.25 6.3H149V4.7H147.25V6.3ZM148.2 5.5V7.25H149.8V5.5H148.2ZM149 8.05H150.75V6.45H149V8.05ZM151.55 7.25V2H149.95V7.25H151.55ZM150.75 2.8H154.25V1.2H150.75V2.8ZM153.45 2V14.25H155.05V2H153.45ZM154.25 13.45H150.75V15.05H154.25V13.45ZM151.55 14.25V10.75H149.95V14.25H151.55ZM150.75 9.95H149V11.55H150.75V9.95ZM149.8 10.75V9H148.2V10.75H149.8ZM149 8.2H147.25V9.8H149V8.2ZM148.05 9V7.25H146.45V9H148.05ZM147.25 6.45H145.5V8.05H147.25V6.45ZM144.7 7.25V14.25H146.3V7.25H144.7ZM145.5 13.45H142V15.05H145.5V13.45ZM159.5 14.25H158.7V15.05H159.5V14.25ZM159.5 12.5H160.3V11.7H159.5V12.5ZM157.75 12.5H156.95V13.3H157.75V12.5ZM157.75 10.75H158.55V9.95H157.75V10.75ZM156 10.75H155.2V11.55H156V10.75ZM156 5.5V4.7H155.2V5.5H156ZM157.75 5.5V6.3H158.55V5.5H157.75ZM157.75 3.75V2.95H156.95V3.75H157.75ZM159.5 3.75V4.55H160.3V3.75H159.5ZM159.5 2V1.2H158.7V2H159.5ZM168.25 2H169.05V1.2H168.25V2ZM168.25 3.75V4.55H169.05V3.75H168.25ZM161.25 3.75V2.95H160.45V3.75H161.25ZM161.25 5.5V6.3H162.05V5.5H161.25ZM159.5 5.5V4.7H158.7V5.5H159.5ZM159.5 10.75H158.7V11.55H159.5V10.75ZM161.25 10.75H162.05V9.95H161.25V10.75ZM161.25 12.5H160.45V13.3H161.25V12.5ZM164.75 12.5V13.3H165.55V12.5H164.75ZM164.75 9H165.55V8.2H164.75V9ZM163 9H162.2V9.8H163V9ZM163 7.25V6.45H162.2V7.25H163ZM168.25 7.25H169.05V6.45H168.25V7.25ZM168.25 14.25V15.05H169.05V14.25H168.25ZM160.3 14.25V12.5H158.7V14.25H160.3ZM159.5 11.7H157.75V13.3H159.5V11.7ZM158.55 12.5V10.75H156.95V12.5H158.55ZM157.75 9.95H156V11.55H157.75V9.95ZM156.8 10.75V5.5H155.2V10.75H156.8ZM156 6.3H157.75V4.7H156V6.3ZM158.55 5.5V3.75H156.95V5.5H158.55ZM157.75 4.55H159.5V2.95H157.75V4.55ZM160.3 3.75V2H158.7V3.75H160.3ZM159.5 2.8H168.25V1.2H159.5V2.8ZM167.45 2V3.75H169.05V2H167.45ZM168.25 2.95H161.25V4.55H168.25V2.95ZM160.45 3.75V5.5H162.05V3.75H160.45ZM161.25 4.7H159.5V6.3H161.25V4.7ZM158.7 5.5V10.75H160.3V5.5H158.7ZM159.5 11.55H161.25V9.95H159.5V11.55ZM160.45 10.75V12.5H162.05V10.75H160.45ZM161.25 13.3H164.75V11.7H161.25V13.3ZM165.55 12.5V9H163.95V12.5H165.55ZM164.75 8.2H163V9.8H164.75V8.2ZM163.8 9V7.25H162.2V9H163.8ZM163 8.05H168.25V6.45H163V8.05ZM167.45 7.25V14.25H169.05V7.25H167.45ZM168.25 13.45H159.5V15.05H168.25V13.45ZM185.75 14.25H184.95V15.05H185.75V14.25ZM185.75 12.5H186.55V11.7H185.75V12.5ZM184 12.5H183.2V13.3H184V12.5ZM184 2V1.2H183.2V2H184ZM187.5 2H188.3V1.2H187.5V2ZM187.5 9H186.7V9.8H187.5V9ZM189.25 9V9.8H190.05V9H189.25ZM189.25 2V1.2H188.45V2H189.25ZM191 2H191.8V1.2H191V2ZM191 9H190.2V9.8H191V9ZM192.75 9V9.8H193.55V9H192.75ZM192.75 2V1.2H191.95V2H192.75ZM196.25 2H197.05V1.2H196.25V2ZM196.25 12.5V13.3H197.05V12.5H196.25ZM194.5 12.5V11.7H193.7V12.5H194.5ZM194.5 14.25V15.05H195.3V14.25H194.5ZM192.75 14.25H191.95V15.05H192.75V14.25ZM192.75 12.5H193.55V11.7H192.75V12.5ZM191 12.5H190.2V13.3H191V12.5ZM191 10.75H191.8V9.95H191V10.75ZM189.25 10.75V9.95H188.45V10.75H189.25ZM189.25 12.5V13.3H190.05V12.5H189.25ZM187.5 12.5V11.7H186.7V12.5H187.5ZM187.5 14.25V15.05H188.3V14.25H187.5ZM186.55 14.25V12.5H184.95V14.25H186.55ZM185.75 11.7H184V13.3H185.75V11.7ZM184.8 12.5V2H183.2V12.5H184.8ZM184 2.8H187.5V1.2H184V2.8ZM186.7 2V9H188.3V2H186.7ZM187.5 9.8H189.25V8.2H187.5V9.8ZM190.05 9V2H188.45V9H190.05ZM189.25 2.8H191V1.2H189.25V2.8ZM190.2 2V9H191.8V2H190.2ZM191 9.8H192.75V8.2H191V9.8ZM193.55 9V2H191.95V9H193.55ZM192.75 2.8H196.25V1.2H192.75V2.8ZM195.45 2V12.5H197.05V2H195.45ZM196.25 11.7H194.5V13.3H196.25V11.7ZM193.7 12.5V14.25H195.3V12.5H193.7ZM194.5 13.45H192.75V15.05H194.5V13.45ZM193.55 14.25V12.5H191.95V14.25H193.55ZM192.75 11.7H191V13.3H192.75V11.7ZM191.8 12.5V10.75H190.2V12.5H191.8ZM191 9.95H189.25V11.55H191V9.95ZM188.45 10.75V12.5H190.05V10.75H188.45ZM189.25 11.7H187.5V13.3H189.25V11.7ZM186.7 12.5V14.25H188.3V12.5H186.7ZM187.5 13.45H185.75V15.05H187.5V13.45ZM199.75 14.25H198.95V15.05H199.75V14.25ZM199.75 12.5H200.55V11.7H199.75V12.5ZM198 12.5H197.2V13.3H198V12.5ZM198 3.75V2.95H197.2V3.75H198ZM199.75 3.75V4.55H200.55V3.75H199.75ZM199.75 2V1.2H198.95V2H199.75ZM208.5 2H209.3V1.2H208.5V2ZM208.5 3.75H207.7V4.55H208.5V3.75ZM210.25 3.75H211.05V2.95H210.25V3.75ZM210.25 12.5V13.3H211.05V12.5H210.25ZM208.5 12.5V11.7H207.7V12.5H208.5ZM208.5 14.25V15.05H209.3V14.25H208.5ZM201.5 12.5H200.7V13.3H201.5V12.5ZM206.75 12.5V13.3H207.55V12.5H206.75ZM206.75 3.75H207.55V2.95H206.75V3.75ZM201.5 3.75V2.95H200.7V3.75H201.5ZM200.55 14.25V12.5H198.95V14.25H200.55ZM199.75 11.7H198V13.3H199.75V11.7ZM198.8 12.5V3.75H197.2V12.5H198.8ZM198 4.55H199.75V2.95H198V4.55ZM200.55 3.75V2H198.95V3.75H200.55ZM199.75 2.8H208.5V1.2H199.75V2.8ZM207.7 2V3.75H209.3V2H207.7ZM208.5 4.55H210.25V2.95H208.5V4.55ZM209.45 3.75V12.5H211.05V3.75H209.45ZM210.25 11.7H208.5V13.3H210.25V11.7ZM207.7 12.5V14.25H209.3V12.5H207.7ZM208.5 13.45H199.75V15.05H208.5V13.45ZM201.5 13.3H206.75V11.7H201.5V13.3ZM207.55 12.5V3.75H205.95V12.5H207.55ZM206.75 2.95H201.5V4.55H206.75V2.95ZM200.7 3.75V12.5H202.3V3.75H200.7ZM212 14.25H211.2V15.05H212V14.25ZM212 2V1.2H211.2V2H212ZM215.5 2H216.3V1.2H215.5V2ZM215.5 3.75H214.7V4.55H215.5V3.75ZM217.25 3.75H218.05V2.95H217.25V3.75ZM217.25 5.5H216.45V6.3H217.25V5.5ZM219 5.5V6.3H219.8V5.5H219ZM219 3.75V2.95H218.2V3.75H219ZM220.75 3.75V4.55H221.55V3.75H220.75ZM220.75 2V1.2H219.95V2H220.75ZM224.25 2H225.05V1.2H224.25V2ZM224.25 14.25V15.05H225.05V14.25H224.25ZM220.75 14.25H219.95V15.05H220.75V14.25ZM220.75 7.25H221.55V6.45H220.75V7.25ZM219 7.25V6.45H218.2V7.25H219ZM219 10.75V11.55H219.8V10.75H219ZM217.25 10.75H216.45V11.55H217.25V10.75ZM217.25 7.25H218.05V6.45H217.25V7.25ZM215.5 7.25V6.45H214.7V7.25H215.5ZM215.5 14.25V15.05H216.3V14.25H215.5ZM212.8 14.25V2H211.2V14.25H212.8ZM212 2.8H215.5V1.2H212V2.8ZM214.7 2V3.75H216.3V2H214.7ZM215.5 4.55H217.25V2.95H215.5V4.55ZM216.45 3.75V5.5H218.05V3.75H216.45ZM217.25 6.3H219V4.7H217.25V6.3ZM219.8 5.5V3.75H218.2V5.5H219.8ZM219 4.55H220.75V2.95H219V4.55ZM221.55 3.75V2H219.95V3.75H221.55ZM220.75 2.8H224.25V1.2H220.75V2.8ZM223.45 2V14.25H225.05V2H223.45ZM224.25 13.45H220.75V15.05H224.25V13.45ZM221.55 14.25V7.25H219.95V14.25H221.55ZM220.75 6.45H219V8.05H220.75V6.45ZM218.2 7.25V10.75H219.8V7.25H218.2ZM219 9.95H217.25V11.55H219V9.95ZM218.05 10.75V7.25H216.45V10.75H218.05ZM217.25 6.45H215.5V8.05H217.25V6.45ZM214.7 7.25V14.25H216.3V7.25H214.7ZM215.5 13.45H212V15.05H215.5V13.45ZM226 14.25H225.2V15.05H226V14.25ZM226 2V1.2H225.2V2H226ZM238.25 2H239.05V1.2H238.25V2ZM238.25 3.75V4.55H239.05V3.75H238.25ZM229.5 3.75V2.95H228.7V3.75H229.5ZM229.5 7.25H228.7V8.05H229.5V7.25ZM236.5 7.25H237.3V6.45H236.5V7.25ZM236.5 9V9.8H237.3V9H236.5ZM229.5 9V8.2H228.7V9H229.5ZM229.5 12.5H228.7V13.3H229.5V12.5ZM238.25 12.5H239.05V11.7H238.25V12.5ZM238.25 14.25V15.05H239.05V14.25H238.25ZM226.8 14.25V2H225.2V14.25H226.8ZM226 2.8H238.25V1.2H226V2.8ZM237.45 2V3.75H239.05V2H237.45ZM238.25 2.95H229.5V4.55H238.25V2.95ZM228.7 3.75V7.25H230.3V3.75H228.7ZM229.5 8.05H236.5V6.45H229.5V8.05ZM235.7 7.25V9H237.3V7.25H235.7ZM236.5 8.2H229.5V9.8H236.5V8.2ZM228.7 9V12.5H230.3V9H228.7ZM229.5 13.3H238.25V11.7H229.5V13.3ZM237.45 12.5V14.25H239.05V12.5H237.45ZM238.25 13.45H226V15.05H238.25V13.45ZM240 14.25H239.2V15.05H240V14.25ZM240 2V1.2H239.2V2H240ZM243.5 2H244.3V1.2H243.5V2ZM243.5 3.75H242.7V4.55H243.5V3.75ZM245.25 3.75H246.05V2.95H245.25V3.75ZM245.25 5.5H244.45V6.3H245.25V5.5ZM247 5.5H247.8V4.7H247V5.5ZM247 7.25H246.2V8.05H247V7.25ZM248.75 7.25V8.05H249.55V7.25H248.75ZM248.75 2V1.2H247.95V2H248.75ZM252.25 2H253.05V1.2H252.25V2ZM252.25 14.25V15.05H253.05V14.25H252.25ZM248.75 14.25H247.95V15.05H248.75V14.25ZM248.75 10.75H249.55V9.95H248.75V10.75ZM247 10.75H246.2V11.55H247V10.75ZM247 9H247.8V8.2H247V9ZM245.25 9H244.45V9.8H245.25V9ZM245.25 7.25H246.05V6.45H245.25V7.25ZM243.5 7.25V6.45H242.7V7.25H243.5ZM243.5 14.25V15.05H244.3V14.25H243.5ZM240.8 14.25V2H239.2V14.25H240.8ZM240 2.8H243.5V1.2H240V2.8ZM242.7 2V3.75H244.3V2H242.7ZM243.5 4.55H245.25V2.95H243.5V4.55ZM244.45 3.75V5.5H246.05V3.75H244.45ZM245.25 6.3H247V4.7H245.25V6.3ZM246.2 5.5V7.25H247.8V5.5H246.2ZM247 8.05H248.75V6.45H247V8.05ZM249.55 7.25V2H247.95V7.25H249.55ZM248.75 2.8H252.25V1.2H248.75V2.8ZM251.45 2V14.25H253.05V2H251.45ZM252.25 13.45H248.75V15.05H252.25V13.45ZM249.55 14.25V10.75H247.95V14.25H249.55ZM248.75 9.95H247V11.55H248.75V9.95ZM247.8 10.75V9H246.2V10.75H247.8ZM247 8.2H245.25V9.8H247V8.2ZM246.05 9V7.25H244.45V9H246.05ZM245.25 6.45H243.5V8.05H245.25V6.45ZM242.7 7.25V14.25H244.3V7.25H242.7ZM243.5 13.45H240V15.05H243.5V13.45ZM273.25 14.25H272.45V15.05H273.25V14.25ZM273.25 3.75H274.05V2.95H273.25V3.75ZM269.75 3.75H268.95V4.55H269.75V3.75ZM269.75 2V1.2H268.95V2H269.75ZM280.25 2H281.05V1.2H280.25V2ZM280.25 3.75V4.55H281.05V3.75H280.25ZM276.75 3.75V2.95H275.95V3.75H276.75ZM276.75 14.25V15.05H277.55V14.25H276.75ZM274.05 14.25V3.75H272.45V14.25H274.05ZM273.25 2.95H269.75V4.55H273.25V2.95ZM270.55 3.75V2H268.95V3.75H270.55ZM269.75 2.8H280.25V1.2H269.75V2.8ZM279.45 2V3.75H281.05V2H279.45ZM280.25 2.95H276.75V4.55H280.25V2.95ZM275.95 3.75V14.25H277.55V3.75H275.95ZM276.75 13.45H273.25V15.05H276.75V13.45ZM282 14.25H281.2V15.05H282V14.25ZM282 2V1.2H281.2V2H282ZM285.5 2H286.3V1.2H285.5V2ZM285.5 7.25H284.7V8.05H285.5V7.25ZM290.75 7.25V8.05H291.55V7.25H290.75ZM290.75 2V1.2H289.95V2H290.75ZM294.25 2H295.05V1.2H294.25V2ZM294.25 14.25V15.05H295.05V14.25H294.25ZM290.75 14.25H289.95V15.05H290.75V14.25ZM290.75 9H291.55V8.2H290.75V9ZM285.5 9V8.2H284.7V9H285.5ZM285.5 14.25V15.05H286.3V14.25H285.5ZM282.8 14.25V2H281.2V14.25H282.8ZM282 2.8H285.5V1.2H282V2.8ZM284.7 2V7.25H286.3V2H284.7ZM285.5 8.05H290.75V6.45H285.5V8.05ZM291.55 7.25V2H289.95V7.25H291.55ZM290.75 2.8H294.25V1.2H290.75V2.8ZM293.45 2V14.25H295.05V2H293.45ZM294.25 13.45H290.75V15.05H294.25V13.45ZM291.55 14.25V9H289.95V14.25H291.55ZM290.75 8.2H285.5V9.8H290.75V8.2ZM284.7 9V14.25H286.3V9H284.7ZM285.5 13.45H282V15.05H285.5V13.45ZM296 14.25H295.2V15.05H296V14.25ZM296 2V1.2H295.2V2H296ZM306.5 2H307.3V1.2H306.5V2ZM306.5 3.75H305.7V4.55H306.5V3.75ZM308.25 3.75H309.05V2.95H308.25V3.75ZM308.25 9V9.8H309.05V9H308.25ZM304.75 9V8.2H303.95V9H304.75ZM304.75 10.75H303.95V11.55H304.75V10.75ZM306.5 10.75H307.3V9.95H306.5V10.75ZM306.5 12.5H305.7V13.3H306.5V12.5ZM308.25 12.5H309.05V11.7H308.25V12.5ZM308.25 14.25V15.05H309.05V14.25H308.25ZM303 14.25H302.2V15.05H303V14.25ZM303 12.5H303.8V11.7H303V12.5ZM301.25 12.5H300.45V13.3H301.25V12.5ZM301.25 10.75H302.05V9.95H301.25V10.75ZM299.5 10.75V9.95H298.7V10.75H299.5ZM299.5 14.25V15.05H300.3V14.25H299.5ZM299.5 9H298.7V9.8H299.5V9ZM303 9V9.8H303.8V9H303ZM303 7.25V6.45H302.2V7.25H303ZM304.75 7.25V8.05H305.55V7.25H304.75ZM304.75 3.75H305.55V2.95H304.75V3.75ZM299.5 3.75V2.95H298.7V3.75H299.5ZM296.8 14.25V2H295.2V14.25H296.8ZM296 2.8H306.5V1.2H296V2.8ZM305.7 2V3.75H307.3V2H305.7ZM306.5 4.55H308.25V2.95H306.5V4.55ZM307.45 3.75V9H309.05V3.75H307.45ZM308.25 8.2H304.75V9.8H308.25V8.2ZM303.95 9V10.75H305.55V9H303.95ZM304.75 11.55H306.5V9.95H304.75V11.55ZM305.7 10.75V12.5H307.3V10.75H305.7ZM306.5 13.3H308.25V11.7H306.5V13.3ZM307.45 12.5V14.25H309.05V12.5H307.45ZM308.25 13.45H303V15.05H308.25V13.45ZM303.8 14.25V12.5H302.2V14.25H303.8ZM303 11.7H301.25V13.3H303V11.7ZM302.05 12.5V10.75H300.45V12.5H302.05ZM301.25 9.95H299.5V11.55H301.25V9.95ZM298.7 10.75V14.25H300.3V10.75H298.7ZM299.5 13.45H296V15.05H299.5V13.45ZM299.5 9.8H303V8.2H299.5V9.8ZM303.8 9V7.25H302.2V9H303.8ZM303 8.05H304.75V6.45H303V8.05ZM305.55 7.25V3.75H303.95V7.25H305.55ZM304.75 2.95H299.5V4.55H304.75V2.95ZM298.7 3.75V9H300.3V3.75H298.7ZM311.75 14.25H310.95V15.05H311.75V14.25ZM311.75 12.5H312.55V11.7H311.75V12.5ZM310 12.5H309.2V13.3H310V12.5ZM310 3.75V2.95H309.2V3.75H310ZM311.75 3.75V4.55H312.55V3.75H311.75ZM311.75 2V1.2H310.95V2H311.75ZM320.5 2H321.3V1.2H320.5V2ZM320.5 3.75H319.7V4.55H320.5V3.75ZM322.25 3.75H323.05V2.95H322.25V3.75ZM322.25 12.5V13.3H323.05V12.5H322.25ZM320.5 12.5V11.7H319.7V12.5H320.5ZM320.5 14.25V15.05H321.3V14.25H320.5ZM313.5 12.5H312.7V13.3H313.5V12.5ZM318.75 12.5V13.3H319.55V12.5H318.75ZM318.75 3.75H319.55V2.95H318.75V3.75ZM313.5 3.75V2.95H312.7V3.75H313.5ZM312.55 14.25V12.5H310.95V14.25H312.55ZM311.75 11.7H310V13.3H311.75V11.7ZM310.8 12.5V3.75H309.2V12.5H310.8ZM310 4.55H311.75V2.95H310V4.55ZM312.55 3.75V2H310.95V3.75H312.55ZM311.75 2.8H320.5V1.2H311.75V2.8ZM319.7 2V3.75H321.3V2H319.7ZM320.5 4.55H322.25V2.95H320.5V4.55ZM321.45 3.75V12.5H323.05V3.75H321.45ZM322.25 11.7H320.5V13.3H322.25V11.7ZM319.7 12.5V14.25H321.3V12.5H319.7ZM320.5 13.45H311.75V15.05H320.5V13.45ZM313.5 13.3H318.75V11.7H313.5V13.3ZM319.55 12.5V3.75H317.95V12.5H319.55ZM318.75 2.95H313.5V4.55H318.75V2.95ZM312.7 3.75V12.5H314.3V3.75H312.7ZM325.75 14.25H324.95V15.05H325.75V14.25ZM325.75 12.5H326.55V11.7H325.75V12.5ZM324 12.5H323.2V13.3H324V12.5ZM324 2V1.2H323.2V2H324ZM327.5 2H328.3V1.2H327.5V2ZM327.5 12.5H326.7V13.3H327.5V12.5ZM332.75 12.5V13.3H333.55V12.5H332.75ZM332.75 2V1.2H331.95V2H332.75ZM336.25 2H337.05V1.2H336.25V2ZM336.25 12.5V13.3H337.05V12.5H336.25ZM334.5 12.5V11.7H333.7V12.5H334.5ZM334.5 14.25V15.05H335.3V14.25H334.5ZM326.55 14.25V12.5H324.95V14.25H326.55ZM325.75 11.7H324V13.3H325.75V11.7ZM324.8 12.5V2H323.2V12.5H324.8ZM324 2.8H327.5V1.2H324V2.8ZM326.7 2V12.5H328.3V2H326.7ZM327.5 13.3H332.75V11.7H327.5V13.3ZM333.55 12.5V2H331.95V12.5H333.55ZM332.75 2.8H336.25V1.2H332.75V2.8ZM335.45 2V12.5H337.05V2H335.45ZM336.25 11.7H334.5V13.3H336.25V11.7ZM333.7 12.5V14.25H335.3V12.5H333.7ZM334.5 13.45H325.75V15.05H334.5V13.45ZM341.5 14.25H340.7V15.05H341.5V14.25ZM341.5 12.5H342.3V11.7H341.5V12.5ZM339.75 12.5H338.95V13.3H339.75V12.5ZM339.75 10.75H340.55V9.95H339.75V10.75ZM338 10.75H337.2V11.55H338V10.75ZM338 5.5V4.7H337.2V5.5H338ZM339.75 5.5V6.3H340.55V5.5H339.75ZM339.75 3.75V2.95H338.95V3.75H339.75ZM341.5 3.75V4.55H342.3V3.75H341.5ZM341.5 2V1.2H340.7V2H341.5ZM350.25 2H351.05V1.2H350.25V2ZM350.25 3.75V4.55H351.05V3.75H350.25ZM343.25 3.75V2.95H342.45V3.75H343.25ZM343.25 5.5V6.3H344.05V5.5H343.25ZM341.5 5.5V4.7H340.7V5.5H341.5ZM341.5 10.75H340.7V11.55H341.5V10.75ZM343.25 10.75H344.05V9.95H343.25V10.75ZM343.25 12.5H342.45V13.3H343.25V12.5ZM346.75 12.5V13.3H347.55V12.5H346.75ZM346.75 9H347.55V8.2H346.75V9ZM345 9H344.2V9.8H345V9ZM345 7.25V6.45H344.2V7.25H345ZM350.25 7.25H351.05V6.45H350.25V7.25ZM350.25 14.25V15.05H351.05V14.25H350.25ZM342.3 14.25V12.5H340.7V14.25H342.3ZM341.5 11.7H339.75V13.3H341.5V11.7ZM340.55 12.5V10.75H338.95V12.5H340.55ZM339.75 9.95H338V11.55H339.75V9.95ZM338.8 10.75V5.5H337.2V10.75H338.8ZM338 6.3H339.75V4.7H338V6.3ZM340.55 5.5V3.75H338.95V5.5H340.55ZM339.75 4.55H341.5V2.95H339.75V4.55ZM342.3 3.75V2H340.7V3.75H342.3ZM341.5 2.8H350.25V1.2H341.5V2.8ZM349.45 2V3.75H351.05V2H349.45ZM350.25 2.95H343.25V4.55H350.25V2.95ZM342.45 3.75V5.5H344.05V3.75H342.45ZM343.25 4.7H341.5V6.3H343.25V4.7ZM340.7 5.5V10.75H342.3V5.5H340.7ZM341.5 11.55H343.25V9.95H341.5V11.55ZM342.45 10.75V12.5H344.05V10.75H342.45ZM343.25 13.3H346.75V11.7H343.25V13.3ZM347.55 12.5V9H345.95V12.5H347.55ZM346.75 8.2H345V9.8H346.75V8.2ZM345.8 9V7.25H344.2V9H345.8ZM345 8.05H350.25V6.45H345V8.05ZM349.45 7.25V14.25H351.05V7.25H349.45ZM350.25 13.45H341.5V15.05H350.25V13.45ZM352 14.25H351.2V15.05H352V14.25ZM352 2V1.2H351.2V2H352ZM355.5 2H356.3V1.2H355.5V2ZM355.5 7.25H354.7V8.05H355.5V7.25ZM360.75 7.25V8.05H361.55V7.25H360.75ZM360.75 2V1.2H359.95V2H360.75ZM364.25 2H365.05V1.2H364.25V2ZM364.25 14.25V15.05H365.05V14.25H364.25ZM360.75 14.25H359.95V15.05H360.75V14.25ZM360.75 9H361.55V8.2H360.75V9ZM355.5 9V8.2H354.7V9H355.5ZM355.5 14.25V15.05H356.3V14.25H355.5ZM352.8 14.25V2H351.2V14.25H352.8ZM352 2.8H355.5V1.2H352V2.8ZM354.7 2V7.25H356.3V2H354.7ZM355.5 8.05H360.75V6.45H355.5V8.05ZM361.55 7.25V2H359.95V7.25H361.55ZM360.75 2.8H364.25V1.2H360.75V2.8ZM363.45 2V14.25H365.05V2H363.45ZM364.25 13.45H360.75V15.05H364.25V13.45ZM361.55 14.25V9H359.95V14.25H361.55ZM360.75 8.2H355.5V9.8H360.75V8.2ZM354.7 9V14.25H356.3V9H354.7ZM355.5 13.45H352V15.05H355.5V13.45ZM381.75 14.25H380.95V15.05H381.75V14.25ZM381.75 12.5V11.7H380.95V12.5H381.75ZM385.25 12.5V13.3H386.05V12.5H385.25ZM385.25 3.75H386.05V2.95H385.25V3.75ZM381.75 3.75H380.95V4.55H381.75V3.75ZM381.75 2V1.2H380.95V2H381.75ZM392.25 2H393.05V1.2H392.25V2ZM392.25 3.75V4.55H393.05V3.75H392.25ZM388.75 3.75V2.95H387.95V3.75H388.75ZM388.75 12.5H387.95V13.3H388.75V12.5ZM392.25 12.5H393.05V11.7H392.25V12.5ZM392.25 14.25V15.05H393.05V14.25H392.25ZM382.55 14.25V12.5H380.95V14.25H382.55ZM381.75 13.3H385.25V11.7H381.75V13.3ZM386.05 12.5V3.75H384.45V12.5H386.05ZM385.25 2.95H381.75V4.55H385.25V2.95ZM382.55 3.75V2H380.95V3.75H382.55ZM381.75 2.8H392.25V1.2H381.75V2.8ZM391.45 2V3.75H393.05V2H391.45ZM392.25 2.95H388.75V4.55H392.25V2.95ZM387.95 3.75V12.5H389.55V3.75H387.95ZM388.75 13.3H392.25V11.7H388.75V13.3ZM391.45 12.5V14.25H393.05V12.5H391.45ZM392.25 13.45H381.75V15.05H392.25V13.45ZM394 14.25H393.2V15.05H394V14.25ZM394 2V1.2H393.2V2H394ZM397.5 2H398.3V1.2H397.5V2ZM397.5 3.75H396.7V4.55H397.5V3.75ZM399.25 3.75H400.05V2.95H399.25V3.75ZM399.25 5.5H398.45V6.3H399.25V5.5ZM401 5.5H401.8V4.7H401V5.5ZM401 7.25H400.2V8.05H401V7.25ZM402.75 7.25V8.05H403.55V7.25H402.75ZM402.75 2V1.2H401.95V2H402.75ZM406.25 2H407.05V1.2H406.25V2ZM406.25 14.25V15.05H407.05V14.25H406.25ZM402.75 14.25H401.95V15.05H402.75V14.25ZM402.75 10.75H403.55V9.95H402.75V10.75ZM401 10.75H400.2V11.55H401V10.75ZM401 9H401.8V8.2H401V9ZM399.25 9H398.45V9.8H399.25V9ZM399.25 7.25H400.05V6.45H399.25V7.25ZM397.5 7.25V6.45H396.7V7.25H397.5ZM397.5 14.25V15.05H398.3V14.25H397.5ZM394.8 14.25V2H393.2V14.25H394.8ZM394 2.8H397.5V1.2H394V2.8ZM396.7 2V3.75H398.3V2H396.7ZM397.5 4.55H399.25V2.95H397.5V4.55ZM398.45 3.75V5.5H400.05V3.75H398.45ZM399.25 6.3H401V4.7H399.25V6.3ZM400.2 5.5V7.25H401.8V5.5H400.2ZM401 8.05H402.75V6.45H401V8.05ZM403.55 7.25V2H401.95V7.25H403.55ZM402.75 2.8H406.25V1.2H402.75V2.8ZM405.45 2V14.25H407.05V2H405.45ZM406.25 13.45H402.75V15.05H406.25V13.45ZM403.55 14.25V10.75H401.95V14.25H403.55ZM402.75 9.95H401V11.55H402.75V9.95ZM401.8 10.75V9H400.2V10.75H401.8ZM401 8.2H399.25V9.8H401V8.2ZM400.05 9V7.25H398.45V9H400.05ZM399.25 6.45H397.5V8.05H399.25V6.45ZM396.7 7.25V14.25H398.3V7.25H396.7ZM397.5 13.45H394V15.05H397.5V13.45ZM408 14.25H407.2V15.05H408V14.25ZM408 2V1.2H407.2V2H408ZM420.25 2H421.05V1.2H420.25V2ZM420.25 3.75V4.55H421.05V3.75H420.25ZM411.5 3.75V2.95H410.7V3.75H411.5ZM411.5 7.25H410.7V8.05H411.5V7.25ZM418.5 7.25H419.3V6.45H418.5V7.25ZM418.5 9V9.8H419.3V9H418.5ZM411.5 9V8.2H410.7V9H411.5ZM411.5 14.25V15.05H412.3V14.25H411.5ZM408.8 14.25V2H407.2V14.25H408.8ZM408 2.8H420.25V1.2H408V2.8ZM419.45 2V3.75H421.05V2H419.45ZM420.25 2.95H411.5V4.55H420.25V2.95ZM410.7 3.75V7.25H412.3V3.75H410.7ZM411.5 8.05H418.5V6.45H411.5V8.05ZM417.7 7.25V9H419.3V7.25H417.7ZM418.5 8.2H411.5V9.8H418.5V8.2ZM410.7 9V14.25H412.3V9H410.7ZM411.5 13.45H408V15.05H411.5V13.45ZM423.75 14.25H422.95V15.05H423.75V14.25ZM423.75 12.5H424.55V11.7H423.75V12.5ZM422 12.5H421.2V13.3H422V12.5ZM422 3.75V2.95H421.2V3.75H422ZM423.75 3.75V4.55H424.55V3.75H423.75ZM423.75 2V1.2H422.95V2H423.75ZM432.5 2H433.3V1.2H432.5V2ZM432.5 3.75H431.7V4.55H432.5V3.75ZM434.25 3.75H435.05V2.95H434.25V3.75ZM434.25 12.5V13.3H435.05V12.5H434.25ZM432.5 12.5V11.7H431.7V12.5H432.5ZM432.5 14.25V15.05H433.3V14.25H432.5ZM425.5 12.5H424.7V13.3H425.5V12.5ZM430.75 12.5V13.3H431.55V12.5H430.75ZM430.75 3.75H431.55V2.95H430.75V3.75ZM425.5 3.75V2.95H424.7V3.75H425.5ZM424.55 14.25V12.5H422.95V14.25H424.55ZM423.75 11.7H422V13.3H423.75V11.7ZM422.8 12.5V3.75H421.2V12.5H422.8ZM422 4.55H423.75V2.95H422V4.55ZM424.55 3.75V2H422.95V3.75H424.55ZM423.75 2.8H432.5V1.2H423.75V2.8ZM431.7 2V3.75H433.3V2H431.7ZM432.5 4.55H434.25V2.95H432.5V4.55ZM433.45 3.75V12.5H435.05V3.75H433.45ZM434.25 11.7H432.5V13.3H434.25V11.7ZM431.7 12.5V14.25H433.3V12.5H431.7ZM432.5 13.45H423.75V15.05H432.5V13.45ZM425.5 13.3H430.75V11.7H425.5V13.3ZM431.55 12.5V3.75H429.95V12.5H431.55ZM430.75 2.95H425.5V4.55H430.75V2.95ZM424.7 3.75V12.5H426.3V3.75H424.7ZM436 14.25H435.2V15.05H436V14.25ZM436 2V1.2H435.2V2H436ZM446.5 2H447.3V1.2H446.5V2ZM446.5 3.75H445.7V4.55H446.5V3.75ZM448.25 3.75H449.05V2.95H448.25V3.75ZM448.25 9V9.8H449.05V9H448.25ZM444.75 9V8.2H443.95V9H444.75ZM444.75 10.75H443.95V11.55H444.75V10.75ZM446.5 10.75H447.3V9.95H446.5V10.75ZM446.5 12.5H445.7V13.3H446.5V12.5ZM448.25 12.5H449.05V11.7H448.25V12.5ZM448.25 14.25V15.05H449.05V14.25H448.25ZM443 14.25H442.2V15.05H443V14.25ZM443 12.5H443.8V11.7H443V12.5ZM441.25 12.5H440.45V13.3H441.25V12.5ZM441.25 10.75H442.05V9.95H441.25V10.75ZM439.5 10.75V9.95H438.7V10.75H439.5ZM439.5 14.25V15.05H440.3V14.25H439.5ZM439.5 9H438.7V9.8H439.5V9ZM443 9V9.8H443.8V9H443ZM443 7.25V6.45H442.2V7.25H443ZM444.75 7.25V8.05H445.55V7.25H444.75ZM444.75 3.75H445.55V2.95H444.75V3.75ZM439.5 3.75V2.95H438.7V3.75H439.5ZM436.8 14.25V2H435.2V14.25H436.8ZM436 2.8H446.5V1.2H436V2.8ZM445.7 2V3.75H447.3V2H445.7ZM446.5 4.55H448.25V2.95H446.5V4.55ZM447.45 3.75V9H449.05V3.75H447.45ZM448.25 8.2H444.75V9.8H448.25V8.2ZM443.95 9V10.75H445.55V9H443.95ZM444.75 11.55H446.5V9.95H444.75V11.55ZM445.7 10.75V12.5H447.3V10.75H445.7ZM446.5 13.3H448.25V11.7H446.5V13.3ZM447.45 12.5V14.25H449.05V12.5H447.45ZM448.25 13.45H443V15.05H448.25V13.45ZM443.8 14.25V12.5H442.2V14.25H443.8ZM443 11.7H441.25V13.3H443V11.7ZM442.05 12.5V10.75H440.45V12.5H442.05ZM441.25 9.95H439.5V11.55H441.25V9.95ZM438.7 10.75V14.25H440.3V10.75H438.7ZM439.5 13.45H436V15.05H439.5V13.45ZM439.5 9.8H443V8.2H439.5V9.8ZM443.8 9V7.25H442.2V9H443.8ZM443 8.05H444.75V6.45H443V8.05ZM445.55 7.25V3.75H443.95V7.25H445.55ZM444.75 2.95H439.5V4.55H444.75V2.95ZM438.7 3.75V9H440.3V3.75H438.7ZM450 14.25H449.2V15.05H450V14.25ZM450 2V1.2H449.2V2H450ZM453.5 2H454.3V1.2H453.5V2ZM453.5 3.75H452.7V4.55H453.5V3.75ZM455.25 3.75H456.05V2.95H455.25V3.75ZM455.25 5.5H454.45V6.3H455.25V5.5ZM457 5.5V6.3H457.8V5.5H457ZM457 3.75V2.95H456.2V3.75H457ZM458.75 3.75V4.55H459.55V3.75H458.75ZM458.75 2V1.2H457.95V2H458.75ZM462.25 2H463.05V1.2H462.25V2ZM462.25 14.25V15.05H463.05V14.25H462.25ZM458.75 14.25H457.95V15.05H458.75V14.25ZM458.75 7.25H459.55V6.45H458.75V7.25ZM457 7.25V6.45H456.2V7.25H457ZM457 10.75V11.55H457.8V10.75H457ZM455.25 10.75H454.45V11.55H455.25V10.75ZM455.25 7.25H456.05V6.45H455.25V7.25ZM453.5 7.25V6.45H452.7V7.25H453.5ZM453.5 14.25V15.05H454.3V14.25H453.5ZM450.8 14.25V2H449.2V14.25H450.8ZM450 2.8H453.5V1.2H450V2.8ZM452.7 2V3.75H454.3V2H452.7ZM453.5 4.55H455.25V2.95H453.5V4.55ZM454.45 3.75V5.5H456.05V3.75H454.45ZM455.25 6.3H457V4.7H455.25V6.3ZM457.8 5.5V3.75H456.2V5.5H457.8ZM457 4.55H458.75V2.95H457V4.55ZM459.55 3.75V2H457.95V3.75H459.55ZM458.75 2.8H462.25V1.2H458.75V2.8ZM461.45 2V14.25H463.05V2H461.45ZM462.25 13.45H458.75V15.05H462.25V13.45ZM459.55 14.25V7.25H457.95V14.25H459.55ZM458.75 6.45H457V8.05H458.75V6.45ZM456.2 7.25V10.75H457.8V7.25H456.2ZM457 9.95H455.25V11.55H457V9.95ZM456.05 10.75V7.25H454.45V10.75H456.05ZM455.25 6.45H453.5V8.05H455.25V6.45ZM452.7 7.25V14.25H454.3V7.25H452.7ZM453.5 13.45H450V15.05H453.5V13.45ZM464 14.25H463.2V15.05H464V14.25ZM464 5.5V4.7H463.2V5.5H464ZM465.75 5.5V6.3H466.55V5.5H465.75ZM465.75 3.75V2.95H464.95V3.75H465.75ZM467.5 3.75V4.55H468.3V3.75H467.5ZM467.5 2V1.2H466.7V2H467.5ZM472.75 2H473.55V1.2H472.75V2ZM472.75 3.75H471.95V4.55H472.75V3.75ZM474.5 3.75H475.3V2.95H474.5V3.75ZM474.5 5.5H473.7V6.3H474.5V5.5ZM476.25 5.5H477.05V4.7H476.25V5.5ZM476.25 14.25V15.05H477.05V14.25H476.25ZM472.75 14.25H471.95V15.05H472.75V14.25ZM472.75 10.75H473.55V9.95H472.75V10.75ZM467.5 10.75V9.95H466.7V10.75H467.5ZM467.5 14.25V15.05H468.3V14.25H467.5ZM467.5 9H466.7V9.8H467.5V9ZM472.75 9V9.8H473.55V9H472.75ZM472.75 5.5H473.55V4.7H472.75V5.5ZM471 5.5H470.2V6.3H471V5.5ZM471 3.75H471.8V2.95H471V3.75ZM469.25 3.75V2.95H468.45V3.75H469.25ZM469.25 5.5V6.3H470.05V5.5H469.25ZM467.5 5.5V4.7H466.7V5.5H467.5ZM464.8 14.25V5.5H463.2V14.25H464.8ZM464 6.3H465.75V4.7H464V6.3ZM466.55 5.5V3.75H464.95V5.5H466.55ZM465.75 4.55H467.5V2.95H465.75V4.55ZM468.3 3.75V2H466.7V3.75H468.3ZM467.5 2.8H472.75V1.2H467.5V2.8ZM471.95 2V3.75H473.55V2H471.95ZM472.75 4.55H474.5V2.95H472.75V4.55ZM473.7 3.75V5.5H475.3V3.75H473.7ZM474.5 6.3H476.25V4.7H474.5V6.3ZM475.45 5.5V14.25H477.05V5.5H475.45ZM476.25 13.45H472.75V15.05H476.25V13.45ZM473.55 14.25V10.75H471.95V14.25H473.55ZM472.75 9.95H467.5V11.55H472.75V9.95ZM466.7 10.75V14.25H468.3V10.75H466.7ZM467.5 13.45H464V15.05H467.5V13.45ZM467.5 9.8H472.75V8.2H467.5V9.8ZM473.55 9V5.5H471.95V9H473.55ZM472.75 4.7H471V6.3H472.75V4.7ZM471.8 5.5V3.75H470.2V5.5H471.8ZM471 2.95H469.25V4.55H471V2.95ZM468.45 3.75V5.5H470.05V3.75H468.45ZM469.25 4.7H467.5V6.3H469.25V4.7ZM466.7 5.5V9H468.3V5.5H466.7ZM483.25 14.25H482.45V15.05H483.25V14.25ZM483.25 3.75H484.05V2.95H483.25V3.75ZM479.75 3.75H478.95V4.55H479.75V3.75ZM479.75 2V1.2H478.95V2H479.75ZM490.25 2H491.05V1.2H490.25V2ZM490.25 3.75V4.55H491.05V3.75H490.25ZM486.75 3.75V2.95H485.95V3.75H486.75ZM486.75 14.25V15.05H487.55V14.25H486.75ZM484.05 14.25V3.75H482.45V14.25H484.05ZM483.25 2.95H479.75V4.55H483.25V2.95ZM480.55 3.75V2H478.95V3.75H480.55ZM479.75 2.8H490.25V1.2H479.75V2.8ZM489.45 2V3.75H491.05V2H489.45ZM490.25 2.95H486.75V4.55H490.25V2.95ZM485.95 3.75V14.25H487.55V3.75H485.95ZM486.75 13.45H483.25V15.05H486.75V13.45ZM493.75 14.25H492.95V15.05H493.75V14.25ZM493.75 12.5V11.7H492.95V12.5H493.75ZM497.25 12.5V13.3H498.05V12.5H497.25ZM497.25 3.75H498.05V2.95H497.25V3.75ZM493.75 3.75H492.95V4.55H493.75V3.75ZM493.75 2V1.2H492.95V2H493.75ZM504.25 2H505.05V1.2H504.25V2ZM504.25 3.75V4.55H505.05V3.75H504.25ZM500.75 3.75V2.95H499.95V3.75H500.75ZM500.75 12.5H499.95V13.3H500.75V12.5ZM504.25 12.5H505.05V11.7H504.25V12.5ZM504.25 14.25V15.05H505.05V14.25H504.25ZM494.55 14.25V12.5H492.95V14.25H494.55ZM493.75 13.3H497.25V11.7H493.75V13.3ZM498.05 12.5V3.75H496.45V12.5H498.05ZM497.25 2.95H493.75V4.55H497.25V2.95ZM494.55 3.75V2H492.95V3.75H494.55ZM493.75 2.8H504.25V1.2H493.75V2.8ZM503.45 2V3.75H505.05V2H503.45ZM504.25 2.95H500.75V4.55H504.25V2.95ZM499.95 3.75V12.5H501.55V3.75H499.95ZM500.75 13.3H504.25V11.7H500.75V13.3ZM503.45 12.5V14.25H505.05V12.5H503.45ZM504.25 13.45H493.75V15.05H504.25V13.45ZM507.75 14.25H506.95V15.05H507.75V14.25ZM507.75 12.5H508.55V11.7H507.75V12.5ZM506 12.5H505.2V13.3H506V12.5ZM506 3.75V2.95H505.2V3.75H506ZM507.75 3.75V4.55H508.55V3.75H507.75ZM507.75 2V1.2H506.95V2H507.75ZM516.5 2H517.3V1.2H516.5V2ZM516.5 3.75H515.7V4.55H516.5V3.75ZM518.25 3.75H519.05V2.95H518.25V3.75ZM518.25 12.5V13.3H519.05V12.5H518.25ZM516.5 12.5V11.7H515.7V12.5H516.5ZM516.5 14.25V15.05H517.3V14.25H516.5ZM509.5 12.5H508.7V13.3H509.5V12.5ZM514.75 12.5V13.3H515.55V12.5H514.75ZM514.75 3.75H515.55V2.95H514.75V3.75ZM509.5 3.75V2.95H508.7V3.75H509.5ZM508.55 14.25V12.5H506.95V14.25H508.55ZM507.75 11.7H506V13.3H507.75V11.7ZM506.8 12.5V3.75H505.2V12.5H506.8ZM506 4.55H507.75V2.95H506V4.55ZM508.55 3.75V2H506.95V3.75H508.55ZM507.75 2.8H516.5V1.2H507.75V2.8ZM515.7 2V3.75H517.3V2H515.7ZM516.5 4.55H518.25V2.95H516.5V4.55ZM517.45 3.75V12.5H519.05V3.75H517.45ZM518.25 11.7H516.5V13.3H518.25V11.7ZM515.7 12.5V14.25H517.3V12.5H515.7ZM516.5 13.45H507.75V15.05H516.5V13.45ZM509.5 13.3H514.75V11.7H509.5V13.3ZM515.55 12.5V3.75H513.95V12.5H515.55ZM514.75 2.95H509.5V4.55H514.75V2.95ZM508.7 3.75V12.5H510.3V3.75H508.7ZM520 14.25H519.2V15.05H520V14.25ZM520 2V1.2H519.2V2H520ZM523.5 2H524.3V1.2H523.5V2ZM523.5 3.75H522.7V4.55H523.5V3.75ZM525.25 3.75H526.05V2.95H525.25V3.75ZM525.25 5.5H524.45V6.3H525.25V5.5ZM527 5.5H527.8V4.7H527V5.5ZM527 7.25H526.2V8.05H527V7.25ZM528.75 7.25V8.05H529.55V7.25H528.75ZM528.75 2V1.2H527.95V2H528.75ZM532.25 2H533.05V1.2H532.25V2ZM532.25 14.25V15.05H533.05V14.25H532.25ZM528.75 14.25H527.95V15.05H528.75V14.25ZM528.75 10.75H529.55V9.95H528.75V10.75ZM527 10.75H526.2V11.55H527V10.75ZM527 9H527.8V8.2H527V9ZM525.25 9H524.45V9.8H525.25V9ZM525.25 7.25H526.05V6.45H525.25V7.25ZM523.5 7.25V6.45H522.7V7.25H523.5ZM523.5 14.25V15.05H524.3V14.25H523.5ZM520.8 14.25V2H519.2V14.25H520.8ZM520 2.8H523.5V1.2H520V2.8ZM522.7 2V3.75H524.3V2H522.7ZM523.5 4.55H525.25V2.95H523.5V4.55ZM524.45 3.75V5.5H526.05V3.75H524.45ZM525.25 6.3H527V4.7H525.25V6.3ZM526.2 5.5V7.25H527.8V5.5H526.2ZM527 8.05H528.75V6.45H527V8.05ZM529.55 7.25V2H527.95V7.25H529.55ZM528.75 2.8H532.25V1.2H528.75V2.8ZM531.45 2V14.25H533.05V2H531.45ZM532.25 13.45H528.75V15.05H532.25V13.45ZM529.55 14.25V10.75H527.95V14.25H529.55ZM528.75 9.95H527V11.55H528.75V9.95ZM527.8 10.75V9H526.2V10.75H527.8ZM527 8.2H525.25V9.8H527V8.2ZM526.05 9V7.25H524.45V9H526.05ZM525.25 6.45H523.5V8.05H525.25V6.45ZM522.7 7.25V14.25H524.3V7.25H522.7ZM523.5 13.45H520V15.05H523.5V13.45ZM549.75 9H548.95V9.8H549.75V9ZM549.75 7.25V6.45H548.95V7.25H549.75ZM560.25 7.25H561.05V6.45H560.25V7.25ZM560.25 9V9.8H561.05V9H560.25ZM550.55 9V7.25H548.95V9H550.55ZM549.75 8.05H560.25V6.45H549.75V8.05ZM559.45 7.25V9H561.05V7.25H559.45ZM560.25 8.2H549.75V9.8H560.25V8.2Z" fill="#D732A8" mask="url(#path-2-outside-1_182_5494)"/>
<mask id="path-4-outside-2_182_5494" maskUnits="userSpaceOnUse" x="4" y="1" width="560" height="15" fill="black">
<rect fill="white" x="4" y="1" width="560" height="15"/>
<path d="M5.75 9V7.25H16.25V9H5.75ZM32 14.25V2H44.25V3.75H35.5V7.25H42.5V9H35.5V12.5H44.25V14.25H32ZM46 14.25V2H49.5V3.75H51.25V5.5H53V3.75H54.75V2H58.25V14.25H54.75V7.25H53V10.75H51.25V7.25H49.5V14.25H46ZM60 14.25V2H70.5V3.75H72.25V9H70.5V10.75H63.5V14.25H60ZM63.5 9H68.75V3.75H63.5V9ZM75.75 14.25V12.5H74V3.75H75.75V2H84.5V3.75H86.25V12.5H84.5V14.25H75.75ZM77.5 12.5H82.75V3.75H77.5V12.5ZM89.75 14.25V12.5H88V2H91.5V9H93.25V2H95V9H96.75V2H100.25V12.5H98.5V14.25H96.75V12.5H95V10.75H93.25V12.5H91.5V14.25H89.75ZM102 14.25V2H114.25V3.75H105.5V7.25H112.5V9H105.5V12.5H114.25V14.25H102ZM116 14.25V2H126.5V3.75H128.25V9H124.75V10.75H126.5V12.5H128.25V14.25H123V12.5H121.25V10.75H119.5V14.25H116ZM119.5 9H123V7.25H124.75V3.75H119.5V9ZM131.75 14.25V12.5H135.25V3.75H131.75V2H142.25V3.75H138.75V12.5H142.25V14.25H131.75ZM144 14.25V2H147.5V3.75H149.25V5.5H151V7.25H152.75V2H156.25V14.25H152.75V10.75H151V9H149.25V7.25H147.5V14.25H144ZM161.5 14.25V12.5H159.75V10.75H158V5.5H159.75V3.75H161.5V2H170.25V3.75H163.25V5.5H161.5V10.75H163.25V12.5H166.75V9H165V7.25H170.25V14.25H161.5ZM187.75 14.25V12.5H186V2H189.5V9H191.25V2H193V9H194.75V2H198.25V12.5H196.5V14.25H194.75V12.5H193V10.75H191.25V12.5H189.5V14.25H187.75ZM201.75 14.25V12.5H200V3.75H201.75V2H210.5V3.75H212.25V12.5H210.5V14.25H201.75ZM203.5 12.5H208.75V3.75H203.5V12.5ZM214 14.25V2H217.5V3.75H219.25V5.5H221V3.75H222.75V2H226.25V14.25H222.75V7.25H221V10.75H219.25V7.25H217.5V14.25H214ZM228 14.25V2H240.25V3.75H231.5V7.25H238.5V9H231.5V12.5H240.25V14.25H228ZM242 14.25V2H245.5V3.75H247.25V5.5H249V7.25H250.75V2H254.25V14.25H250.75V10.75H249V9H247.25V7.25H245.5V14.25H242ZM275.25 14.25V3.75H271.75V2H282.25V3.75H278.75V14.25H275.25ZM284 14.25V2H287.5V7.25H292.75V2H296.25V14.25H292.75V9H287.5V14.25H284ZM298 14.25V2H308.5V3.75H310.25V9H306.75V10.75H308.5V12.5H310.25V14.25H305V12.5H303.25V10.75H301.5V14.25H298ZM301.5 9H305V7.25H306.75V3.75H301.5V9ZM313.75 14.25V12.5H312V3.75H313.75V2H322.5V3.75H324.25V12.5H322.5V14.25H313.75ZM315.5 12.5H320.75V3.75H315.5V12.5ZM327.75 14.25V12.5H326V2H329.5V12.5H334.75V2H338.25V12.5H336.5V14.25H327.75ZM343.5 14.25V12.5H341.75V10.75H340V5.5H341.75V3.75H343.5V2H352.25V3.75H345.25V5.5H343.5V10.75H345.25V12.5H348.75V9H347V7.25H352.25V14.25H343.5ZM354 14.25V2H357.5V7.25H362.75V2H366.25V14.25H362.75V9H357.5V14.25H354ZM383.75 14.25V12.5H387.25V3.75H383.75V2H394.25V3.75H390.75V12.5H394.25V14.25H383.75ZM396 14.25V2H399.5V3.75H401.25V5.5H403V7.25H404.75V2H408.25V14.25H404.75V10.75H403V9H401.25V7.25H399.5V14.25H396ZM410 14.25V2H422.25V3.75H413.5V7.25H420.5V9H413.5V14.25H410ZM425.75 14.25V12.5H424V3.75H425.75V2H434.5V3.75H436.25V12.5H434.5V14.25H425.75ZM427.5 12.5H432.75V3.75H427.5V12.5ZM438 14.25V2H448.5V3.75H450.25V9H446.75V10.75H448.5V12.5H450.25V14.25H445V12.5H443.25V10.75H441.5V14.25H438ZM441.5 9H445V7.25H446.75V3.75H441.5V9ZM452 14.25V2H455.5V3.75H457.25V5.5H459V3.75H460.75V2H464.25V14.25H460.75V7.25H459V10.75H457.25V7.25H455.5V14.25H452ZM466 14.25V5.5H467.75V3.75H469.5V2H474.75V3.75H476.5V5.5H478.25V14.25H474.75V10.75H469.5V14.25H466ZM469.5 9H474.75V5.5H473V3.75H471.25V5.5H469.5V9ZM485.25 14.25V3.75H481.75V2H492.25V3.75H488.75V14.25H485.25ZM495.75 14.25V12.5H499.25V3.75H495.75V2H506.25V3.75H502.75V12.5H506.25V14.25H495.75ZM509.75 14.25V12.5H508V3.75H509.75V2H518.5V3.75H520.25V12.5H518.5V14.25H509.75ZM511.5 12.5H516.75V3.75H511.5V12.5ZM522 14.25V2H525.5V3.75H527.25V5.5H529V7.25H530.75V2H534.25V14.25H530.75V10.75H529V9H527.25V7.25H525.5V14.25H522ZM551.75 9V7.25H562.25V9H551.75Z"/>
</mask>
<path d="M5.75 9V7.25H16.25V9H5.75ZM32 14.25V2H44.25V3.75H35.5V7.25H42.5V9H35.5V12.5H44.25V14.25H32ZM46 14.25V2H49.5V3.75H51.25V5.5H53V3.75H54.75V2H58.25V14.25H54.75V7.25H53V10.75H51.25V7.25H49.5V14.25H46ZM60 14.25V2H70.5V3.75H72.25V9H70.5V10.75H63.5V14.25H60ZM63.5 9H68.75V3.75H63.5V9ZM75.75 14.25V12.5H74V3.75H75.75V2H84.5V3.75H86.25V12.5H84.5V14.25H75.75ZM77.5 12.5H82.75V3.75H77.5V12.5ZM89.75 14.25V12.5H88V2H91.5V9H93.25V2H95V9H96.75V2H100.25V12.5H98.5V14.25H96.75V12.5H95V10.75H93.25V12.5H91.5V14.25H89.75ZM102 14.25V2H114.25V3.75H105.5V7.25H112.5V9H105.5V12.5H114.25V14.25H102ZM116 14.25V2H126.5V3.75H128.25V9H124.75V10.75H126.5V12.5H128.25V14.25H123V12.5H121.25V10.75H119.5V14.25H116ZM119.5 9H123V7.25H124.75V3.75H119.5V9ZM131.75 14.25V12.5H135.25V3.75H131.75V2H142.25V3.75H138.75V12.5H142.25V14.25H131.75ZM144 14.25V2H147.5V3.75H149.25V5.5H151V7.25H152.75V2H156.25V14.25H152.75V10.75H151V9H149.25V7.25H147.5V14.25H144ZM161.5 14.25V12.5H159.75V10.75H158V5.5H159.75V3.75H161.5V2H170.25V3.75H163.25V5.5H161.5V10.75H163.25V12.5H166.75V9H165V7.25H170.25V14.25H161.5ZM187.75 14.25V12.5H186V2H189.5V9H191.25V2H193V9H194.75V2H198.25V12.5H196.5V14.25H194.75V12.5H193V10.75H191.25V12.5H189.5V14.25H187.75ZM201.75 14.25V12.5H200V3.75H201.75V2H210.5V3.75H212.25V12.5H210.5V14.25H201.75ZM203.5 12.5H208.75V3.75H203.5V12.5ZM214 14.25V2H217.5V3.75H219.25V5.5H221V3.75H222.75V2H226.25V14.25H222.75V7.25H221V10.75H219.25V7.25H217.5V14.25H214ZM228 14.25V2H240.25V3.75H231.5V7.25H238.5V9H231.5V12.5H240.25V14.25H228ZM242 14.25V2H245.5V3.75H247.25V5.5H249V7.25H250.75V2H254.25V14.25H250.75V10.75H249V9H247.25V7.25H245.5V14.25H242ZM275.25 14.25V3.75H271.75V2H282.25V3.75H278.75V14.25H275.25ZM284 14.25V2H287.5V7.25H292.75V2H296.25V14.25H292.75V9H287.5V14.25H284ZM298 14.25V2H308.5V3.75H310.25V9H306.75V10.75H308.5V12.5H310.25V14.25H305V12.5H303.25V10.75H301.5V14.25H298ZM301.5 9H305V7.25H306.75V3.75H301.5V9ZM313.75 14.25V12.5H312V3.75H313.75V2H322.5V3.75H324.25V12.5H322.5V14.25H313.75ZM315.5 12.5H320.75V3.75H315.5V12.5ZM327.75 14.25V12.5H326V2H329.5V12.5H334.75V2H338.25V12.5H336.5V14.25H327.75ZM343.5 14.25V12.5H341.75V10.75H340V5.5H341.75V3.75H343.5V2H352.25V3.75H345.25V5.5H343.5V10.75H345.25V12.5H348.75V9H347V7.25H352.25V14.25H343.5ZM354 14.25V2H357.5V7.25H362.75V2H366.25V14.25H362.75V9H357.5V14.25H354ZM383.75 14.25V12.5H387.25V3.75H383.75V2H394.25V3.75H390.75V12.5H394.25V14.25H383.75ZM396 14.25V2H399.5V3.75H401.25V5.5H403V7.25H404.75V2H408.25V14.25H404.75V10.75H403V9H401.25V7.25H399.5V14.25H396ZM410 14.25V2H422.25V3.75H413.5V7.25H420.5V9H413.5V14.25H410ZM425.75 14.25V12.5H424V3.75H425.75V2H434.5V3.75H436.25V12.5H434.5V14.25H425.75ZM427.5 12.5H432.75V3.75H427.5V12.5ZM438 14.25V2H448.5V3.75H450.25V9H446.75V10.75H448.5V12.5H450.25V14.25H445V12.5H443.25V10.75H441.5V14.25H438ZM441.5 9H445V7.25H446.75V3.75H441.5V9ZM452 14.25V2H455.5V3.75H457.25V5.5H459V3.75H460.75V2H464.25V14.25H460.75V7.25H459V10.75H457.25V7.25H455.5V14.25H452ZM466 14.25V5.5H467.75V3.75H469.5V2H474.75V3.75H476.5V5.5H478.25V14.25H474.75V10.75H469.5V14.25H466ZM469.5 9H474.75V5.5H473V3.75H471.25V5.5H469.5V9ZM485.25 14.25V3.75H481.75V2H492.25V3.75H488.75V14.25H485.25ZM495.75 14.25V12.5H499.25V3.75H495.75V2H506.25V3.75H502.75V12.5H506.25V14.25H495.75ZM509.75 14.25V12.5H508V3.75H509.75V2H518.5V3.75H520.25V12.5H518.5V14.25H509.75ZM511.5 12.5H516.75V3.75H511.5V12.5ZM522 14.25V2H525.5V3.75H527.25V5.5H529V7.25H530.75V2H534.25V14.25H530.75V10.75H529V9H527.25V7.25H525.5V14.25H522ZM551.75 9V7.25H562.25V9H551.75Z" fill="white"/>
<path d="M5.75 9H4.95V9.8H5.75V9ZM5.75 7.25V6.45H4.95V7.25H5.75ZM16.25 7.25H17.05V6.45H16.25V7.25ZM16.25 9V9.8H17.05V9H16.25ZM6.55 9V7.25H4.95V9H6.55ZM5.75 8.05H16.25V6.45H5.75V8.05ZM15.45 7.25V9H17.05V7.25H15.45ZM16.25 8.2H5.75V9.8H16.25V8.2ZM32 14.25H31.2V15.05H32V14.25ZM32 2V1.2H31.2V2H32ZM44.25 2H45.05V1.2H44.25V2ZM44.25 3.75V4.55H45.05V3.75H44.25ZM35.5 3.75V2.95H34.7V3.75H35.5ZM35.5 7.25H34.7V8.05H35.5V7.25ZM42.5 7.25H43.3V6.45H42.5V7.25ZM42.5 9V9.8H43.3V9H42.5ZM35.5 9V8.2H34.7V9H35.5ZM35.5 12.5H34.7V13.3H35.5V12.5ZM44.25 12.5H45.05V11.7H44.25V12.5ZM44.25 14.25V15.05H45.05V14.25H44.25ZM32.8 14.25V2H31.2V14.25H32.8ZM32 2.8H44.25V1.2H32V2.8ZM43.45 2V3.75H45.05V2H43.45ZM44.25 2.95H35.5V4.55H44.25V2.95ZM34.7 3.75V7.25H36.3V3.75H34.7ZM35.5 8.05H42.5V6.45H35.5V8.05ZM41.7 7.25V9H43.3V7.25H41.7ZM42.5 8.2H35.5V9.8H42.5V8.2ZM34.7 9V12.5H36.3V9H34.7ZM35.5 13.3H44.25V11.7H35.5V13.3ZM43.45 12.5V14.25H45.05V12.5H43.45ZM44.25 13.45H32V15.05H44.25V13.45ZM46 14.25H45.2V15.05H46V14.25ZM46 2V1.2H45.2V2H46ZM49.5 2H50.3V1.2H49.5V2ZM49.5 3.75H48.7V4.55H49.5V3.75ZM51.25 3.75H52.05V2.95H51.25V3.75ZM51.25 5.5H50.45V6.3H51.25V5.5ZM53 5.5V6.3H53.8V5.5H53ZM53 3.75V2.95H52.2V3.75H53ZM54.75 3.75V4.55H55.55V3.75H54.75ZM54.75 2V1.2H53.95V2H54.75ZM58.25 2H59.05V1.2H58.25V2ZM58.25 14.25V15.05H59.05V14.25H58.25ZM54.75 14.25H53.95V15.05H54.75V14.25ZM54.75 7.25H55.55V6.45H54.75V7.25ZM53 7.25V6.45H52.2V7.25H53ZM53 10.75V11.55H53.8V10.75H53ZM51.25 10.75H50.45V11.55H51.25V10.75ZM51.25 7.25H52.05V6.45H51.25V7.25ZM49.5 7.25V6.45H48.7V7.25H49.5ZM49.5 14.25V15.05H50.3V14.25H49.5ZM46.8 14.25V2H45.2V14.25H46.8ZM46 2.8H49.5V1.2H46V2.8ZM48.7 2V3.75H50.3V2H48.7ZM49.5 4.55H51.25V2.95H49.5V4.55ZM50.45 3.75V5.5H52.05V3.75H50.45ZM51.25 6.3H53V4.7H51.25V6.3ZM53.8 5.5V3.75H52.2V5.5H53.8ZM53 4.55H54.75V2.95H53V4.55ZM55.55 3.75V2H53.95V3.75H55.55ZM54.75 2.8H58.25V1.2H54.75V2.8ZM57.45 2V14.25H59.05V2H57.45ZM58.25 13.45H54.75V15.05H58.25V13.45ZM55.55 14.25V7.25H53.95V14.25H55.55ZM54.75 6.45H53V8.05H54.75V6.45ZM52.2 7.25V10.75H53.8V7.25H52.2ZM53 9.95H51.25V11.55H53V9.95ZM52.05 10.75V7.25H50.45V10.75H52.05ZM51.25 6.45H49.5V8.05H51.25V6.45ZM48.7 7.25V14.25H50.3V7.25H48.7ZM49.5 13.45H46V15.05H49.5V13.45ZM60 14.25H59.2V15.05H60V14.25ZM60 2V1.2H59.2V2H60ZM70.5 2H71.3V1.2H70.5V2ZM70.5 3.75H69.7V4.55H70.5V3.75ZM72.25 3.75H73.05V2.95H72.25V3.75ZM72.25 9V9.8H73.05V9H72.25ZM70.5 9V8.2H69.7V9H70.5ZM70.5 10.75V11.55H71.3V10.75H70.5ZM63.5 10.75V9.95H62.7V10.75H63.5ZM63.5 14.25V15.05H64.3V14.25H63.5ZM63.5 9H62.7V9.8H63.5V9ZM68.75 9V9.8H69.55V9H68.75ZM68.75 3.75H69.55V2.95H68.75V3.75ZM63.5 3.75V2.95H62.7V3.75H63.5ZM60.8 14.25V2H59.2V14.25H60.8ZM60 2.8H70.5V1.2H60V2.8ZM69.7 2V3.75H71.3V2H69.7ZM70.5 4.55H72.25V2.95H70.5V4.55ZM71.45 3.75V9H73.05V3.75H71.45ZM72.25 8.2H70.5V9.8H72.25V8.2ZM69.7 9V10.75H71.3V9H69.7ZM70.5 9.95H63.5V11.55H70.5V9.95ZM62.7 10.75V14.25H64.3V10.75H62.7ZM63.5 13.45H60V15.05H63.5V13.45ZM63.5 9.8H68.75V8.2H63.5V9.8ZM69.55 9V3.75H67.95V9H69.55ZM68.75 2.95H63.5V4.55H68.75V2.95ZM62.7 3.75V9H64.3V3.75H62.7ZM75.75 14.25H74.95V15.05H75.75V14.25ZM75.75 12.5H76.55V11.7H75.75V12.5ZM74 12.5H73.2V13.3H74V12.5ZM74 3.75V2.95H73.2V3.75H74ZM75.75 3.75V4.55H76.55V3.75H75.75ZM75.75 2V1.2H74.95V2H75.75ZM84.5 2H85.3V1.2H84.5V2ZM84.5 3.75H83.7V4.55H84.5V3.75ZM86.25 3.75H87.05V2.95H86.25V3.75ZM86.25 12.5V13.3H87.05V12.5H86.25ZM84.5 12.5V11.7H83.7V12.5H84.5ZM84.5 14.25V15.05H85.3V14.25H84.5ZM77.5 12.5H76.7V13.3H77.5V12.5ZM82.75 12.5V13.3H83.55V12.5H82.75ZM82.75 3.75H83.55V2.95H82.75V3.75ZM77.5 3.75V2.95H76.7V3.75H77.5ZM76.55 14.25V12.5H74.95V14.25H76.55ZM75.75 11.7H74V13.3H75.75V11.7ZM74.8 12.5V3.75H73.2V12.5H74.8ZM74 4.55H75.75V2.95H74V4.55ZM76.55 3.75V2H74.95V3.75H76.55ZM75.75 2.8H84.5V1.2H75.75V2.8ZM83.7 2V3.75H85.3V2H83.7ZM84.5 4.55H86.25V2.95H84.5V4.55ZM85.45 3.75V12.5H87.05V3.75H85.45ZM86.25 11.7H84.5V13.3H86.25V11.7ZM83.7 12.5V14.25H85.3V12.5H83.7ZM84.5 13.45H75.75V15.05H84.5V13.45ZM77.5 13.3H82.75V11.7H77.5V13.3ZM83.55 12.5V3.75H81.95V12.5H83.55ZM82.75 2.95H77.5V4.55H82.75V2.95ZM76.7 3.75V12.5H78.3V3.75H76.7ZM89.75 14.25H88.95V15.05H89.75V14.25ZM89.75 12.5H90.55V11.7H89.75V12.5ZM88 12.5H87.2V13.3H88V12.5ZM88 2V1.2H87.2V2H88ZM91.5 2H92.3V1.2H91.5V2ZM91.5 9H90.7V9.8H91.5V9ZM93.25 9V9.8H94.05V9H93.25ZM93.25 2V1.2H92.45V2H93.25ZM95 2H95.8V1.2H95V2ZM95 9H94.2V9.8H95V9ZM96.75 9V9.8H97.55V9H96.75ZM96.75 2V1.2H95.95V2H96.75ZM100.25 2H101.05V1.2H100.25V2ZM100.25 12.5V13.3H101.05V12.5H100.25ZM98.5 12.5V11.7H97.7V12.5H98.5ZM98.5 14.25V15.05H99.3V14.25H98.5ZM96.75 14.25H95.95V15.05H96.75V14.25ZM96.75 12.5H97.55V11.7H96.75V12.5ZM95 12.5H94.2V13.3H95V12.5ZM95 10.75H95.8V9.95H95V10.75ZM93.25 10.75V9.95H92.45V10.75H93.25ZM93.25 12.5V13.3H94.05V12.5H93.25ZM91.5 12.5V11.7H90.7V12.5H91.5ZM91.5 14.25V15.05H92.3V14.25H91.5ZM90.55 14.25V12.5H88.95V14.25H90.55ZM89.75 11.7H88V13.3H89.75V11.7ZM88.8 12.5V2H87.2V12.5H88.8ZM88 2.8H91.5V1.2H88V2.8ZM90.7 2V9H92.3V2H90.7ZM91.5 9.8H93.25V8.2H91.5V9.8ZM94.05 9V2H92.45V9H94.05ZM93.25 2.8H95V1.2H93.25V2.8ZM94.2 2V9H95.8V2H94.2ZM95 9.8H96.75V8.2H95V9.8ZM97.55 9V2H95.95V9H97.55ZM96.75 2.8H100.25V1.2H96.75V2.8ZM99.45 2V12.5H101.05V2H99.45ZM100.25 11.7H98.5V13.3H100.25V11.7ZM97.7 12.5V14.25H99.3V12.5H97.7ZM98.5 13.45H96.75V15.05H98.5V13.45ZM97.55 14.25V12.5H95.95V14.25H97.55ZM96.75 11.7H95V13.3H96.75V11.7ZM95.8 12.5V10.75H94.2V12.5H95.8ZM95 9.95H93.25V11.55H95V9.95ZM92.45 10.75V12.5H94.05V10.75H92.45ZM93.25 11.7H91.5V13.3H93.25V11.7ZM90.7 12.5V14.25H92.3V12.5H90.7ZM91.5 13.45H89.75V15.05H91.5V13.45ZM102 14.25H101.2V15.05H102V14.25ZM102 2V1.2H101.2V2H102ZM114.25 2H115.05V1.2H114.25V2ZM114.25 3.75V4.55H115.05V3.75H114.25ZM105.5 3.75V2.95H104.7V3.75H105.5ZM105.5 7.25H104.7V8.05H105.5V7.25ZM112.5 7.25H113.3V6.45H112.5V7.25ZM112.5 9V9.8H113.3V9H112.5ZM105.5 9V8.2H104.7V9H105.5ZM105.5 12.5H104.7V13.3H105.5V12.5ZM114.25 12.5H115.05V11.7H114.25V12.5ZM114.25 14.25V15.05H115.05V14.25H114.25ZM102.8 14.25V2H101.2V14.25H102.8ZM102 2.8H114.25V1.2H102V2.8ZM113.45 2V3.75H115.05V2H113.45ZM114.25 2.95H105.5V4.55H114.25V2.95ZM104.7 3.75V7.25H106.3V3.75H104.7ZM105.5 8.05H112.5V6.45H105.5V8.05ZM111.7 7.25V9H113.3V7.25H111.7ZM112.5 8.2H105.5V9.8H112.5V8.2ZM104.7 9V12.5H106.3V9H104.7ZM105.5 13.3H114.25V11.7H105.5V13.3ZM113.45 12.5V14.25H115.05V12.5H113.45ZM114.25 13.45H102V15.05H114.25V13.45ZM116 14.25H115.2V15.05H116V14.25ZM116 2V1.2H115.2V2H116ZM126.5 2H127.3V1.2H126.5V2ZM126.5 3.75H125.7V4.55H126.5V3.75ZM128.25 3.75H129.05V2.95H128.25V3.75ZM128.25 9V9.8H129.05V9H128.25ZM124.75 9V8.2H123.95V9H124.75ZM124.75 10.75H123.95V11.55H124.75V10.75ZM126.5 10.75H127.3V9.95H126.5V10.75ZM126.5 12.5H125.7V13.3H126.5V12.5ZM128.25 12.5H129.05V11.7H128.25V12.5ZM128.25 14.25V15.05H129.05V14.25H128.25ZM123 14.25H122.2V15.05H123V14.25ZM123 12.5H123.8V11.7H123V12.5ZM121.25 12.5H120.45V13.3H121.25V12.5ZM121.25 10.75H122.05V9.95H121.25V10.75ZM119.5 10.75V9.95H118.7V10.75H119.5ZM119.5 14.25V15.05H120.3V14.25H119.5ZM119.5 9H118.7V9.8H119.5V9ZM123 9V9.8H123.8V9H123ZM123 7.25V6.45H122.2V7.25H123ZM124.75 7.25V8.05H125.55V7.25H124.75ZM124.75 3.75H125.55V2.95H124.75V3.75ZM119.5 3.75V2.95H118.7V3.75H119.5ZM116.8 14.25V2H115.2V14.25H116.8ZM116 2.8H126.5V1.2H116V2.8ZM125.7 2V3.75H127.3V2H125.7ZM126.5 4.55H128.25V2.95H126.5V4.55ZM127.45 3.75V9H129.05V3.75H127.45ZM128.25 8.2H124.75V9.8H128.25V8.2ZM123.95 9V10.75H125.55V9H123.95ZM124.75 11.55H126.5V9.95H124.75V11.55ZM125.7 10.75V12.5H127.3V10.75H125.7ZM126.5 13.3H128.25V11.7H126.5V13.3ZM127.45 12.5V14.25H129.05V12.5H127.45ZM128.25 13.45H123V15.05H128.25V13.45ZM123.8 14.25V12.5H122.2V14.25H123.8ZM123 11.7H121.25V13.3H123V11.7ZM122.05 12.5V10.75H120.45V12.5H122.05ZM121.25 9.95H119.5V11.55H121.25V9.95ZM118.7 10.75V14.25H120.3V10.75H118.7ZM119.5 13.45H116V15.05H119.5V13.45ZM119.5 9.8H123V8.2H119.5V9.8ZM123.8 9V7.25H122.2V9H123.8ZM123 8.05H124.75V6.45H123V8.05ZM125.55 7.25V3.75H123.95V7.25H125.55ZM124.75 2.95H119.5V4.55H124.75V2.95ZM118.7 3.75V9H120.3V3.75H118.7ZM131.75 14.25H130.95V15.05H131.75V14.25ZM131.75 12.5V11.7H130.95V12.5H131.75ZM135.25 12.5V13.3H136.05V12.5H135.25ZM135.25 3.75H136.05V2.95H135.25V3.75ZM131.75 3.75H130.95V4.55H131.75V3.75ZM131.75 2V1.2H130.95V2H131.75ZM142.25 2H143.05V1.2H142.25V2ZM142.25 3.75V4.55H143.05V3.75H142.25ZM138.75 3.75V2.95H137.95V3.75H138.75ZM138.75 12.5H137.95V13.3H138.75V12.5ZM142.25 12.5H143.05V11.7H142.25V12.5ZM142.25 14.25V15.05H143.05V14.25H142.25ZM132.55 14.25V12.5H130.95V14.25H132.55ZM131.75 13.3H135.25V11.7H131.75V13.3ZM136.05 12.5V3.75H134.45V12.5H136.05ZM135.25 2.95H131.75V4.55H135.25V2.95ZM132.55 3.75V2H130.95V3.75H132.55ZM131.75 2.8H142.25V1.2H131.75V2.8ZM141.45 2V3.75H143.05V2H141.45ZM142.25 2.95H138.75V4.55H142.25V2.95ZM137.95 3.75V12.5H139.55V3.75H137.95ZM138.75 13.3H142.25V11.7H138.75V13.3ZM141.45 12.5V14.25H143.05V12.5H141.45ZM142.25 13.45H131.75V15.05H142.25V13.45ZM144 14.25H143.2V15.05H144V14.25ZM144 2V1.2H143.2V2H144ZM147.5 2H148.3V1.2H147.5V2ZM147.5 3.75H146.7V4.55H147.5V3.75ZM149.25 3.75H150.05V2.95H149.25V3.75ZM149.25 5.5H148.45V6.3H149.25V5.5ZM151 5.5H151.8V4.7H151V5.5ZM151 7.25H150.2V8.05H151V7.25ZM152.75 7.25V8.05H153.55V7.25H152.75ZM152.75 2V1.2H151.95V2H152.75ZM156.25 2H157.05V1.2H156.25V2ZM156.25 14.25V15.05H157.05V14.25H156.25ZM152.75 14.25H151.95V15.05H152.75V14.25ZM152.75 10.75H153.55V9.95H152.75V10.75ZM151 10.75H150.2V11.55H151V10.75ZM151 9H151.8V8.2H151V9ZM149.25 9H148.45V9.8H149.25V9ZM149.25 7.25H150.05V6.45H149.25V7.25ZM147.5 7.25V6.45H146.7V7.25H147.5ZM147.5 14.25V15.05H148.3V14.25H147.5ZM144.8 14.25V2H143.2V14.25H144.8ZM144 2.8H147.5V1.2H144V2.8ZM146.7 2V3.75H148.3V2H146.7ZM147.5 4.55H149.25V2.95H147.5V4.55ZM148.45 3.75V5.5H150.05V3.75H148.45ZM149.25 6.3H151V4.7H149.25V6.3ZM150.2 5.5V7.25H151.8V5.5H150.2ZM151 8.05H152.75V6.45H151V8.05ZM153.55 7.25V2H151.95V7.25H153.55ZM152.75 2.8H156.25V1.2H152.75V2.8ZM155.45 2V14.25H157.05V2H155.45ZM156.25 13.45H152.75V15.05H156.25V13.45ZM153.55 14.25V10.75H151.95V14.25H153.55ZM152.75 9.95H151V11.55H152.75V9.95ZM151.8 10.75V9H150.2V10.75H151.8ZM151 8.2H149.25V9.8H151V8.2ZM150.05 9V7.25H148.45V9H150.05ZM149.25 6.45H147.5V8.05H149.25V6.45ZM146.7 7.25V14.25H148.3V7.25H146.7ZM147.5 13.45H144V15.05H147.5V13.45ZM161.5 14.25H160.7V15.05H161.5V14.25ZM161.5 12.5H162.3V11.7H161.5V12.5ZM159.75 12.5H158.95V13.3H159.75V12.5ZM159.75 10.75H160.55V9.95H159.75V10.75ZM158 10.75H157.2V11.55H158V10.75ZM158 5.5V4.7H157.2V5.5H158ZM159.75 5.5V6.3H160.55V5.5H159.75ZM159.75 3.75V2.95H158.95V3.75H159.75ZM161.5 3.75V4.55H162.3V3.75H161.5ZM161.5 2V1.2H160.7V2H161.5ZM170.25 2H171.05V1.2H170.25V2ZM170.25 3.75V4.55H171.05V3.75H170.25ZM163.25 3.75V2.95H162.45V3.75H163.25ZM163.25 5.5V6.3H164.05V5.5H163.25ZM161.5 5.5V4.7H160.7V5.5H161.5ZM161.5 10.75H160.7V11.55H161.5V10.75ZM163.25 10.75H164.05V9.95H163.25V10.75ZM163.25 12.5H162.45V13.3H163.25V12.5ZM166.75 12.5V13.3H167.55V12.5H166.75ZM166.75 9H167.55V8.2H166.75V9ZM165 9H164.2V9.8H165V9ZM165 7.25V6.45H164.2V7.25H165ZM170.25 7.25H171.05V6.45H170.25V7.25ZM170.25 14.25V15.05H171.05V14.25H170.25ZM162.3 14.25V12.5H160.7V14.25H162.3ZM161.5 11.7H159.75V13.3H161.5V11.7ZM160.55 12.5V10.75H158.95V12.5H160.55ZM159.75 9.95H158V11.55H159.75V9.95ZM158.8 10.75V5.5H157.2V10.75H158.8ZM158 6.3H159.75V4.7H158V6.3ZM160.55 5.5V3.75H158.95V5.5H160.55ZM159.75 4.55H161.5V2.95H159.75V4.55ZM162.3 3.75V2H160.7V3.75H162.3ZM161.5 2.8H170.25V1.2H161.5V2.8ZM169.45 2V3.75H171.05V2H169.45ZM170.25 2.95H163.25V4.55H170.25V2.95ZM162.45 3.75V5.5H164.05V3.75H162.45ZM163.25 4.7H161.5V6.3H163.25V4.7ZM160.7 5.5V10.75H162.3V5.5H160.7ZM161.5 11.55H163.25V9.95H161.5V11.55ZM162.45 10.75V12.5H164.05V10.75H162.45ZM163.25 13.3H166.75V11.7H163.25V13.3ZM167.55 12.5V9H165.95V12.5H167.55ZM166.75 8.2H165V9.8H166.75V8.2ZM165.8 9V7.25H164.2V9H165.8ZM165 8.05H170.25V6.45H165V8.05ZM169.45 7.25V14.25H171.05V7.25H169.45ZM170.25 13.45H161.5V15.05H170.25V13.45ZM187.75 14.25H186.95V15.05H187.75V14.25ZM187.75 12.5H188.55V11.7H187.75V12.5ZM186 12.5H185.2V13.3H186V12.5ZM186 2V1.2H185.2V2H186ZM189.5 2H190.3V1.2H189.5V2ZM189.5 9H188.7V9.8H189.5V9ZM191.25 9V9.8H192.05V9H191.25ZM191.25 2V1.2H190.45V2H191.25ZM193 2H193.8V1.2H193V2ZM193 9H192.2V9.8H193V9ZM194.75 9V9.8H195.55V9H194.75ZM194.75 2V1.2H193.95V2H194.75ZM198.25 2H199.05V1.2H198.25V2ZM198.25 12.5V13.3H199.05V12.5H198.25ZM196.5 12.5V11.7H195.7V12.5H196.5ZM196.5 14.25V15.05H197.3V14.25H196.5ZM194.75 14.25H193.95V15.05H194.75V14.25ZM194.75 12.5H195.55V11.7H194.75V12.5ZM193 12.5H192.2V13.3H193V12.5ZM193 10.75H193.8V9.95H193V10.75ZM191.25 10.75V9.95H190.45V10.75H191.25ZM191.25 12.5V13.3H192.05V12.5H191.25ZM189.5 12.5V11.7H188.7V12.5H189.5ZM189.5 14.25V15.05H190.3V14.25H189.5ZM188.55 14.25V12.5H186.95V14.25H188.55ZM187.75 11.7H186V13.3H187.75V11.7ZM186.8 12.5V2H185.2V12.5H186.8ZM186 2.8H189.5V1.2H186V2.8ZM188.7 2V9H190.3V2H188.7ZM189.5 9.8H191.25V8.2H189.5V9.8ZM192.05 9V2H190.45V9H192.05ZM191.25 2.8H193V1.2H191.25V2.8ZM192.2 2V9H193.8V2H192.2ZM193 9.8H194.75V8.2H193V9.8ZM195.55 9V2H193.95V9H195.55ZM194.75 2.8H198.25V1.2H194.75V2.8ZM197.45 2V12.5H199.05V2H197.45ZM198.25 11.7H196.5V13.3H198.25V11.7ZM195.7 12.5V14.25H197.3V12.5H195.7ZM196.5 13.45H194.75V15.05H196.5V13.45ZM195.55 14.25V12.5H193.95V14.25H195.55ZM194.75 11.7H193V13.3H194.75V11.7ZM193.8 12.5V10.75H192.2V12.5H193.8ZM193 9.95H191.25V11.55H193V9.95ZM190.45 10.75V12.5H192.05V10.75H190.45ZM191.25 11.7H189.5V13.3H191.25V11.7ZM188.7 12.5V14.25H190.3V12.5H188.7ZM189.5 13.45H187.75V15.05H189.5V13.45ZM201.75 14.25H200.95V15.05H201.75V14.25ZM201.75 12.5H202.55V11.7H201.75V12.5ZM200 12.5H199.2V13.3H200V12.5ZM200 3.75V2.95H199.2V3.75H200ZM201.75 3.75V4.55H202.55V3.75H201.75ZM201.75 2V1.2H200.95V2H201.75ZM210.5 2H211.3V1.2H210.5V2ZM210.5 3.75H209.7V4.55H210.5V3.75ZM212.25 3.75H213.05V2.95H212.25V3.75ZM212.25 12.5V13.3H213.05V12.5H212.25ZM210.5 12.5V11.7H209.7V12.5H210.5ZM210.5 14.25V15.05H211.3V14.25H210.5ZM203.5 12.5H202.7V13.3H203.5V12.5ZM208.75 12.5V13.3H209.55V12.5H208.75ZM208.75 3.75H209.55V2.95H208.75V3.75ZM203.5 3.75V2.95H202.7V3.75H203.5ZM202.55 14.25V12.5H200.95V14.25H202.55ZM201.75 11.7H200V13.3H201.75V11.7ZM200.8 12.5V3.75H199.2V12.5H200.8ZM200 4.55H201.75V2.95H200V4.55ZM202.55 3.75V2H200.95V3.75H202.55ZM201.75 2.8H210.5V1.2H201.75V2.8ZM209.7 2V3.75H211.3V2H209.7ZM210.5 4.55H212.25V2.95H210.5V4.55ZM211.45 3.75V12.5H213.05V3.75H211.45ZM212.25 11.7H210.5V13.3H212.25V11.7ZM209.7 12.5V14.25H211.3V12.5H209.7ZM210.5 13.45H201.75V15.05H210.5V13.45ZM203.5 13.3H208.75V11.7H203.5V13.3ZM209.55 12.5V3.75H207.95V12.5H209.55ZM208.75 2.95H203.5V4.55H208.75V2.95ZM202.7 3.75V12.5H204.3V3.75H202.7ZM214 14.25H213.2V15.05H214V14.25ZM214 2V1.2H213.2V2H214ZM217.5 2H218.3V1.2H217.5V2ZM217.5 3.75H216.7V4.55H217.5V3.75ZM219.25 3.75H220.05V2.95H219.25V3.75ZM219.25 5.5H218.45V6.3H219.25V5.5ZM221 5.5V6.3H221.8V5.5H221ZM221 3.75V2.95H220.2V3.75H221ZM222.75 3.75V4.55H223.55V3.75H222.75ZM222.75 2V1.2H221.95V2H222.75ZM226.25 2H227.05V1.2H226.25V2ZM226.25 14.25V15.05H227.05V14.25H226.25ZM222.75 14.25H221.95V15.05H222.75V14.25ZM222.75 7.25H223.55V6.45H222.75V7.25ZM221 7.25V6.45H220.2V7.25H221ZM221 10.75V11.55H221.8V10.75H221ZM219.25 10.75H218.45V11.55H219.25V10.75ZM219.25 7.25H220.05V6.45H219.25V7.25ZM217.5 7.25V6.45H216.7V7.25H217.5ZM217.5 14.25V15.05H218.3V14.25H217.5ZM214.8 14.25V2H213.2V14.25H214.8ZM214 2.8H217.5V1.2H214V2.8ZM216.7 2V3.75H218.3V2H216.7ZM217.5 4.55H219.25V2.95H217.5V4.55ZM218.45 3.75V5.5H220.05V3.75H218.45ZM219.25 6.3H221V4.7H219.25V6.3ZM221.8 5.5V3.75H220.2V5.5H221.8ZM221 4.55H222.75V2.95H221V4.55ZM223.55 3.75V2H221.95V3.75H223.55ZM222.75 2.8H226.25V1.2H222.75V2.8ZM225.45 2V14.25H227.05V2H225.45ZM226.25 13.45H222.75V15.05H226.25V13.45ZM223.55 14.25V7.25H221.95V14.25H223.55ZM222.75 6.45H221V8.05H222.75V6.45ZM220.2 7.25V10.75H221.8V7.25H220.2ZM221 9.95H219.25V11.55H221V9.95ZM220.05 10.75V7.25H218.45V10.75H220.05ZM219.25 6.45H217.5V8.05H219.25V6.45ZM216.7 7.25V14.25H218.3V7.25H216.7ZM217.5 13.45H214V15.05H217.5V13.45ZM228 14.25H227.2V15.05H228V14.25ZM228 2V1.2H227.2V2H228ZM240.25 2H241.05V1.2H240.25V2ZM240.25 3.75V4.55H241.05V3.75H240.25ZM231.5 3.75V2.95H230.7V3.75H231.5ZM231.5 7.25H230.7V8.05H231.5V7.25ZM238.5 7.25H239.3V6.45H238.5V7.25ZM238.5 9V9.8H239.3V9H238.5ZM231.5 9V8.2H230.7V9H231.5ZM231.5 12.5H230.7V13.3H231.5V12.5ZM240.25 12.5H241.05V11.7H240.25V12.5ZM240.25 14.25V15.05H241.05V14.25H240.25ZM228.8 14.25V2H227.2V14.25H228.8ZM228 2.8H240.25V1.2H228V2.8ZM239.45 2V3.75H241.05V2H239.45ZM240.25 2.95H231.5V4.55H240.25V2.95ZM230.7 3.75V7.25H232.3V3.75H230.7ZM231.5 8.05H238.5V6.45H231.5V8.05ZM237.7 7.25V9H239.3V7.25H237.7ZM238.5 8.2H231.5V9.8H238.5V8.2ZM230.7 9V12.5H232.3V9H230.7ZM231.5 13.3H240.25V11.7H231.5V13.3ZM239.45 12.5V14.25H241.05V12.5H239.45ZM240.25 13.45H228V15.05H240.25V13.45ZM242 14.25H241.2V15.05H242V14.25ZM242 2V1.2H241.2V2H242ZM245.5 2H246.3V1.2H245.5V2ZM245.5 3.75H244.7V4.55H245.5V3.75ZM247.25 3.75H248.05V2.95H247.25V3.75ZM247.25 5.5H246.45V6.3H247.25V5.5ZM249 5.5H249.8V4.7H249V5.5ZM249 7.25H248.2V8.05H249V7.25ZM250.75 7.25V8.05H251.55V7.25H250.75ZM250.75 2V1.2H249.95V2H250.75ZM254.25 2H255.05V1.2H254.25V2ZM254.25 14.25V15.05H255.05V14.25H254.25ZM250.75 14.25H249.95V15.05H250.75V14.25ZM250.75 10.75H251.55V9.95H250.75V10.75ZM249 10.75H248.2V11.55H249V10.75ZM249 9H249.8V8.2H249V9ZM247.25 9H246.45V9.8H247.25V9ZM247.25 7.25H248.05V6.45H247.25V7.25ZM245.5 7.25V6.45H244.7V7.25H245.5ZM245.5 14.25V15.05H246.3V14.25H245.5ZM242.8 14.25V2H241.2V14.25H242.8ZM242 2.8H245.5V1.2H242V2.8ZM244.7 2V3.75H246.3V2H244.7ZM245.5 4.55H247.25V2.95H245.5V4.55ZM246.45 3.75V5.5H248.05V3.75H246.45ZM247.25 6.3H249V4.7H247.25V6.3ZM248.2 5.5V7.25H249.8V5.5H248.2ZM249 8.05H250.75V6.45H249V8.05ZM251.55 7.25V2H249.95V7.25H251.55ZM250.75 2.8H254.25V1.2H250.75V2.8ZM253.45 2V14.25H255.05V2H253.45ZM254.25 13.45H250.75V15.05H254.25V13.45ZM251.55 14.25V10.75H249.95V14.25H251.55ZM250.75 9.95H249V11.55H250.75V9.95ZM249.8 10.75V9H248.2V10.75H249.8ZM249 8.2H247.25V9.8H249V8.2ZM248.05 9V7.25H246.45V9H248.05ZM247.25 6.45H245.5V8.05H247.25V6.45ZM244.7 7.25V14.25H246.3V7.25H244.7ZM245.5 13.45H242V15.05H245.5V13.45ZM275.25 14.25H274.45V15.05H275.25V14.25ZM275.25 3.75H276.05V2.95H275.25V3.75ZM271.75 3.75H270.95V4.55H271.75V3.75ZM271.75 2V1.2H270.95V2H271.75ZM282.25 2H283.05V1.2H282.25V2ZM282.25 3.75V4.55H283.05V3.75H282.25ZM278.75 3.75V2.95H277.95V3.75H278.75ZM278.75 14.25V15.05H279.55V14.25H278.75ZM276.05 14.25V3.75H274.45V14.25H276.05ZM275.25 2.95H271.75V4.55H275.25V2.95ZM272.55 3.75V2H270.95V3.75H272.55ZM271.75 2.8H282.25V1.2H271.75V2.8ZM281.45 2V3.75H283.05V2H281.45ZM282.25 2.95H278.75V4.55H282.25V2.95ZM277.95 3.75V14.25H279.55V3.75H277.95ZM278.75 13.45H275.25V15.05H278.75V13.45ZM284 14.25H283.2V15.05H284V14.25ZM284 2V1.2H283.2V2H284ZM287.5 2H288.3V1.2H287.5V2ZM287.5 7.25H286.7V8.05H287.5V7.25ZM292.75 7.25V8.05H293.55V7.25H292.75ZM292.75 2V1.2H291.95V2H292.75ZM296.25 2H297.05V1.2H296.25V2ZM296.25 14.25V15.05H297.05V14.25H296.25ZM292.75 14.25H291.95V15.05H292.75V14.25ZM292.75 9H293.55V8.2H292.75V9ZM287.5 9V8.2H286.7V9H287.5ZM287.5 14.25V15.05H288.3V14.25H287.5ZM284.8 14.25V2H283.2V14.25H284.8ZM284 2.8H287.5V1.2H284V2.8ZM286.7 2V7.25H288.3V2H286.7ZM287.5 8.05H292.75V6.45H287.5V8.05ZM293.55 7.25V2H291.95V7.25H293.55ZM292.75 2.8H296.25V1.2H292.75V2.8ZM295.45 2V14.25H297.05V2H295.45ZM296.25 13.45H292.75V15.05H296.25V13.45ZM293.55 14.25V9H291.95V14.25H293.55ZM292.75 8.2H287.5V9.8H292.75V8.2ZM286.7 9V14.25H288.3V9H286.7ZM287.5 13.45H284V15.05H287.5V13.45ZM298 14.25H297.2V15.05H298V14.25ZM298 2V1.2H297.2V2H298ZM308.5 2H309.3V1.2H308.5V2ZM308.5 3.75H307.7V4.55H308.5V3.75ZM310.25 3.75H311.05V2.95H310.25V3.75ZM310.25 9V9.8H311.05V9H310.25ZM306.75 9V8.2H305.95V9H306.75ZM306.75 10.75H305.95V11.55H306.75V10.75ZM308.5 10.75H309.3V9.95H308.5V10.75ZM308.5 12.5H307.7V13.3H308.5V12.5ZM310.25 12.5H311.05V11.7H310.25V12.5ZM310.25 14.25V15.05H311.05V14.25H310.25ZM305 14.25H304.2V15.05H305V14.25ZM305 12.5H305.8V11.7H305V12.5ZM303.25 12.5H302.45V13.3H303.25V12.5ZM303.25 10.75H304.05V9.95H303.25V10.75ZM301.5 10.75V9.95H300.7V10.75H301.5ZM301.5 14.25V15.05H302.3V14.25H301.5ZM301.5 9H300.7V9.8H301.5V9ZM305 9V9.8H305.8V9H305ZM305 7.25V6.45H304.2V7.25H305ZM306.75 7.25V8.05H307.55V7.25H306.75ZM306.75 3.75H307.55V2.95H306.75V3.75ZM301.5 3.75V2.95H300.7V3.75H301.5ZM298.8 14.25V2H297.2V14.25H298.8ZM298 2.8H308.5V1.2H298V2.8ZM307.7 2V3.75H309.3V2H307.7ZM308.5 4.55H310.25V2.95H308.5V4.55ZM309.45 3.75V9H311.05V3.75H309.45ZM310.25 8.2H306.75V9.8H310.25V8.2ZM305.95 9V10.75H307.55V9H305.95ZM306.75 11.55H308.5V9.95H306.75V11.55ZM307.7 10.75V12.5H309.3V10.75H307.7ZM308.5 13.3H310.25V11.7H308.5V13.3ZM309.45 12.5V14.25H311.05V12.5H309.45ZM310.25 13.45H305V15.05H310.25V13.45ZM305.8 14.25V12.5H304.2V14.25H305.8ZM305 11.7H303.25V13.3H305V11.7ZM304.05 12.5V10.75H302.45V12.5H304.05ZM303.25 9.95H301.5V11.55H303.25V9.95ZM300.7 10.75V14.25H302.3V10.75H300.7ZM301.5 13.45H298V15.05H301.5V13.45ZM301.5 9.8H305V8.2H301.5V9.8ZM305.8 9V7.25H304.2V9H305.8ZM305 8.05H306.75V6.45H305V8.05ZM307.55 7.25V3.75H305.95V7.25H307.55ZM306.75 2.95H301.5V4.55H306.75V2.95ZM300.7 3.75V9H302.3V3.75H300.7ZM313.75 14.25H312.95V15.05H313.75V14.25ZM313.75 12.5H314.55V11.7H313.75V12.5ZM312 12.5H311.2V13.3H312V12.5ZM312 3.75V2.95H311.2V3.75H312ZM313.75 3.75V4.55H314.55V3.75H313.75ZM313.75 2V1.2H312.95V2H313.75ZM322.5 2H323.3V1.2H322.5V2ZM322.5 3.75H321.7V4.55H322.5V3.75ZM324.25 3.75H325.05V2.95H324.25V3.75ZM324.25 12.5V13.3H325.05V12.5H324.25ZM322.5 12.5V11.7H321.7V12.5H322.5ZM322.5 14.25V15.05H323.3V14.25H322.5ZM315.5 12.5H314.7V13.3H315.5V12.5ZM320.75 12.5V13.3H321.55V12.5H320.75ZM320.75 3.75H321.55V2.95H320.75V3.75ZM315.5 3.75V2.95H314.7V3.75H315.5ZM314.55 14.25V12.5H312.95V14.25H314.55ZM313.75 11.7H312V13.3H313.75V11.7ZM312.8 12.5V3.75H311.2V12.5H312.8ZM312 4.55H313.75V2.95H312V4.55ZM314.55 3.75V2H312.95V3.75H314.55ZM313.75 2.8H322.5V1.2H313.75V2.8ZM321.7 2V3.75H323.3V2H321.7ZM322.5 4.55H324.25V2.95H322.5V4.55ZM323.45 3.75V12.5H325.05V3.75H323.45ZM324.25 11.7H322.5V13.3H324.25V11.7ZM321.7 12.5V14.25H323.3V12.5H321.7ZM322.5 13.45H313.75V15.05H322.5V13.45ZM315.5 13.3H320.75V11.7H315.5V13.3ZM321.55 12.5V3.75H319.95V12.5H321.55ZM320.75 2.95H315.5V4.55H320.75V2.95ZM314.7 3.75V12.5H316.3V3.75H314.7ZM327.75 14.25H326.95V15.05H327.75V14.25ZM327.75 12.5H328.55V11.7H327.75V12.5ZM326 12.5H325.2V13.3H326V12.5ZM326 2V1.2H325.2V2H326ZM329.5 2H330.3V1.2H329.5V2ZM329.5 12.5H328.7V13.3H329.5V12.5ZM334.75 12.5V13.3H335.55V12.5H334.75ZM334.75 2V1.2H333.95V2H334.75ZM338.25 2H339.05V1.2H338.25V2ZM338.25 12.5V13.3H339.05V12.5H338.25ZM336.5 12.5V11.7H335.7V12.5H336.5ZM336.5 14.25V15.05H337.3V14.25H336.5ZM328.55 14.25V12.5H326.95V14.25H328.55ZM327.75 11.7H326V13.3H327.75V11.7ZM326.8 12.5V2H325.2V12.5H326.8ZM326 2.8H329.5V1.2H326V2.8ZM328.7 2V12.5H330.3V2H328.7ZM329.5 13.3H334.75V11.7H329.5V13.3ZM335.55 12.5V2H333.95V12.5H335.55ZM334.75 2.8H338.25V1.2H334.75V2.8ZM337.45 2V12.5H339.05V2H337.45ZM338.25 11.7H336.5V13.3H338.25V11.7ZM335.7 12.5V14.25H337.3V12.5H335.7ZM336.5 13.45H327.75V15.05H336.5V13.45ZM343.5 14.25H342.7V15.05H343.5V14.25ZM343.5 12.5H344.3V11.7H343.5V12.5ZM341.75 12.5H340.95V13.3H341.75V12.5ZM341.75 10.75H342.55V9.95H341.75V10.75ZM340 10.75H339.2V11.55H340V10.75ZM340 5.5V4.7H339.2V5.5H340ZM341.75 5.5V6.3H342.55V5.5H341.75ZM341.75 3.75V2.95H340.95V3.75H341.75ZM343.5 3.75V4.55H344.3V3.75H343.5ZM343.5 2V1.2H342.7V2H343.5ZM352.25 2H353.05V1.2H352.25V2ZM352.25 3.75V4.55H353.05V3.75H352.25ZM345.25 3.75V2.95H344.45V3.75H345.25ZM345.25 5.5V6.3H346.05V5.5H345.25ZM343.5 5.5V4.7H342.7V5.5H343.5ZM343.5 10.75H342.7V11.55H343.5V10.75ZM345.25 10.75H346.05V9.95H345.25V10.75ZM345.25 12.5H344.45V13.3H345.25V12.5ZM348.75 12.5V13.3H349.55V12.5H348.75ZM348.75 9H349.55V8.2H348.75V9ZM347 9H346.2V9.8H347V9ZM347 7.25V6.45H346.2V7.25H347ZM352.25 7.25H353.05V6.45H352.25V7.25ZM352.25 14.25V15.05H353.05V14.25H352.25ZM344.3 14.25V12.5H342.7V14.25H344.3ZM343.5 11.7H341.75V13.3H343.5V11.7ZM342.55 12.5V10.75H340.95V12.5H342.55ZM341.75 9.95H340V11.55H341.75V9.95ZM340.8 10.75V5.5H339.2V10.75H340.8ZM340 6.3H341.75V4.7H340V6.3ZM342.55 5.5V3.75H340.95V5.5H342.55ZM341.75 4.55H343.5V2.95H341.75V4.55ZM344.3 3.75V2H342.7V3.75H344.3ZM343.5 2.8H352.25V1.2H343.5V2.8ZM351.45 2V3.75H353.05V2H351.45ZM352.25 2.95H345.25V4.55H352.25V2.95ZM344.45 3.75V5.5H346.05V3.75H344.45ZM345.25 4.7H343.5V6.3H345.25V4.7ZM342.7 5.5V10.75H344.3V5.5H342.7ZM343.5 11.55H345.25V9.95H343.5V11.55ZM344.45 10.75V12.5H346.05V10.75H344.45ZM345.25 13.3H348.75V11.7H345.25V13.3ZM349.55 12.5V9H347.95V12.5H349.55ZM348.75 8.2H347V9.8H348.75V8.2ZM347.8 9V7.25H346.2V9H347.8ZM347 8.05H352.25V6.45H347V8.05ZM351.45 7.25V14.25H353.05V7.25H351.45ZM352.25 13.45H343.5V15.05H352.25V13.45ZM354 14.25H353.2V15.05H354V14.25ZM354 2V1.2H353.2V2H354ZM357.5 2H358.3V1.2H357.5V2ZM357.5 7.25H356.7V8.05H357.5V7.25ZM362.75 7.25V8.05H363.55V7.25H362.75ZM362.75 2V1.2H361.95V2H362.75ZM366.25 2H367.05V1.2H366.25V2ZM366.25 14.25V15.05H367.05V14.25H366.25ZM362.75 14.25H361.95V15.05H362.75V14.25ZM362.75 9H363.55V8.2H362.75V9ZM357.5 9V8.2H356.7V9H357.5ZM357.5 14.25V15.05H358.3V14.25H357.5ZM354.8 14.25V2H353.2V14.25H354.8ZM354 2.8H357.5V1.2H354V2.8ZM356.7 2V7.25H358.3V2H356.7ZM357.5 8.05H362.75V6.45H357.5V8.05ZM363.55 7.25V2H361.95V7.25H363.55ZM362.75 2.8H366.25V1.2H362.75V2.8ZM365.45 2V14.25H367.05V2H365.45ZM366.25 13.45H362.75V15.05H366.25V13.45ZM363.55 14.25V9H361.95V14.25H363.55ZM362.75 8.2H357.5V9.8H362.75V8.2ZM356.7 9V14.25H358.3V9H356.7ZM357.5 13.45H354V15.05H357.5V13.45ZM383.75 14.25H382.95V15.05H383.75V14.25ZM383.75 12.5V11.7H382.95V12.5H383.75ZM387.25 12.5V13.3H388.05V12.5H387.25ZM387.25 3.75H388.05V2.95H387.25V3.75ZM383.75 3.75H382.95V4.55H383.75V3.75ZM383.75 2V1.2H382.95V2H383.75ZM394.25 2H395.05V1.2H394.25V2ZM394.25 3.75V4.55H395.05V3.75H394.25ZM390.75 3.75V2.95H389.95V3.75H390.75ZM390.75 12.5H389.95V13.3H390.75V12.5ZM394.25 12.5H395.05V11.7H394.25V12.5ZM394.25 14.25V15.05H395.05V14.25H394.25ZM384.55 14.25V12.5H382.95V14.25H384.55ZM383.75 13.3H387.25V11.7H383.75V13.3ZM388.05 12.5V3.75H386.45V12.5H388.05ZM387.25 2.95H383.75V4.55H387.25V2.95ZM384.55 3.75V2H382.95V3.75H384.55ZM383.75 2.8H394.25V1.2H383.75V2.8ZM393.45 2V3.75H395.05V2H393.45ZM394.25 2.95H390.75V4.55H394.25V2.95ZM389.95 3.75V12.5H391.55V3.75H389.95ZM390.75 13.3H394.25V11.7H390.75V13.3ZM393.45 12.5V14.25H395.05V12.5H393.45ZM394.25 13.45H383.75V15.05H394.25V13.45ZM396 14.25H395.2V15.05H396V14.25ZM396 2V1.2H395.2V2H396ZM399.5 2H400.3V1.2H399.5V2ZM399.5 3.75H398.7V4.55H399.5V3.75ZM401.25 3.75H402.05V2.95H401.25V3.75ZM401.25 5.5H400.45V6.3H401.25V5.5ZM403 5.5H403.8V4.7H403V5.5ZM403 7.25H402.2V8.05H403V7.25ZM404.75 7.25V8.05H405.55V7.25H404.75ZM404.75 2V1.2H403.95V2H404.75ZM408.25 2H409.05V1.2H408.25V2ZM408.25 14.25V15.05H409.05V14.25H408.25ZM404.75 14.25H403.95V15.05H404.75V14.25ZM404.75 10.75H405.55V9.95H404.75V10.75ZM403 10.75H402.2V11.55H403V10.75ZM403 9H403.8V8.2H403V9ZM401.25 9H400.45V9.8H401.25V9ZM401.25 7.25H402.05V6.45H401.25V7.25ZM399.5 7.25V6.45H398.7V7.25H399.5ZM399.5 14.25V15.05H400.3V14.25H399.5ZM396.8 14.25V2H395.2V14.25H396.8ZM396 2.8H399.5V1.2H396V2.8ZM398.7 2V3.75H400.3V2H398.7ZM399.5 4.55H401.25V2.95H399.5V4.55ZM400.45 3.75V5.5H402.05V3.75H400.45ZM401.25 6.3H403V4.7H401.25V6.3ZM402.2 5.5V7.25H403.8V5.5H402.2ZM403 8.05H404.75V6.45H403V8.05ZM405.55 7.25V2H403.95V7.25H405.55ZM404.75 2.8H408.25V1.2H404.75V2.8ZM407.45 2V14.25H409.05V2H407.45ZM408.25 13.45H404.75V15.05H408.25V13.45ZM405.55 14.25V10.75H403.95V14.25H405.55ZM404.75 9.95H403V11.55H404.75V9.95ZM403.8 10.75V9H402.2V10.75H403.8ZM403 8.2H401.25V9.8H403V8.2ZM402.05 9V7.25H400.45V9H402.05ZM401.25 6.45H399.5V8.05H401.25V6.45ZM398.7 7.25V14.25H400.3V7.25H398.7ZM399.5 13.45H396V15.05H399.5V13.45ZM410 14.25H409.2V15.05H410V14.25ZM410 2V1.2H409.2V2H410ZM422.25 2H423.05V1.2H422.25V2ZM422.25 3.75V4.55H423.05V3.75H422.25ZM413.5 3.75V2.95H412.7V3.75H413.5ZM413.5 7.25H412.7V8.05H413.5V7.25ZM420.5 7.25H421.3V6.45H420.5V7.25ZM420.5 9V9.8H421.3V9H420.5ZM413.5 9V8.2H412.7V9H413.5ZM413.5 14.25V15.05H414.3V14.25H413.5ZM410.8 14.25V2H409.2V14.25H410.8ZM410 2.8H422.25V1.2H410V2.8ZM421.45 2V3.75H423.05V2H421.45ZM422.25 2.95H413.5V4.55H422.25V2.95ZM412.7 3.75V7.25H414.3V3.75H412.7ZM413.5 8.05H420.5V6.45H413.5V8.05ZM419.7 7.25V9H421.3V7.25H419.7ZM420.5 8.2H413.5V9.8H420.5V8.2ZM412.7 9V14.25H414.3V9H412.7ZM413.5 13.45H410V15.05H413.5V13.45ZM425.75 14.25H424.95V15.05H425.75V14.25ZM425.75 12.5H426.55V11.7H425.75V12.5ZM424 12.5H423.2V13.3H424V12.5ZM424 3.75V2.95H423.2V3.75H424ZM425.75 3.75V4.55H426.55V3.75H425.75ZM425.75 2V1.2H424.95V2H425.75ZM434.5 2H435.3V1.2H434.5V2ZM434.5 3.75H433.7V4.55H434.5V3.75ZM436.25 3.75H437.05V2.95H436.25V3.75ZM436.25 12.5V13.3H437.05V12.5H436.25ZM434.5 12.5V11.7H433.7V12.5H434.5ZM434.5 14.25V15.05H435.3V14.25H434.5ZM427.5 12.5H426.7V13.3H427.5V12.5ZM432.75 12.5V13.3H433.55V12.5H432.75ZM432.75 3.75H433.55V2.95H432.75V3.75ZM427.5 3.75V2.95H426.7V3.75H427.5ZM426.55 14.25V12.5H424.95V14.25H426.55ZM425.75 11.7H424V13.3H425.75V11.7ZM424.8 12.5V3.75H423.2V12.5H424.8ZM424 4.55H425.75V2.95H424V4.55ZM426.55 3.75V2H424.95V3.75H426.55ZM425.75 2.8H434.5V1.2H425.75V2.8ZM433.7 2V3.75H435.3V2H433.7ZM434.5 4.55H436.25V2.95H434.5V4.55ZM435.45 3.75V12.5H437.05V3.75H435.45ZM436.25 11.7H434.5V13.3H436.25V11.7ZM433.7 12.5V14.25H435.3V12.5H433.7ZM434.5 13.45H425.75V15.05H434.5V13.45ZM427.5 13.3H432.75V11.7H427.5V13.3ZM433.55 12.5V3.75H431.95V12.5H433.55ZM432.75 2.95H427.5V4.55H432.75V2.95ZM426.7 3.75V12.5H428.3V3.75H426.7ZM438 14.25H437.2V15.05H438V14.25ZM438 2V1.2H437.2V2H438ZM448.5 2H449.3V1.2H448.5V2ZM448.5 3.75H447.7V4.55H448.5V3.75ZM450.25 3.75H451.05V2.95H450.25V3.75ZM450.25 9V9.8H451.05V9H450.25ZM446.75 9V8.2H445.95V9H446.75ZM446.75 10.75H445.95V11.55H446.75V10.75ZM448.5 10.75H449.3V9.95H448.5V10.75ZM448.5 12.5H447.7V13.3H448.5V12.5ZM450.25 12.5H451.05V11.7H450.25V12.5ZM450.25 14.25V15.05H451.05V14.25H450.25ZM445 14.25H444.2V15.05H445V14.25ZM445 12.5H445.8V11.7H445V12.5ZM443.25 12.5H442.45V13.3H443.25V12.5ZM443.25 10.75H444.05V9.95H443.25V10.75ZM441.5 10.75V9.95H440.7V10.75H441.5ZM441.5 14.25V15.05H442.3V14.25H441.5ZM441.5 9H440.7V9.8H441.5V9ZM445 9V9.8H445.8V9H445ZM445 7.25V6.45H444.2V7.25H445ZM446.75 7.25V8.05H447.55V7.25H446.75ZM446.75 3.75H447.55V2.95H446.75V3.75ZM441.5 3.75V2.95H440.7V3.75H441.5ZM438.8 14.25V2H437.2V14.25H438.8ZM438 2.8H448.5V1.2H438V2.8ZM447.7 2V3.75H449.3V2H447.7ZM448.5 4.55H450.25V2.95H448.5V4.55ZM449.45 3.75V9H451.05V3.75H449.45ZM450.25 8.2H446.75V9.8H450.25V8.2ZM445.95 9V10.75H447.55V9H445.95ZM446.75 11.55H448.5V9.95H446.75V11.55ZM447.7 10.75V12.5H449.3V10.75H447.7ZM448.5 13.3H450.25V11.7H448.5V13.3ZM449.45 12.5V14.25H451.05V12.5H449.45ZM450.25 13.45H445V15.05H450.25V13.45ZM445.8 14.25V12.5H444.2V14.25H445.8ZM445 11.7H443.25V13.3H445V11.7ZM444.05 12.5V10.75H442.45V12.5H444.05ZM443.25 9.95H441.5V11.55H443.25V9.95ZM440.7 10.75V14.25H442.3V10.75H440.7ZM441.5 13.45H438V15.05H441.5V13.45ZM441.5 9.8H445V8.2H441.5V9.8ZM445.8 9V7.25H444.2V9H445.8ZM445 8.05H446.75V6.45H445V8.05ZM447.55 7.25V3.75H445.95V7.25H447.55ZM446.75 2.95H441.5V4.55H446.75V2.95ZM440.7 3.75V9H442.3V3.75H440.7ZM452 14.25H451.2V15.05H452V14.25ZM452 2V1.2H451.2V2H452ZM455.5 2H456.3V1.2H455.5V2ZM455.5 3.75H454.7V4.55H455.5V3.75ZM457.25 3.75H458.05V2.95H457.25V3.75ZM457.25 5.5H456.45V6.3H457.25V5.5ZM459 5.5V6.3H459.8V5.5H459ZM459 3.75V2.95H458.2V3.75H459ZM460.75 3.75V4.55H461.55V3.75H460.75ZM460.75 2V1.2H459.95V2H460.75ZM464.25 2H465.05V1.2H464.25V2ZM464.25 14.25V15.05H465.05V14.25H464.25ZM460.75 14.25H459.95V15.05H460.75V14.25ZM460.75 7.25H461.55V6.45H460.75V7.25ZM459 7.25V6.45H458.2V7.25H459ZM459 10.75V11.55H459.8V10.75H459ZM457.25 10.75H456.45V11.55H457.25V10.75ZM457.25 7.25H458.05V6.45H457.25V7.25ZM455.5 7.25V6.45H454.7V7.25H455.5ZM455.5 14.25V15.05H456.3V14.25H455.5ZM452.8 14.25V2H451.2V14.25H452.8ZM452 2.8H455.5V1.2H452V2.8ZM454.7 2V3.75H456.3V2H454.7ZM455.5 4.55H457.25V2.95H455.5V4.55ZM456.45 3.75V5.5H458.05V3.75H456.45ZM457.25 6.3H459V4.7H457.25V6.3ZM459.8 5.5V3.75H458.2V5.5H459.8ZM459 4.55H460.75V2.95H459V4.55ZM461.55 3.75V2H459.95V3.75H461.55ZM460.75 2.8H464.25V1.2H460.75V2.8ZM463.45 2V14.25H465.05V2H463.45ZM464.25 13.45H460.75V15.05H464.25V13.45ZM461.55 14.25V7.25H459.95V14.25H461.55ZM460.75 6.45H459V8.05H460.75V6.45ZM458.2 7.25V10.75H459.8V7.25H458.2ZM459 9.95H457.25V11.55H459V9.95ZM458.05 10.75V7.25H456.45V10.75H458.05ZM457.25 6.45H455.5V8.05H457.25V6.45ZM454.7 7.25V14.25H456.3V7.25H454.7ZM455.5 13.45H452V15.05H455.5V13.45ZM466 14.25H465.2V15.05H466V14.25ZM466 5.5V4.7H465.2V5.5H466ZM467.75 5.5V6.3H468.55V5.5H467.75ZM467.75 3.75V2.95H466.95V3.75H467.75ZM469.5 3.75V4.55H470.3V3.75H469.5ZM469.5 2V1.2H468.7V2H469.5ZM474.75 2H475.55V1.2H474.75V2ZM474.75 3.75H473.95V4.55H474.75V3.75ZM476.5 3.75H477.3V2.95H476.5V3.75ZM476.5 5.5H475.7V6.3H476.5V5.5ZM478.25 5.5H479.05V4.7H478.25V5.5ZM478.25 14.25V15.05H479.05V14.25H478.25ZM474.75 14.25H473.95V15.05H474.75V14.25ZM474.75 10.75H475.55V9.95H474.75V10.75ZM469.5 10.75V9.95H468.7V10.75H469.5ZM469.5 14.25V15.05H470.3V14.25H469.5ZM469.5 9H468.7V9.8H469.5V9ZM474.75 9V9.8H475.55V9H474.75ZM474.75 5.5H475.55V4.7H474.75V5.5ZM473 5.5H472.2V6.3H473V5.5ZM473 3.75H473.8V2.95H473V3.75ZM471.25 3.75V2.95H470.45V3.75H471.25ZM471.25 5.5V6.3H472.05V5.5H471.25ZM469.5 5.5V4.7H468.7V5.5H469.5ZM466.8 14.25V5.5H465.2V14.25H466.8ZM466 6.3H467.75V4.7H466V6.3ZM468.55 5.5V3.75H466.95V5.5H468.55ZM467.75 4.55H469.5V2.95H467.75V4.55ZM470.3 3.75V2H468.7V3.75H470.3ZM469.5 2.8H474.75V1.2H469.5V2.8ZM473.95 2V3.75H475.55V2H473.95ZM474.75 4.55H476.5V2.95H474.75V4.55ZM475.7 3.75V5.5H477.3V3.75H475.7ZM476.5 6.3H478.25V4.7H476.5V6.3ZM477.45 5.5V14.25H479.05V5.5H477.45ZM478.25 13.45H474.75V15.05H478.25V13.45ZM475.55 14.25V10.75H473.95V14.25H475.55ZM474.75 9.95H469.5V11.55H474.75V9.95ZM468.7 10.75V14.25H470.3V10.75H468.7ZM469.5 13.45H466V15.05H469.5V13.45ZM469.5 9.8H474.75V8.2H469.5V9.8ZM475.55 9V5.5H473.95V9H475.55ZM474.75 4.7H473V6.3H474.75V4.7ZM473.8 5.5V3.75H472.2V5.5H473.8ZM473 2.95H471.25V4.55H473V2.95ZM470.45 3.75V5.5H472.05V3.75H470.45ZM471.25 4.7H469.5V6.3H471.25V4.7ZM468.7 5.5V9H470.3V5.5H468.7ZM485.25 14.25H484.45V15.05H485.25V14.25ZM485.25 3.75H486.05V2.95H485.25V3.75ZM481.75 3.75H480.95V4.55H481.75V3.75ZM481.75 2V1.2H480.95V2H481.75ZM492.25 2H493.05V1.2H492.25V2ZM492.25 3.75V4.55H493.05V3.75H492.25ZM488.75 3.75V2.95H487.95V3.75H488.75ZM488.75 14.25V15.05H489.55V14.25H488.75ZM486.05 14.25V3.75H484.45V14.25H486.05ZM485.25 2.95H481.75V4.55H485.25V2.95ZM482.55 3.75V2H480.95V3.75H482.55ZM481.75 2.8H492.25V1.2H481.75V2.8ZM491.45 2V3.75H493.05V2H491.45ZM492.25 2.95H488.75V4.55H492.25V2.95ZM487.95 3.75V14.25H489.55V3.75H487.95ZM488.75 13.45H485.25V15.05H488.75V13.45ZM495.75 14.25H494.95V15.05H495.75V14.25ZM495.75 12.5V11.7H494.95V12.5H495.75ZM499.25 12.5V13.3H500.05V12.5H499.25ZM499.25 3.75H500.05V2.95H499.25V3.75ZM495.75 3.75H494.95V4.55H495.75V3.75ZM495.75 2V1.2H494.95V2H495.75ZM506.25 2H507.05V1.2H506.25V2ZM506.25 3.75V4.55H507.05V3.75H506.25ZM502.75 3.75V2.95H501.95V3.75H502.75ZM502.75 12.5H501.95V13.3H502.75V12.5ZM506.25 12.5H507.05V11.7H506.25V12.5ZM506.25 14.25V15.05H507.05V14.25H506.25ZM496.55 14.25V12.5H494.95V14.25H496.55ZM495.75 13.3H499.25V11.7H495.75V13.3ZM500.05 12.5V3.75H498.45V12.5H500.05ZM499.25 2.95H495.75V4.55H499.25V2.95ZM496.55 3.75V2H494.95V3.75H496.55ZM495.75 2.8H506.25V1.2H495.75V2.8ZM505.45 2V3.75H507.05V2H505.45ZM506.25 2.95H502.75V4.55H506.25V2.95ZM501.95 3.75V12.5H503.55V3.75H501.95ZM502.75 13.3H506.25V11.7H502.75V13.3ZM505.45 12.5V14.25H507.05V12.5H505.45ZM506.25 13.45H495.75V15.05H506.25V13.45ZM509.75 14.25H508.95V15.05H509.75V14.25ZM509.75 12.5H510.55V11.7H509.75V12.5ZM508 12.5H507.2V13.3H508V12.5ZM508 3.75V2.95H507.2V3.75H508ZM509.75 3.75V4.55H510.55V3.75H509.75ZM509.75 2V1.2H508.95V2H509.75ZM518.5 2H519.3V1.2H518.5V2ZM518.5 3.75H517.7V4.55H518.5V3.75ZM520.25 3.75H521.05V2.95H520.25V3.75ZM520.25 12.5V13.3H521.05V12.5H520.25ZM518.5 12.5V11.7H517.7V12.5H518.5ZM518.5 14.25V15.05H519.3V14.25H518.5ZM511.5 12.5H510.7V13.3H511.5V12.5ZM516.75 12.5V13.3H517.55V12.5H516.75ZM516.75 3.75H517.55V2.95H516.75V3.75ZM511.5 3.75V2.95H510.7V3.75H511.5ZM510.55 14.25V12.5H508.95V14.25H510.55ZM509.75 11.7H508V13.3H509.75V11.7ZM508.8 12.5V3.75H507.2V12.5H508.8ZM508 4.55H509.75V2.95H508V4.55ZM510.55 3.75V2H508.95V3.75H510.55ZM509.75 2.8H518.5V1.2H509.75V2.8ZM517.7 2V3.75H519.3V2H517.7ZM518.5 4.55H520.25V2.95H518.5V4.55ZM519.45 3.75V12.5H521.05V3.75H519.45ZM520.25 11.7H518.5V13.3H520.25V11.7ZM517.7 12.5V14.25H519.3V12.5H517.7ZM518.5 13.45H509.75V15.05H518.5V13.45ZM511.5 13.3H516.75V11.7H511.5V13.3ZM517.55 12.5V3.75H515.95V12.5H517.55ZM516.75 2.95H511.5V4.55H516.75V2.95ZM510.7 3.75V12.5H512.3V3.75H510.7ZM522 14.25H521.2V15.05H522V14.25ZM522 2V1.2H521.2V2H522ZM525.5 2H526.3V1.2H525.5V2ZM525.5 3.75H524.7V4.55H525.5V3.75ZM527.25 3.75H528.05V2.95H527.25V3.75ZM527.25 5.5H526.45V6.3H527.25V5.5ZM529 5.5H529.8V4.7H529V5.5ZM529 7.25H528.2V8.05H529V7.25ZM530.75 7.25V8.05H531.55V7.25H530.75ZM530.75 2V1.2H529.95V2H530.75ZM534.25 2H535.05V1.2H534.25V2ZM534.25 14.25V15.05H535.05V14.25H534.25ZM530.75 14.25H529.95V15.05H530.75V14.25ZM530.75 10.75H531.55V9.95H530.75V10.75ZM529 10.75H528.2V11.55H529V10.75ZM529 9H529.8V8.2H529V9ZM527.25 9H526.45V9.8H527.25V9ZM527.25 7.25H528.05V6.45H527.25V7.25ZM525.5 7.25V6.45H524.7V7.25H525.5ZM525.5 14.25V15.05H526.3V14.25H525.5ZM522.8 14.25V2H521.2V14.25H522.8ZM522 2.8H525.5V1.2H522V2.8ZM524.7 2V3.75H526.3V2H524.7ZM525.5 4.55H527.25V2.95H525.5V4.55ZM526.45 3.75V5.5H528.05V3.75H526.45ZM527.25 6.3H529V4.7H527.25V6.3ZM528.2 5.5V7.25H529.8V5.5H528.2ZM529 8.05H530.75V6.45H529V8.05ZM531.55 7.25V2H529.95V7.25H531.55ZM530.75 2.8H534.25V1.2H530.75V2.8ZM533.45 2V14.25H535.05V2H533.45ZM534.25 13.45H530.75V15.05H534.25V13.45ZM531.55 14.25V10.75H529.95V14.25H531.55ZM530.75 9.95H529V11.55H530.75V9.95ZM529.8 10.75V9H528.2V10.75H529.8ZM529 8.2H527.25V9.8H529V8.2ZM528.05 9V7.25H526.45V9H528.05ZM527.25 6.45H525.5V8.05H527.25V6.45ZM524.7 7.25V14.25H526.3V7.25H524.7ZM525.5 13.45H522V15.05H525.5V13.45ZM551.75 9H550.95V9.8H551.75V9ZM551.75 7.25V6.45H550.95V7.25H551.75ZM562.25 7.25H563.05V6.45H562.25V7.25ZM562.25 9V9.8H563.05V9H562.25ZM552.55 9V7.25H550.95V9H552.55ZM551.75 8.05H562.25V6.45H551.75V8.05ZM561.45 7.25V9H563.05V7.25H561.45ZM562.25 8.2H551.75V9.8H562.25V8.2Z" fill="#3B226B" mask="url(#path-4-outside-2_182_5494)"/>
</svg>
