<svg width="494" height="17" viewBox="0 0 494 17" fill="none" xmlns="http://www.w3.org/2000/svg">
<path d="M1.75 9V7.25H12.25V9H1.75ZM29.75 14.25V12.5H28V3.75H29.75V2H38.5V3.75H40.25V12.5H38.5V14.25H29.75ZM31.5 12.5H36.75V3.75H31.5V12.5ZM43.75 14.25V12.5H42V2H45.5V12.5H50.75V2H54.25V12.5H52.5V14.25H43.75ZM56 14.25V2H66.5V3.75H68.25V9H64.75V10.75H66.5V12.5H68.25V14.25H63V12.5H61.25V10.75H59.5V14.25H56ZM59.5 9H63V7.25H64.75V3.75H59.5V9ZM84 14.25V2H92.75V3.75H94.5V5.5H96.25V10.75H94.5V12.5H92.75V14.25H84ZM87.5 12.5H91V10.75H92.75V5.5H91V3.75H87.5V12.5ZM98 14.25V5.5H99.75V3.75H101.5V2H106.75V3.75H108.5V5.5H110.25V14.25H106.75V10.75H101.5V14.25H98ZM101.5 9H106.75V5.5H105V3.75H103.25V5.5H101.5V9ZM117.25 14.25V3.75H113.75V2H124.25V3.75H120.75V14.25H117.25ZM126 14.25V5.5H127.75V3.75H129.5V2H134.75V3.75H136.5V5.5H138.25V14.25H134.75V10.75H129.5V14.25H126ZM129.5 9H134.75V5.5H133V3.75H131.25V5.5H129.5V9ZM141.75 16V14.25H143.5V10.75H147V14.25H145.25V16H141.75ZM169.75 14.25V12.5H168V3.75H169.75V2H178.5V3.75H180.25V12.5H178.5V14.25H169.75ZM171.5 12.5H176.75V3.75H171.5V12.5ZM183.75 14.25V12.5H182V2H185.5V12.5H190.75V2H194.25V12.5H192.5V14.25H183.75ZM196 14.25V2H206.5V3.75H208.25V9H204.75V10.75H206.5V12.5H208.25V14.25H203V12.5H201.25V10.75H199.5V14.25H196ZM199.5 9H203V7.25H204.75V3.75H199.5V9ZM224 14.25V2H234.5V3.75H236.25V9H234.5V10.75H227.5V14.25H224ZM227.5 9H232.75V3.75H227.5V9ZM239.75 14.25V12.5H238V3.75H239.75V2H248.5V3.75H250.25V12.5H248.5V14.25H239.75ZM241.5 12.5H246.75V3.75H241.5V12.5ZM253.75 14.25V12.5H252V2H255.5V9H257.25V2H259V9H260.75V2H264.25V12.5H262.5V14.25H260.75V12.5H259V10.75H257.25V12.5H255.5V14.25H253.75ZM266 14.25V2H278.25V3.75H269.5V7.25H276.5V9H269.5V12.5H278.25V14.25H266ZM280 14.25V2H290.5V3.75H292.25V9H288.75V10.75H290.5V12.5H292.25V14.25H287V12.5H285.25V10.75H283.5V14.25H280ZM283.5 9H287V7.25H288.75V3.75H283.5V9ZM295.75 16V14.25H297.5V10.75H301V14.25H299.25V16H295.75ZM323.75 14.25V12.5H322V3.75H323.75V2H332.5V3.75H334.25V12.5H332.5V14.25H323.75ZM325.5 12.5H330.75V3.75H325.5V12.5ZM337.75 14.25V12.5H336V2H339.5V12.5H344.75V2H348.25V12.5H346.5V14.25H337.75ZM350 14.25V2H360.5V3.75H362.25V9H358.75V10.75H360.5V12.5H362.25V14.25H357V12.5H355.25V10.75H353.5V14.25H350ZM353.5 9H357V7.25H358.75V3.75H353.5V9ZM378 14.25V2H390.25V3.75H381.5V7.25H388.5V9H381.5V14.25H378ZM393.75 14.25V12.5H392V2H395.5V12.5H400.75V2H404.25V12.5H402.5V14.25H393.75ZM411.25 14.25V3.75H407.75V2H418.25V3.75H414.75V14.25H411.25ZM421.75 14.25V12.5H420V2H423.5V12.5H428.75V2H432.25V12.5H430.5V14.25H421.75ZM434 14.25V2H444.5V3.75H446.25V9H442.75V10.75H444.5V12.5H446.25V14.25H441V12.5H439.25V10.75H437.5V14.25H434ZM437.5 9H441V7.25H442.75V3.75H437.5V9ZM448 14.25V2H460.25V3.75H451.5V7.25H458.5V9H451.5V12.5H460.25V14.25H448ZM477.75 9V7.25H488.25V9H477.75Z" fill="#5EC1E6"/>
<mask id="path-2-outside-1_182_5692" maskUnits="userSpaceOnUse" x="2" y="1" width="490" height="16" fill="black">
<rect fill="white" x="2" y="1" width="490" height="16"/>
<path d="M3.75 9V7.25H14.25V9H3.75ZM31.75 14.25V12.5H30V3.75H31.75V2H40.5V3.75H42.25V12.5H40.5V14.25H31.75ZM33.5 12.5H38.75V3.75H33.5V12.5ZM45.75 14.25V12.5H44V2H47.5V12.5H52.75V2H56.25V12.5H54.5V14.25H45.75ZM58 14.25V2H68.5V3.75H70.25V9H66.75V10.75H68.5V12.5H70.25V14.25H65V12.5H63.25V10.75H61.5V14.25H58ZM61.5 9H65V7.25H66.75V3.75H61.5V9ZM86 14.25V2H94.75V3.75H96.5V5.5H98.25V10.75H96.5V12.5H94.75V14.25H86ZM89.5 12.5H93V10.75H94.75V5.5H93V3.75H89.5V12.5ZM100 14.25V5.5H101.75V3.75H103.5V2H108.75V3.75H110.5V5.5H112.25V14.25H108.75V10.75H103.5V14.25H100ZM103.5 9H108.75V5.5H107V3.75H105.25V5.5H103.5V9ZM119.25 14.25V3.75H115.75V2H126.25V3.75H122.75V14.25H119.25ZM128 14.25V5.5H129.75V3.75H131.5V2H136.75V3.75H138.5V5.5H140.25V14.25H136.75V10.75H131.5V14.25H128ZM131.5 9H136.75V5.5H135V3.75H133.25V5.5H131.5V9ZM143.75 16V14.25H145.5V10.75H149V14.25H147.25V16H143.75ZM171.75 14.25V12.5H170V3.75H171.75V2H180.5V3.75H182.25V12.5H180.5V14.25H171.75ZM173.5 12.5H178.75V3.75H173.5V12.5ZM185.75 14.25V12.5H184V2H187.5V12.5H192.75V2H196.25V12.5H194.5V14.25H185.75ZM198 14.25V2H208.5V3.75H210.25V9H206.75V10.75H208.5V12.5H210.25V14.25H205V12.5H203.25V10.75H201.5V14.25H198ZM201.5 9H205V7.25H206.75V3.75H201.5V9ZM226 14.25V2H236.5V3.75H238.25V9H236.5V10.75H229.5V14.25H226ZM229.5 9H234.75V3.75H229.5V9ZM241.75 14.25V12.5H240V3.75H241.75V2H250.5V3.75H252.25V12.5H250.5V14.25H241.75ZM243.5 12.5H248.75V3.75H243.5V12.5ZM255.75 14.25V12.5H254V2H257.5V9H259.25V2H261V9H262.75V2H266.25V12.5H264.5V14.25H262.75V12.5H261V10.75H259.25V12.5H257.5V14.25H255.75ZM268 14.25V2H280.25V3.75H271.5V7.25H278.5V9H271.5V12.5H280.25V14.25H268ZM282 14.25V2H292.5V3.75H294.25V9H290.75V10.75H292.5V12.5H294.25V14.25H289V12.5H287.25V10.75H285.5V14.25H282ZM285.5 9H289V7.25H290.75V3.75H285.5V9ZM297.75 16V14.25H299.5V10.75H303V14.25H301.25V16H297.75ZM325.75 14.25V12.5H324V3.75H325.75V2H334.5V3.75H336.25V12.5H334.5V14.25H325.75ZM327.5 12.5H332.75V3.75H327.5V12.5ZM339.75 14.25V12.5H338V2H341.5V12.5H346.75V2H350.25V12.5H348.5V14.25H339.75ZM352 14.25V2H362.5V3.75H364.25V9H360.75V10.75H362.5V12.5H364.25V14.25H359V12.5H357.25V10.75H355.5V14.25H352ZM355.5 9H359V7.25H360.75V3.75H355.5V9ZM380 14.25V2H392.25V3.75H383.5V7.25H390.5V9H383.5V14.25H380ZM395.75 14.25V12.5H394V2H397.5V12.5H402.75V2H406.25V12.5H404.5V14.25H395.75ZM413.25 14.25V3.75H409.75V2H420.25V3.75H416.75V14.25H413.25ZM423.75 14.25V12.5H422V2H425.5V12.5H430.75V2H434.25V12.5H432.5V14.25H423.75ZM436 14.25V2H446.5V3.75H448.25V9H444.75V10.75H446.5V12.5H448.25V14.25H443V12.5H441.25V10.75H439.5V14.25H436ZM439.5 9H443V7.25H444.75V3.75H439.5V9ZM450 14.25V2H462.25V3.75H453.5V7.25H460.5V9H453.5V12.5H462.25V14.25H450ZM479.75 9V7.25H490.25V9H479.75Z"/>
</mask>
<path d="M3.75 9V7.25H14.25V9H3.75ZM31.75 14.25V12.5H30V3.75H31.75V2H40.5V3.75H42.25V12.5H40.5V14.25H31.75ZM33.5 12.5H38.75V3.75H33.5V12.5ZM45.75 14.25V12.5H44V2H47.5V12.5H52.75V2H56.25V12.5H54.5V14.25H45.75ZM58 14.25V2H68.5V3.75H70.25V9H66.75V10.75H68.5V12.5H70.25V14.25H65V12.5H63.25V10.75H61.5V14.25H58ZM61.5 9H65V7.25H66.75V3.75H61.5V9ZM86 14.25V2H94.75V3.75H96.5V5.5H98.25V10.75H96.5V12.5H94.75V14.25H86ZM89.5 12.5H93V10.75H94.75V5.5H93V3.75H89.5V12.5ZM100 14.25V5.5H101.75V3.75H103.5V2H108.75V3.75H110.5V5.5H112.25V14.25H108.75V10.75H103.5V14.25H100ZM103.5 9H108.75V5.5H107V3.75H105.25V5.5H103.5V9ZM119.25 14.25V3.75H115.75V2H126.25V3.75H122.75V14.25H119.25ZM128 14.25V5.5H129.75V3.75H131.5V2H136.75V3.75H138.5V5.5H140.25V14.25H136.75V10.75H131.5V14.25H128ZM131.5 9H136.75V5.5H135V3.75H133.25V5.5H131.5V9ZM143.75 16V14.25H145.5V10.75H149V14.25H147.25V16H143.75ZM171.75 14.25V12.5H170V3.75H171.75V2H180.5V3.75H182.25V12.5H180.5V14.25H171.75ZM173.5 12.5H178.75V3.75H173.5V12.5ZM185.75 14.25V12.5H184V2H187.5V12.5H192.75V2H196.25V12.5H194.5V14.25H185.75ZM198 14.25V2H208.5V3.75H210.25V9H206.75V10.75H208.5V12.5H210.25V14.25H205V12.5H203.25V10.75H201.5V14.25H198ZM201.5 9H205V7.25H206.75V3.75H201.5V9ZM226 14.25V2H236.5V3.75H238.25V9H236.5V10.75H229.5V14.25H226ZM229.5 9H234.75V3.75H229.5V9ZM241.75 14.25V12.5H240V3.75H241.75V2H250.5V3.75H252.25V12.5H250.5V14.25H241.75ZM243.5 12.5H248.75V3.75H243.5V12.5ZM255.75 14.25V12.5H254V2H257.5V9H259.25V2H261V9H262.75V2H266.25V12.5H264.5V14.25H262.75V12.5H261V10.75H259.25V12.5H257.5V14.25H255.75ZM268 14.25V2H280.25V3.75H271.5V7.25H278.5V9H271.5V12.5H280.25V14.25H268ZM282 14.25V2H292.5V3.75H294.25V9H290.75V10.75H292.5V12.5H294.25V14.25H289V12.5H287.25V10.75H285.5V14.25H282ZM285.5 9H289V7.25H290.75V3.75H285.5V9ZM297.75 16V14.25H299.5V10.75H303V14.25H301.25V16H297.75ZM325.75 14.25V12.5H324V3.75H325.75V2H334.5V3.75H336.25V12.5H334.5V14.25H325.75ZM327.5 12.5H332.75V3.75H327.5V12.5ZM339.75 14.25V12.5H338V2H341.5V12.5H346.75V2H350.25V12.5H348.5V14.25H339.75ZM352 14.25V2H362.5V3.75H364.25V9H360.75V10.75H362.5V12.5H364.25V14.25H359V12.5H357.25V10.75H355.5V14.25H352ZM355.5 9H359V7.25H360.75V3.75H355.5V9ZM380 14.25V2H392.25V3.75H383.5V7.25H390.5V9H383.5V14.25H380ZM395.75 14.25V12.5H394V2H397.5V12.5H402.75V2H406.25V12.5H404.5V14.25H395.75ZM413.25 14.25V3.75H409.75V2H420.25V3.75H416.75V14.25H413.25ZM423.75 14.25V12.5H422V2H425.5V12.5H430.75V2H434.25V12.5H432.5V14.25H423.75ZM436 14.25V2H446.5V3.75H448.25V9H444.75V10.75H446.5V12.5H448.25V14.25H443V12.5H441.25V10.75H439.5V14.25H436ZM439.5 9H443V7.25H444.75V3.75H439.5V9ZM450 14.25V2H462.25V3.75H453.5V7.25H460.5V9H453.5V12.5H462.25V14.25H450ZM479.75 9V7.25H490.25V9H479.75Z" fill="#DBC9FF"/>
<path d="M3.75 9H2.95V9.8H3.75V9ZM3.75 7.25V6.45H2.95V7.25H3.75ZM14.25 7.25H15.05V6.45H14.25V7.25ZM14.25 9V9.8H15.05V9H14.25ZM4.55 9V7.25H2.95V9H4.55ZM3.75 8.05H14.25V6.45H3.75V8.05ZM13.45 7.25V9H15.05V7.25H13.45ZM14.25 8.2H3.75V9.8H14.25V8.2ZM31.75 14.25H30.95V15.05H31.75V14.25ZM31.75 12.5H32.55V11.7H31.75V12.5ZM30 12.5H29.2V13.3H30V12.5ZM30 3.75V2.95H29.2V3.75H30ZM31.75 3.75V4.55H32.55V3.75H31.75ZM31.75 2V1.2H30.95V2H31.75ZM40.5 2H41.3V1.2H40.5V2ZM40.5 3.75H39.7V4.55H40.5V3.75ZM42.25 3.75H43.05V2.95H42.25V3.75ZM42.25 12.5V13.3H43.05V12.5H42.25ZM40.5 12.5V11.7H39.7V12.5H40.5ZM40.5 14.25V15.05H41.3V14.25H40.5ZM33.5 12.5H32.7V13.3H33.5V12.5ZM38.75 12.5V13.3H39.55V12.5H38.75ZM38.75 3.75H39.55V2.95H38.75V3.75ZM33.5 3.75V2.95H32.7V3.75H33.5ZM32.55 14.25V12.5H30.95V14.25H32.55ZM31.75 11.7H30V13.3H31.75V11.7ZM30.8 12.5V3.75H29.2V12.5H30.8ZM30 4.55H31.75V2.95H30V4.55ZM32.55 3.75V2H30.95V3.75H32.55ZM31.75 2.8H40.5V1.2H31.75V2.8ZM39.7 2V3.75H41.3V2H39.7ZM40.5 4.55H42.25V2.95H40.5V4.55ZM41.45 3.75V12.5H43.05V3.75H41.45ZM42.25 11.7H40.5V13.3H42.25V11.7ZM39.7 12.5V14.25H41.3V12.5H39.7ZM40.5 13.45H31.75V15.05H40.5V13.45ZM33.5 13.3H38.75V11.7H33.5V13.3ZM39.55 12.5V3.75H37.95V12.5H39.55ZM38.75 2.95H33.5V4.55H38.75V2.95ZM32.7 3.75V12.5H34.3V3.75H32.7ZM45.75 14.25H44.95V15.05H45.75V14.25ZM45.75 12.5H46.55V11.7H45.75V12.5ZM44 12.5H43.2V13.3H44V12.5ZM44 2V1.2H43.2V2H44ZM47.5 2H48.3V1.2H47.5V2ZM47.5 12.5H46.7V13.3H47.5V12.5ZM52.75 12.5V13.3H53.55V12.5H52.75ZM52.75 2V1.2H51.95V2H52.75ZM56.25 2H57.05V1.2H56.25V2ZM56.25 12.5V13.3H57.05V12.5H56.25ZM54.5 12.5V11.7H53.7V12.5H54.5ZM54.5 14.25V15.05H55.3V14.25H54.5ZM46.55 14.25V12.5H44.95V14.25H46.55ZM45.75 11.7H44V13.3H45.75V11.7ZM44.8 12.5V2H43.2V12.5H44.8ZM44 2.8H47.5V1.2H44V2.8ZM46.7 2V12.5H48.3V2H46.7ZM47.5 13.3H52.75V11.7H47.5V13.3ZM53.55 12.5V2H51.95V12.5H53.55ZM52.75 2.8H56.25V1.2H52.75V2.8ZM55.45 2V12.5H57.05V2H55.45ZM56.25 11.7H54.5V13.3H56.25V11.7ZM53.7 12.5V14.25H55.3V12.5H53.7ZM54.5 13.45H45.75V15.05H54.5V13.45ZM58 14.25H57.2V15.05H58V14.25ZM58 2V1.2H57.2V2H58ZM68.5 2H69.3V1.2H68.5V2ZM68.5 3.75H67.7V4.55H68.5V3.75ZM70.25 3.75H71.05V2.95H70.25V3.75ZM70.25 9V9.8H71.05V9H70.25ZM66.75 9V8.2H65.95V9H66.75ZM66.75 10.75H65.95V11.55H66.75V10.75ZM68.5 10.75H69.3V9.95H68.5V10.75ZM68.5 12.5H67.7V13.3H68.5V12.5ZM70.25 12.5H71.05V11.7H70.25V12.5ZM70.25 14.25V15.05H71.05V14.25H70.25ZM65 14.25H64.2V15.05H65V14.25ZM65 12.5H65.8V11.7H65V12.5ZM63.25 12.5H62.45V13.3H63.25V12.5ZM63.25 10.75H64.05V9.95H63.25V10.75ZM61.5 10.75V9.95H60.7V10.75H61.5ZM61.5 14.25V15.05H62.3V14.25H61.5ZM61.5 9H60.7V9.8H61.5V9ZM65 9V9.8H65.8V9H65ZM65 7.25V6.45H64.2V7.25H65ZM66.75 7.25V8.05H67.55V7.25H66.75ZM66.75 3.75H67.55V2.95H66.75V3.75ZM61.5 3.75V2.95H60.7V3.75H61.5ZM58.8 14.25V2H57.2V14.25H58.8ZM58 2.8H68.5V1.2H58V2.8ZM67.7 2V3.75H69.3V2H67.7ZM68.5 4.55H70.25V2.95H68.5V4.55ZM69.45 3.75V9H71.05V3.75H69.45ZM70.25 8.2H66.75V9.8H70.25V8.2ZM65.95 9V10.75H67.55V9H65.95ZM66.75 11.55H68.5V9.95H66.75V11.55ZM67.7 10.75V12.5H69.3V10.75H67.7ZM68.5 13.3H70.25V11.7H68.5V13.3ZM69.45 12.5V14.25H71.05V12.5H69.45ZM70.25 13.45H65V15.05H70.25V13.45ZM65.8 14.25V12.5H64.2V14.25H65.8ZM65 11.7H63.25V13.3H65V11.7ZM64.05 12.5V10.75H62.45V12.5H64.05ZM63.25 9.95H61.5V11.55H63.25V9.95ZM60.7 10.75V14.25H62.3V10.75H60.7ZM61.5 13.45H58V15.05H61.5V13.45ZM61.5 9.8H65V8.2H61.5V9.8ZM65.8 9V7.25H64.2V9H65.8ZM65 8.05H66.75V6.45H65V8.05ZM67.55 7.25V3.75H65.95V7.25H67.55ZM66.75 2.95H61.5V4.55H66.75V2.95ZM60.7 3.75V9H62.3V3.75H60.7ZM86 14.25H85.2V15.05H86V14.25ZM86 2V1.2H85.2V2H86ZM94.75 2H95.55V1.2H94.75V2ZM94.75 3.75H93.95V4.55H94.75V3.75ZM96.5 3.75H97.3V2.95H96.5V3.75ZM96.5 5.5H95.7V6.3H96.5V5.5ZM98.25 5.5H99.05V4.7H98.25V5.5ZM98.25 10.75V11.55H99.05V10.75H98.25ZM96.5 10.75V9.95H95.7V10.75H96.5ZM96.5 12.5V13.3H97.3V12.5H96.5ZM94.75 12.5V11.7H93.95V12.5H94.75ZM94.75 14.25V15.05H95.55V14.25H94.75ZM89.5 12.5H88.7V13.3H89.5V12.5ZM93 12.5V13.3H93.8V12.5H93ZM93 10.75V9.95H92.2V10.75H93ZM94.75 10.75V11.55H95.55V10.75H94.75ZM94.75 5.5H95.55V4.7H94.75V5.5ZM93 5.5H92.2V6.3H93V5.5ZM93 3.75H93.8V2.95H93V3.75ZM89.5 3.75V2.95H88.7V3.75H89.5ZM86.8 14.25V2H85.2V14.25H86.8ZM86 2.8H94.75V1.2H86V2.8ZM93.95 2V3.75H95.55V2H93.95ZM94.75 4.55H96.5V2.95H94.75V4.55ZM95.7 3.75V5.5H97.3V3.75H95.7ZM96.5 6.3H98.25V4.7H96.5V6.3ZM97.45 5.5V10.75H99.05V5.5H97.45ZM98.25 9.95H96.5V11.55H98.25V9.95ZM95.7 10.75V12.5H97.3V10.75H95.7ZM96.5 11.7H94.75V13.3H96.5V11.7ZM93.95 12.5V14.25H95.55V12.5H93.95ZM94.75 13.45H86V15.05H94.75V13.45ZM89.5 13.3H93V11.7H89.5V13.3ZM93.8 12.5V10.75H92.2V12.5H93.8ZM93 11.55H94.75V9.95H93V11.55ZM95.55 10.75V5.5H93.95V10.75H95.55ZM94.75 4.7H93V6.3H94.75V4.7ZM93.8 5.5V3.75H92.2V5.5H93.8ZM93 2.95H89.5V4.55H93V2.95ZM88.7 3.75V12.5H90.3V3.75H88.7ZM100 14.25H99.2V15.05H100V14.25ZM100 5.5V4.7H99.2V5.5H100ZM101.75 5.5V6.3H102.55V5.5H101.75ZM101.75 3.75V2.95H100.95V3.75H101.75ZM103.5 3.75V4.55H104.3V3.75H103.5ZM103.5 2V1.2H102.7V2H103.5ZM108.75 2H109.55V1.2H108.75V2ZM108.75 3.75H107.95V4.55H108.75V3.75ZM110.5 3.75H111.3V2.95H110.5V3.75ZM110.5 5.5H109.7V6.3H110.5V5.5ZM112.25 5.5H113.05V4.7H112.25V5.5ZM112.25 14.25V15.05H113.05V14.25H112.25ZM108.75 14.25H107.95V15.05H108.75V14.25ZM108.75 10.75H109.55V9.95H108.75V10.75ZM103.5 10.75V9.95H102.7V10.75H103.5ZM103.5 14.25V15.05H104.3V14.25H103.5ZM103.5 9H102.7V9.8H103.5V9ZM108.75 9V9.8H109.55V9H108.75ZM108.75 5.5H109.55V4.7H108.75V5.5ZM107 5.5H106.2V6.3H107V5.5ZM107 3.75H107.8V2.95H107V3.75ZM105.25 3.75V2.95H104.45V3.75H105.25ZM105.25 5.5V6.3H106.05V5.5H105.25ZM103.5 5.5V4.7H102.7V5.5H103.5ZM100.8 14.25V5.5H99.2V14.25H100.8ZM100 6.3H101.75V4.7H100V6.3ZM102.55 5.5V3.75H100.95V5.5H102.55ZM101.75 4.55H103.5V2.95H101.75V4.55ZM104.3 3.75V2H102.7V3.75H104.3ZM103.5 2.8H108.75V1.2H103.5V2.8ZM107.95 2V3.75H109.55V2H107.95ZM108.75 4.55H110.5V2.95H108.75V4.55ZM109.7 3.75V5.5H111.3V3.75H109.7ZM110.5 6.3H112.25V4.7H110.5V6.3ZM111.45 5.5V14.25H113.05V5.5H111.45ZM112.25 13.45H108.75V15.05H112.25V13.45ZM109.55 14.25V10.75H107.95V14.25H109.55ZM108.75 9.95H103.5V11.55H108.75V9.95ZM102.7 10.75V14.25H104.3V10.75H102.7ZM103.5 13.45H100V15.05H103.5V13.45ZM103.5 9.8H108.75V8.2H103.5V9.8ZM109.55 9V5.5H107.95V9H109.55ZM108.75 4.7H107V6.3H108.75V4.7ZM107.8 5.5V3.75H106.2V5.5H107.8ZM107 2.95H105.25V4.55H107V2.95ZM104.45 3.75V5.5H106.05V3.75H104.45ZM105.25 4.7H103.5V6.3H105.25V4.7ZM102.7 5.5V9H104.3V5.5H102.7ZM119.25 14.25H118.45V15.05H119.25V14.25ZM119.25 3.75H120.05V2.95H119.25V3.75ZM115.75 3.75H114.95V4.55H115.75V3.75ZM115.75 2V1.2H114.95V2H115.75ZM126.25 2H127.05V1.2H126.25V2ZM126.25 3.75V4.55H127.05V3.75H126.25ZM122.75 3.75V2.95H121.95V3.75H122.75ZM122.75 14.25V15.05H123.55V14.25H122.75ZM120.05 14.25V3.75H118.45V14.25H120.05ZM119.25 2.95H115.75V4.55H119.25V2.95ZM116.55 3.75V2H114.95V3.75H116.55ZM115.75 2.8H126.25V1.2H115.75V2.8ZM125.45 2V3.75H127.05V2H125.45ZM126.25 2.95H122.75V4.55H126.25V2.95ZM121.95 3.75V14.25H123.55V3.75H121.95ZM122.75 13.45H119.25V15.05H122.75V13.45ZM128 14.25H127.2V15.05H128V14.25ZM128 5.5V4.7H127.2V5.5H128ZM129.75 5.5V6.3H130.55V5.5H129.75ZM129.75 3.75V2.95H128.95V3.75H129.75ZM131.5 3.75V4.55H132.3V3.75H131.5ZM131.5 2V1.2H130.7V2H131.5ZM136.75 2H137.55V1.2H136.75V2ZM136.75 3.75H135.95V4.55H136.75V3.75ZM138.5 3.75H139.3V2.95H138.5V3.75ZM138.5 5.5H137.7V6.3H138.5V5.5ZM140.25 5.5H141.05V4.7H140.25V5.5ZM140.25 14.25V15.05H141.05V14.25H140.25ZM136.75 14.25H135.95V15.05H136.75V14.25ZM136.75 10.75H137.55V9.95H136.75V10.75ZM131.5 10.75V9.95H130.7V10.75H131.5ZM131.5 14.25V15.05H132.3V14.25H131.5ZM131.5 9H130.7V9.8H131.5V9ZM136.75 9V9.8H137.55V9H136.75ZM136.75 5.5H137.55V4.7H136.75V5.5ZM135 5.5H134.2V6.3H135V5.5ZM135 3.75H135.8V2.95H135V3.75ZM133.25 3.75V2.95H132.45V3.75H133.25ZM133.25 5.5V6.3H134.05V5.5H133.25ZM131.5 5.5V4.7H130.7V5.5H131.5ZM128.8 14.25V5.5H127.2V14.25H128.8ZM128 6.3H129.75V4.7H128V6.3ZM130.55 5.5V3.75H128.95V5.5H130.55ZM129.75 4.55H131.5V2.95H129.75V4.55ZM132.3 3.75V2H130.7V3.75H132.3ZM131.5 2.8H136.75V1.2H131.5V2.8ZM135.95 2V3.75H137.55V2H135.95ZM136.75 4.55H138.5V2.95H136.75V4.55ZM137.7 3.75V5.5H139.3V3.75H137.7ZM138.5 6.3H140.25V4.7H138.5V6.3ZM139.45 5.5V14.25H141.05V5.5H139.45ZM140.25 13.45H136.75V15.05H140.25V13.45ZM137.55 14.25V10.75H135.95V14.25H137.55ZM136.75 9.95H131.5V11.55H136.75V9.95ZM130.7 10.75V14.25H132.3V10.75H130.7ZM131.5 13.45H128V15.05H131.5V13.45ZM131.5 9.8H136.75V8.2H131.5V9.8ZM137.55 9V5.5H135.95V9H137.55ZM136.75 4.7H135V6.3H136.75V4.7ZM135.8 5.5V3.75H134.2V5.5H135.8ZM135 2.95H133.25V4.55H135V2.95ZM132.45 3.75V5.5H134.05V3.75H132.45ZM133.25 4.7H131.5V6.3H133.25V4.7ZM130.7 5.5V9H132.3V5.5H130.7ZM143.75 16H142.95V16.8H143.75V16ZM143.75 14.25V13.45H142.95V14.25H143.75ZM145.5 14.25V15.05H146.3V14.25H145.5ZM145.5 10.75V9.95H144.7V10.75H145.5ZM149 10.75H149.8V9.95H149V10.75ZM149 14.25V15.05H149.8V14.25H149ZM147.25 14.25V13.45H146.45V14.25H147.25ZM147.25 16V16.8H148.05V16H147.25ZM144.55 16V14.25H142.95V16H144.55ZM143.75 15.05H145.5V13.45H143.75V15.05ZM146.3 14.25V10.75H144.7V14.25H146.3ZM145.5 11.55H149V9.95H145.5V11.55ZM148.2 10.75V14.25H149.8V10.75H148.2ZM149 13.45H147.25V15.05H149V13.45ZM146.45 14.25V16H148.05V14.25H146.45ZM147.25 15.2H143.75V16.8H147.25V15.2ZM171.75 14.25H170.95V15.05H171.75V14.25ZM171.75 12.5H172.55V11.7H171.75V12.5ZM170 12.5H169.2V13.3H170V12.5ZM170 3.75V2.95H169.2V3.75H170ZM171.75 3.75V4.55H172.55V3.75H171.75ZM171.75 2V1.2H170.95V2H171.75ZM180.5 2H181.3V1.2H180.5V2ZM180.5 3.75H179.7V4.55H180.5V3.75ZM182.25 3.75H183.05V2.95H182.25V3.75ZM182.25 12.5V13.3H183.05V12.5H182.25ZM180.5 12.5V11.7H179.7V12.5H180.5ZM180.5 14.25V15.05H181.3V14.25H180.5ZM173.5 12.5H172.7V13.3H173.5V12.5ZM178.75 12.5V13.3H179.55V12.5H178.75ZM178.75 3.75H179.55V2.95H178.75V3.75ZM173.5 3.75V2.95H172.7V3.75H173.5ZM172.55 14.25V12.5H170.95V14.25H172.55ZM171.75 11.7H170V13.3H171.75V11.7ZM170.8 12.5V3.75H169.2V12.5H170.8ZM170 4.55H171.75V2.95H170V4.55ZM172.55 3.75V2H170.95V3.75H172.55ZM171.75 2.8H180.5V1.2H171.75V2.8ZM179.7 2V3.75H181.3V2H179.7ZM180.5 4.55H182.25V2.95H180.5V4.55ZM181.45 3.75V12.5H183.05V3.75H181.45ZM182.25 11.7H180.5V13.3H182.25V11.7ZM179.7 12.5V14.25H181.3V12.5H179.7ZM180.5 13.45H171.75V15.05H180.5V13.45ZM173.5 13.3H178.75V11.7H173.5V13.3ZM179.55 12.5V3.75H177.95V12.5H179.55ZM178.75 2.95H173.5V4.55H178.75V2.95ZM172.7 3.75V12.5H174.3V3.75H172.7ZM185.75 14.25H184.95V15.05H185.75V14.25ZM185.75 12.5H186.55V11.7H185.75V12.5ZM184 12.5H183.2V13.3H184V12.5ZM184 2V1.2H183.2V2H184ZM187.5 2H188.3V1.2H187.5V2ZM187.5 12.5H186.7V13.3H187.5V12.5ZM192.75 12.5V13.3H193.55V12.5H192.75ZM192.75 2V1.2H191.95V2H192.75ZM196.25 2H197.05V1.2H196.25V2ZM196.25 12.5V13.3H197.05V12.5H196.25ZM194.5 12.5V11.7H193.7V12.5H194.5ZM194.5 14.25V15.05H195.3V14.25H194.5ZM186.55 14.25V12.5H184.95V14.25H186.55ZM185.75 11.7H184V13.3H185.75V11.7ZM184.8 12.5V2H183.2V12.5H184.8ZM184 2.8H187.5V1.2H184V2.8ZM186.7 2V12.5H188.3V2H186.7ZM187.5 13.3H192.75V11.7H187.5V13.3ZM193.55 12.5V2H191.95V12.5H193.55ZM192.75 2.8H196.25V1.2H192.75V2.8ZM195.45 2V12.5H197.05V2H195.45ZM196.25 11.7H194.5V13.3H196.25V11.7ZM193.7 12.5V14.25H195.3V12.5H193.7ZM194.5 13.45H185.75V15.05H194.5V13.45ZM198 14.25H197.2V15.05H198V14.25ZM198 2V1.2H197.2V2H198ZM208.5 2H209.3V1.2H208.5V2ZM208.5 3.75H207.7V4.55H208.5V3.75ZM210.25 3.75H211.05V2.95H210.25V3.75ZM210.25 9V9.8H211.05V9H210.25ZM206.75 9V8.2H205.95V9H206.75ZM206.75 10.75H205.95V11.55H206.75V10.75ZM208.5 10.75H209.3V9.95H208.5V10.75ZM208.5 12.5H207.7V13.3H208.5V12.5ZM210.25 12.5H211.05V11.7H210.25V12.5ZM210.25 14.25V15.05H211.05V14.25H210.25ZM205 14.25H204.2V15.05H205V14.25ZM205 12.5H205.8V11.7H205V12.5ZM203.25 12.5H202.45V13.3H203.25V12.5ZM203.25 10.75H204.05V9.95H203.25V10.75ZM201.5 10.75V9.95H200.7V10.75H201.5ZM201.5 14.25V15.05H202.3V14.25H201.5ZM201.5 9H200.7V9.8H201.5V9ZM205 9V9.8H205.8V9H205ZM205 7.25V6.45H204.2V7.25H205ZM206.75 7.25V8.05H207.55V7.25H206.75ZM206.75 3.75H207.55V2.95H206.75V3.75ZM201.5 3.75V2.95H200.7V3.75H201.5ZM198.8 14.25V2H197.2V14.25H198.8ZM198 2.8H208.5V1.2H198V2.8ZM207.7 2V3.75H209.3V2H207.7ZM208.5 4.55H210.25V2.95H208.5V4.55ZM209.45 3.75V9H211.05V3.75H209.45ZM210.25 8.2H206.75V9.8H210.25V8.2ZM205.95 9V10.75H207.55V9H205.95ZM206.75 11.55H208.5V9.95H206.75V11.55ZM207.7 10.75V12.5H209.3V10.75H207.7ZM208.5 13.3H210.25V11.7H208.5V13.3ZM209.45 12.5V14.25H211.05V12.5H209.45ZM210.25 13.45H205V15.05H210.25V13.45ZM205.8 14.25V12.5H204.2V14.25H205.8ZM205 11.7H203.25V13.3H205V11.7ZM204.05 12.5V10.75H202.45V12.5H204.05ZM203.25 9.95H201.5V11.55H203.25V9.95ZM200.7 10.75V14.25H202.3V10.75H200.7ZM201.5 13.45H198V15.05H201.5V13.45ZM201.5 9.8H205V8.2H201.5V9.8ZM205.8 9V7.25H204.2V9H205.8ZM205 8.05H206.75V6.45H205V8.05ZM207.55 7.25V3.75H205.95V7.25H207.55ZM206.75 2.95H201.5V4.55H206.75V2.95ZM200.7 3.75V9H202.3V3.75H200.7ZM226 14.25H225.2V15.05H226V14.25ZM226 2V1.2H225.2V2H226ZM236.5 2H237.3V1.2H236.5V2ZM236.5 3.75H235.7V4.55H236.5V3.75ZM238.25 3.75H239.05V2.95H238.25V3.75ZM238.25 9V9.8H239.05V9H238.25ZM236.5 9V8.2H235.7V9H236.5ZM236.5 10.75V11.55H237.3V10.75H236.5ZM229.5 10.75V9.95H228.7V10.75H229.5ZM229.5 14.25V15.05H230.3V14.25H229.5ZM229.5 9H228.7V9.8H229.5V9ZM234.75 9V9.8H235.55V9H234.75ZM234.75 3.75H235.55V2.95H234.75V3.75ZM229.5 3.75V2.95H228.7V3.75H229.5ZM226.8 14.25V2H225.2V14.25H226.8ZM226 2.8H236.5V1.2H226V2.8ZM235.7 2V3.75H237.3V2H235.7ZM236.5 4.55H238.25V2.95H236.5V4.55ZM237.45 3.75V9H239.05V3.75H237.45ZM238.25 8.2H236.5V9.8H238.25V8.2ZM235.7 9V10.75H237.3V9H235.7ZM236.5 9.95H229.5V11.55H236.5V9.95ZM228.7 10.75V14.25H230.3V10.75H228.7ZM229.5 13.45H226V15.05H229.5V13.45ZM229.5 9.8H234.75V8.2H229.5V9.8ZM235.55 9V3.75H233.95V9H235.55ZM234.75 2.95H229.5V4.55H234.75V2.95ZM228.7 3.75V9H230.3V3.75H228.7ZM241.75 14.25H240.95V15.05H241.75V14.25ZM241.75 12.5H242.55V11.7H241.75V12.5ZM240 12.5H239.2V13.3H240V12.5ZM240 3.75V2.95H239.2V3.75H240ZM241.75 3.75V4.55H242.55V3.75H241.75ZM241.75 2V1.2H240.95V2H241.75ZM250.5 2H251.3V1.2H250.5V2ZM250.5 3.75H249.7V4.55H250.5V3.75ZM252.25 3.75H253.05V2.95H252.25V3.75ZM252.25 12.5V13.3H253.05V12.5H252.25ZM250.5 12.5V11.7H249.7V12.5H250.5ZM250.5 14.25V15.05H251.3V14.25H250.5ZM243.5 12.5H242.7V13.3H243.5V12.5ZM248.75 12.5V13.3H249.55V12.5H248.75ZM248.75 3.75H249.55V2.95H248.75V3.75ZM243.5 3.75V2.95H242.7V3.75H243.5ZM242.55 14.25V12.5H240.95V14.25H242.55ZM241.75 11.7H240V13.3H241.75V11.7ZM240.8 12.5V3.75H239.2V12.5H240.8ZM240 4.55H241.75V2.95H240V4.55ZM242.55 3.75V2H240.95V3.75H242.55ZM241.75 2.8H250.5V1.2H241.75V2.8ZM249.7 2V3.75H251.3V2H249.7ZM250.5 4.55H252.25V2.95H250.5V4.55ZM251.45 3.75V12.5H253.05V3.75H251.45ZM252.25 11.7H250.5V13.3H252.25V11.7ZM249.7 12.5V14.25H251.3V12.5H249.7ZM250.5 13.45H241.75V15.05H250.5V13.45ZM243.5 13.3H248.75V11.7H243.5V13.3ZM249.55 12.5V3.75H247.95V12.5H249.55ZM248.75 2.95H243.5V4.55H248.75V2.95ZM242.7 3.75V12.5H244.3V3.75H242.7ZM255.75 14.25H254.95V15.05H255.75V14.25ZM255.75 12.5H256.55V11.7H255.75V12.5ZM254 12.5H253.2V13.3H254V12.5ZM254 2V1.2H253.2V2H254ZM257.5 2H258.3V1.2H257.5V2ZM257.5 9H256.7V9.8H257.5V9ZM259.25 9V9.8H260.05V9H259.25ZM259.25 2V1.2H258.45V2H259.25ZM261 2H261.8V1.2H261V2ZM261 9H260.2V9.8H261V9ZM262.75 9V9.8H263.55V9H262.75ZM262.75 2V1.2H261.95V2H262.75ZM266.25 2H267.05V1.2H266.25V2ZM266.25 12.5V13.3H267.05V12.5H266.25ZM264.5 12.5V11.7H263.7V12.5H264.5ZM264.5 14.25V15.05H265.3V14.25H264.5ZM262.75 14.25H261.95V15.05H262.75V14.25ZM262.75 12.5H263.55V11.7H262.75V12.5ZM261 12.5H260.2V13.3H261V12.5ZM261 10.75H261.8V9.95H261V10.75ZM259.25 10.75V9.95H258.45V10.75H259.25ZM259.25 12.5V13.3H260.05V12.5H259.25ZM257.5 12.5V11.7H256.7V12.5H257.5ZM257.5 14.25V15.05H258.3V14.25H257.5ZM256.55 14.25V12.5H254.95V14.25H256.55ZM255.75 11.7H254V13.3H255.75V11.7ZM254.8 12.5V2H253.2V12.5H254.8ZM254 2.8H257.5V1.2H254V2.8ZM256.7 2V9H258.3V2H256.7ZM257.5 9.8H259.25V8.2H257.5V9.8ZM260.05 9V2H258.45V9H260.05ZM259.25 2.8H261V1.2H259.25V2.8ZM260.2 2V9H261.8V2H260.2ZM261 9.8H262.75V8.2H261V9.8ZM263.55 9V2H261.95V9H263.55ZM262.75 2.8H266.25V1.2H262.75V2.8ZM265.45 2V12.5H267.05V2H265.45ZM266.25 11.7H264.5V13.3H266.25V11.7ZM263.7 12.5V14.25H265.3V12.5H263.7ZM264.5 13.45H262.75V15.05H264.5V13.45ZM263.55 14.25V12.5H261.95V14.25H263.55ZM262.75 11.7H261V13.3H262.75V11.7ZM261.8 12.5V10.75H260.2V12.5H261.8ZM261 9.95H259.25V11.55H261V9.95ZM258.45 10.75V12.5H260.05V10.75H258.45ZM259.25 11.7H257.5V13.3H259.25V11.7ZM256.7 12.5V14.25H258.3V12.5H256.7ZM257.5 13.45H255.75V15.05H257.5V13.45ZM268 14.25H267.2V15.05H268V14.25ZM268 2V1.2H267.2V2H268ZM280.25 2H281.05V1.2H280.25V2ZM280.25 3.75V4.55H281.05V3.75H280.25ZM271.5 3.75V2.95H270.7V3.75H271.5ZM271.5 7.25H270.7V8.05H271.5V7.25ZM278.5 7.25H279.3V6.45H278.5V7.25ZM278.5 9V9.8H279.3V9H278.5ZM271.5 9V8.2H270.7V9H271.5ZM271.5 12.5H270.7V13.3H271.5V12.5ZM280.25 12.5H281.05V11.7H280.25V12.5ZM280.25 14.25V15.05H281.05V14.25H280.25ZM268.8 14.25V2H267.2V14.25H268.8ZM268 2.8H280.25V1.2H268V2.8ZM279.45 2V3.75H281.05V2H279.45ZM280.25 2.95H271.5V4.55H280.25V2.95ZM270.7 3.75V7.25H272.3V3.75H270.7ZM271.5 8.05H278.5V6.45H271.5V8.05ZM277.7 7.25V9H279.3V7.25H277.7ZM278.5 8.2H271.5V9.8H278.5V8.2ZM270.7 9V12.5H272.3V9H270.7ZM271.5 13.3H280.25V11.7H271.5V13.3ZM279.45 12.5V14.25H281.05V12.5H279.45ZM280.25 13.45H268V15.05H280.25V13.45ZM282 14.25H281.2V15.05H282V14.25ZM282 2V1.2H281.2V2H282ZM292.5 2H293.3V1.2H292.5V2ZM292.5 3.75H291.7V4.55H292.5V3.75ZM294.25 3.75H295.05V2.95H294.25V3.75ZM294.25 9V9.8H295.05V9H294.25ZM290.75 9V8.2H289.95V9H290.75ZM290.75 10.75H289.95V11.55H290.75V10.75ZM292.5 10.75H293.3V9.95H292.5V10.75ZM292.5 12.5H291.7V13.3H292.5V12.5ZM294.25 12.5H295.05V11.7H294.25V12.5ZM294.25 14.25V15.05H295.05V14.25H294.25ZM289 14.25H288.2V15.05H289V14.25ZM289 12.5H289.8V11.7H289V12.5ZM287.25 12.5H286.45V13.3H287.25V12.5ZM287.25 10.75H288.05V9.95H287.25V10.75ZM285.5 10.75V9.95H284.7V10.75H285.5ZM285.5 14.25V15.05H286.3V14.25H285.5ZM285.5 9H284.7V9.8H285.5V9ZM289 9V9.8H289.8V9H289ZM289 7.25V6.45H288.2V7.25H289ZM290.75 7.25V8.05H291.55V7.25H290.75ZM290.75 3.75H291.55V2.95H290.75V3.75ZM285.5 3.75V2.95H284.7V3.75H285.5ZM282.8 14.25V2H281.2V14.25H282.8ZM282 2.8H292.5V1.2H282V2.8ZM291.7 2V3.75H293.3V2H291.7ZM292.5 4.55H294.25V2.95H292.5V4.55ZM293.45 3.75V9H295.05V3.75H293.45ZM294.25 8.2H290.75V9.8H294.25V8.2ZM289.95 9V10.75H291.55V9H289.95ZM290.75 11.55H292.5V9.95H290.75V11.55ZM291.7 10.75V12.5H293.3V10.75H291.7ZM292.5 13.3H294.25V11.7H292.5V13.3ZM293.45 12.5V14.25H295.05V12.5H293.45ZM294.25 13.45H289V15.05H294.25V13.45ZM289.8 14.25V12.5H288.2V14.25H289.8ZM289 11.7H287.25V13.3H289V11.7ZM288.05 12.5V10.75H286.45V12.5H288.05ZM287.25 9.95H285.5V11.55H287.25V9.95ZM284.7 10.75V14.25H286.3V10.75H284.7ZM285.5 13.45H282V15.05H285.5V13.45ZM285.5 9.8H289V8.2H285.5V9.8ZM289.8 9V7.25H288.2V9H289.8ZM289 8.05H290.75V6.45H289V8.05ZM291.55 7.25V3.75H289.95V7.25H291.55ZM290.75 2.95H285.5V4.55H290.75V2.95ZM284.7 3.75V9H286.3V3.75H284.7ZM297.75 16H296.95V16.8H297.75V16ZM297.75 14.25V13.45H296.95V14.25H297.75ZM299.5 14.25V15.05H300.3V14.25H299.5ZM299.5 10.75V9.95H298.7V10.75H299.5ZM303 10.75H303.8V9.95H303V10.75ZM303 14.25V15.05H303.8V14.25H303ZM301.25 14.25V13.45H300.45V14.25H301.25ZM301.25 16V16.8H302.05V16H301.25ZM298.55 16V14.25H296.95V16H298.55ZM297.75 15.05H299.5V13.45H297.75V15.05ZM300.3 14.25V10.75H298.7V14.25H300.3ZM299.5 11.55H303V9.95H299.5V11.55ZM302.2 10.75V14.25H303.8V10.75H302.2ZM303 13.45H301.25V15.05H303V13.45ZM300.45 14.25V16H302.05V14.25H300.45ZM301.25 15.2H297.75V16.8H301.25V15.2ZM325.75 14.25H324.95V15.05H325.75V14.25ZM325.75 12.5H326.55V11.7H325.75V12.5ZM324 12.5H323.2V13.3H324V12.5ZM324 3.75V2.95H323.2V3.75H324ZM325.75 3.75V4.55H326.55V3.75H325.75ZM325.75 2V1.2H324.95V2H325.75ZM334.5 2H335.3V1.2H334.5V2ZM334.5 3.75H333.7V4.55H334.5V3.75ZM336.25 3.75H337.05V2.95H336.25V3.75ZM336.25 12.5V13.3H337.05V12.5H336.25ZM334.5 12.5V11.7H333.7V12.5H334.5ZM334.5 14.25V15.05H335.3V14.25H334.5ZM327.5 12.5H326.7V13.3H327.5V12.5ZM332.75 12.5V13.3H333.55V12.5H332.75ZM332.75 3.75H333.55V2.95H332.75V3.75ZM327.5 3.75V2.95H326.7V3.75H327.5ZM326.55 14.25V12.5H324.95V14.25H326.55ZM325.75 11.7H324V13.3H325.75V11.7ZM324.8 12.5V3.75H323.2V12.5H324.8ZM324 4.55H325.75V2.95H324V4.55ZM326.55 3.75V2H324.95V3.75H326.55ZM325.75 2.8H334.5V1.2H325.75V2.8ZM333.7 2V3.75H335.3V2H333.7ZM334.5 4.55H336.25V2.95H334.5V4.55ZM335.45 3.75V12.5H337.05V3.75H335.45ZM336.25 11.7H334.5V13.3H336.25V11.7ZM333.7 12.5V14.25H335.3V12.5H333.7ZM334.5 13.45H325.75V15.05H334.5V13.45ZM327.5 13.3H332.75V11.7H327.5V13.3ZM333.55 12.5V3.75H331.95V12.5H333.55ZM332.75 2.95H327.5V4.55H332.75V2.95ZM326.7 3.75V12.5H328.3V3.75H326.7ZM339.75 14.25H338.95V15.05H339.75V14.25ZM339.75 12.5H340.55V11.7H339.75V12.5ZM338 12.5H337.2V13.3H338V12.5ZM338 2V1.2H337.2V2H338ZM341.5 2H342.3V1.2H341.5V2ZM341.5 12.5H340.7V13.3H341.5V12.5ZM346.75 12.5V13.3H347.55V12.5H346.75ZM346.75 2V1.2H345.95V2H346.75ZM350.25 2H351.05V1.2H350.25V2ZM350.25 12.5V13.3H351.05V12.5H350.25ZM348.5 12.5V11.7H347.7V12.5H348.5ZM348.5 14.25V15.05H349.3V14.25H348.5ZM340.55 14.25V12.5H338.95V14.25H340.55ZM339.75 11.7H338V13.3H339.75V11.7ZM338.8 12.5V2H337.2V12.5H338.8ZM338 2.8H341.5V1.2H338V2.8ZM340.7 2V12.5H342.3V2H340.7ZM341.5 13.3H346.75V11.7H341.5V13.3ZM347.55 12.5V2H345.95V12.5H347.55ZM346.75 2.8H350.25V1.2H346.75V2.8ZM349.45 2V12.5H351.05V2H349.45ZM350.25 11.7H348.5V13.3H350.25V11.7ZM347.7 12.5V14.25H349.3V12.5H347.7ZM348.5 13.45H339.75V15.05H348.5V13.45ZM352 14.25H351.2V15.05H352V14.25ZM352 2V1.2H351.2V2H352ZM362.5 2H363.3V1.2H362.5V2ZM362.5 3.75H361.7V4.55H362.5V3.75ZM364.25 3.75H365.05V2.95H364.25V3.75ZM364.25 9V9.8H365.05V9H364.25ZM360.75 9V8.2H359.95V9H360.75ZM360.75 10.75H359.95V11.55H360.75V10.75ZM362.5 10.75H363.3V9.95H362.5V10.75ZM362.5 12.5H361.7V13.3H362.5V12.5ZM364.25 12.5H365.05V11.7H364.25V12.5ZM364.25 14.25V15.05H365.05V14.25H364.25ZM359 14.25H358.2V15.05H359V14.25ZM359 12.5H359.8V11.7H359V12.5ZM357.25 12.5H356.45V13.3H357.25V12.5ZM357.25 10.75H358.05V9.95H357.25V10.75ZM355.5 10.75V9.95H354.7V10.75H355.5ZM355.5 14.25V15.05H356.3V14.25H355.5ZM355.5 9H354.7V9.8H355.5V9ZM359 9V9.8H359.8V9H359ZM359 7.25V6.45H358.2V7.25H359ZM360.75 7.25V8.05H361.55V7.25H360.75ZM360.75 3.75H361.55V2.95H360.75V3.75ZM355.5 3.75V2.95H354.7V3.75H355.5ZM352.8 14.25V2H351.2V14.25H352.8ZM352 2.8H362.5V1.2H352V2.8ZM361.7 2V3.75H363.3V2H361.7ZM362.5 4.55H364.25V2.95H362.5V4.55ZM363.45 3.75V9H365.05V3.75H363.45ZM364.25 8.2H360.75V9.8H364.25V8.2ZM359.95 9V10.75H361.55V9H359.95ZM360.75 11.55H362.5V9.95H360.75V11.55ZM361.7 10.75V12.5H363.3V10.75H361.7ZM362.5 13.3H364.25V11.7H362.5V13.3ZM363.45 12.5V14.25H365.05V12.5H363.45ZM364.25 13.45H359V15.05H364.25V13.45ZM359.8 14.25V12.5H358.2V14.25H359.8ZM359 11.7H357.25V13.3H359V11.7ZM358.05 12.5V10.75H356.45V12.5H358.05ZM357.25 9.95H355.5V11.55H357.25V9.95ZM354.7 10.75V14.25H356.3V10.75H354.7ZM355.5 13.45H352V15.05H355.5V13.45ZM355.5 9.8H359V8.2H355.5V9.8ZM359.8 9V7.25H358.2V9H359.8ZM359 8.05H360.75V6.45H359V8.05ZM361.55 7.25V3.75H359.95V7.25H361.55ZM360.75 2.95H355.5V4.55H360.75V2.95ZM354.7 3.75V9H356.3V3.75H354.7ZM380 14.25H379.2V15.05H380V14.25ZM380 2V1.2H379.2V2H380ZM392.25 2H393.05V1.2H392.25V2ZM392.25 3.75V4.55H393.05V3.75H392.25ZM383.5 3.75V2.95H382.7V3.75H383.5ZM383.5 7.25H382.7V8.05H383.5V7.25ZM390.5 7.25H391.3V6.45H390.5V7.25ZM390.5 9V9.8H391.3V9H390.5ZM383.5 9V8.2H382.7V9H383.5ZM383.5 14.25V15.05H384.3V14.25H383.5ZM380.8 14.25V2H379.2V14.25H380.8ZM380 2.8H392.25V1.2H380V2.8ZM391.45 2V3.75H393.05V2H391.45ZM392.25 2.95H383.5V4.55H392.25V2.95ZM382.7 3.75V7.25H384.3V3.75H382.7ZM383.5 8.05H390.5V6.45H383.5V8.05ZM389.7 7.25V9H391.3V7.25H389.7ZM390.5 8.2H383.5V9.8H390.5V8.2ZM382.7 9V14.25H384.3V9H382.7ZM383.5 13.45H380V15.05H383.5V13.45ZM395.75 14.25H394.95V15.05H395.75V14.25ZM395.75 12.5H396.55V11.7H395.75V12.5ZM394 12.5H393.2V13.3H394V12.5ZM394 2V1.2H393.2V2H394ZM397.5 2H398.3V1.2H397.5V2ZM397.5 12.5H396.7V13.3H397.5V12.5ZM402.75 12.5V13.3H403.55V12.5H402.75ZM402.75 2V1.2H401.95V2H402.75ZM406.25 2H407.05V1.2H406.25V2ZM406.25 12.5V13.3H407.05V12.5H406.25ZM404.5 12.5V11.7H403.7V12.5H404.5ZM404.5 14.25V15.05H405.3V14.25H404.5ZM396.55 14.25V12.5H394.95V14.25H396.55ZM395.75 11.7H394V13.3H395.75V11.7ZM394.8 12.5V2H393.2V12.5H394.8ZM394 2.8H397.5V1.2H394V2.8ZM396.7 2V12.5H398.3V2H396.7ZM397.5 13.3H402.75V11.7H397.5V13.3ZM403.55 12.5V2H401.95V12.5H403.55ZM402.75 2.8H406.25V1.2H402.75V2.8ZM405.45 2V12.5H407.05V2H405.45ZM406.25 11.7H404.5V13.3H406.25V11.7ZM403.7 12.5V14.25H405.3V12.5H403.7ZM404.5 13.45H395.75V15.05H404.5V13.45ZM413.25 14.25H412.45V15.05H413.25V14.25ZM413.25 3.75H414.05V2.95H413.25V3.75ZM409.75 3.75H408.95V4.55H409.75V3.75ZM409.75 2V1.2H408.95V2H409.75ZM420.25 2H421.05V1.2H420.25V2ZM420.25 3.75V4.55H421.05V3.75H420.25ZM416.75 3.75V2.95H415.95V3.75H416.75ZM416.75 14.25V15.05H417.55V14.25H416.75ZM414.05 14.25V3.75H412.45V14.25H414.05ZM413.25 2.95H409.75V4.55H413.25V2.95ZM410.55 3.75V2H408.95V3.75H410.55ZM409.75 2.8H420.25V1.2H409.75V2.8ZM419.45 2V3.75H421.05V2H419.45ZM420.25 2.95H416.75V4.55H420.25V2.95ZM415.95 3.75V14.25H417.55V3.75H415.95ZM416.75 13.45H413.25V15.05H416.75V13.45ZM423.75 14.25H422.95V15.05H423.75V14.25ZM423.75 12.5H424.55V11.7H423.75V12.5ZM422 12.5H421.2V13.3H422V12.5ZM422 2V1.2H421.2V2H422ZM425.5 2H426.3V1.2H425.5V2ZM425.5 12.5H424.7V13.3H425.5V12.5ZM430.75 12.5V13.3H431.55V12.5H430.75ZM430.75 2V1.2H429.95V2H430.75ZM434.25 2H435.05V1.2H434.25V2ZM434.25 12.5V13.3H435.05V12.5H434.25ZM432.5 12.5V11.7H431.7V12.5H432.5ZM432.5 14.25V15.05H433.3V14.25H432.5ZM424.55 14.25V12.5H422.95V14.25H424.55ZM423.75 11.7H422V13.3H423.75V11.7ZM422.8 12.5V2H421.2V12.5H422.8ZM422 2.8H425.5V1.2H422V2.8ZM424.7 2V12.5H426.3V2H424.7ZM425.5 13.3H430.75V11.7H425.5V13.3ZM431.55 12.5V2H429.95V12.5H431.55ZM430.75 2.8H434.25V1.2H430.75V2.8ZM433.45 2V12.5H435.05V2H433.45ZM434.25 11.7H432.5V13.3H434.25V11.7ZM431.7 12.5V14.25H433.3V12.5H431.7ZM432.5 13.45H423.75V15.05H432.5V13.45ZM436 14.25H435.2V15.05H436V14.25ZM436 2V1.2H435.2V2H436ZM446.5 2H447.3V1.2H446.5V2ZM446.5 3.75H445.7V4.55H446.5V3.75ZM448.25 3.75H449.05V2.95H448.25V3.75ZM448.25 9V9.8H449.05V9H448.25ZM444.75 9V8.2H443.95V9H444.75ZM444.75 10.75H443.95V11.55H444.75V10.75ZM446.5 10.75H447.3V9.95H446.5V10.75ZM446.5 12.5H445.7V13.3H446.5V12.5ZM448.25 12.5H449.05V11.7H448.25V12.5ZM448.25 14.25V15.05H449.05V14.25H448.25ZM443 14.25H442.2V15.05H443V14.25ZM443 12.5H443.8V11.7H443V12.5ZM441.25 12.5H440.45V13.3H441.25V12.5ZM441.25 10.75H442.05V9.95H441.25V10.75ZM439.5 10.75V9.95H438.7V10.75H439.5ZM439.5 14.25V15.05H440.3V14.25H439.5ZM439.5 9H438.7V9.8H439.5V9ZM443 9V9.8H443.8V9H443ZM443 7.25V6.45H442.2V7.25H443ZM444.75 7.25V8.05H445.55V7.25H444.75ZM444.75 3.75H445.55V2.95H444.75V3.75ZM439.5 3.75V2.95H438.7V3.75H439.5ZM436.8 14.25V2H435.2V14.25H436.8ZM436 2.8H446.5V1.2H436V2.8ZM445.7 2V3.75H447.3V2H445.7ZM446.5 4.55H448.25V2.95H446.5V4.55ZM447.45 3.75V9H449.05V3.75H447.45ZM448.25 8.2H444.75V9.8H448.25V8.2ZM443.95 9V10.75H445.55V9H443.95ZM444.75 11.55H446.5V9.95H444.75V11.55ZM445.7 10.75V12.5H447.3V10.75H445.7ZM446.5 13.3H448.25V11.7H446.5V13.3ZM447.45 12.5V14.25H449.05V12.5H447.45ZM448.25 13.45H443V15.05H448.25V13.45ZM443.8 14.25V12.5H442.2V14.25H443.8ZM443 11.7H441.25V13.3H443V11.7ZM442.05 12.5V10.75H440.45V12.5H442.05ZM441.25 9.95H439.5V11.55H441.25V9.95ZM438.7 10.75V14.25H440.3V10.75H438.7ZM439.5 13.45H436V15.05H439.5V13.45ZM439.5 9.8H443V8.2H439.5V9.8ZM443.8 9V7.25H442.2V9H443.8ZM443 8.05H444.75V6.45H443V8.05ZM445.55 7.25V3.75H443.95V7.25H445.55ZM444.75 2.95H439.5V4.55H444.75V2.95ZM438.7 3.75V9H440.3V3.75H438.7ZM450 14.25H449.2V15.05H450V14.25ZM450 2V1.2H449.2V2H450ZM462.25 2H463.05V1.2H462.25V2ZM462.25 3.75V4.55H463.05V3.75H462.25ZM453.5 3.75V2.95H452.7V3.75H453.5ZM453.5 7.25H452.7V8.05H453.5V7.25ZM460.5 7.25H461.3V6.45H460.5V7.25ZM460.5 9V9.8H461.3V9H460.5ZM453.5 9V8.2H452.7V9H453.5ZM453.5 12.5H452.7V13.3H453.5V12.5ZM462.25 12.5H463.05V11.7H462.25V12.5ZM462.25 14.25V15.05H463.05V14.25H462.25ZM450.8 14.25V2H449.2V14.25H450.8ZM450 2.8H462.25V1.2H450V2.8ZM461.45 2V3.75H463.05V2H461.45ZM462.25 2.95H453.5V4.55H462.25V2.95ZM452.7 3.75V7.25H454.3V3.75H452.7ZM453.5 8.05H460.5V6.45H453.5V8.05ZM459.7 7.25V9H461.3V7.25H459.7ZM460.5 8.2H453.5V9.8H460.5V8.2ZM452.7 9V12.5H454.3V9H452.7ZM453.5 13.3H462.25V11.7H453.5V13.3ZM461.45 12.5V14.25H463.05V12.5H461.45ZM462.25 13.45H450V15.05H462.25V13.45ZM479.75 9H478.95V9.8H479.75V9ZM479.75 7.25V6.45H478.95V7.25H479.75ZM490.25 7.25H491.05V6.45H490.25V7.25ZM490.25 9V9.8H491.05V9H490.25ZM480.55 9V7.25H478.95V9H480.55ZM479.75 8.05H490.25V6.45H479.75V8.05ZM489.45 7.25V9H491.05V7.25H489.45ZM490.25 8.2H479.75V9.8H490.25V8.2Z" fill="#D732A8" mask="url(#path-2-outside-1_182_5692)"/>
<mask id="path-4-outside-2_182_5692" maskUnits="userSpaceOnUse" x="4" y="1" width="490" height="16" fill="black">
<rect fill="white" x="4" y="1" width="490" height="16"/>
<path d="M5.75 9V7.25H16.25V9H5.75ZM33.75 14.25V12.5H32V3.75H33.75V2H42.5V3.75H44.25V12.5H42.5V14.25H33.75ZM35.5 12.5H40.75V3.75H35.5V12.5ZM47.75 14.25V12.5H46V2H49.5V12.5H54.75V2H58.25V12.5H56.5V14.25H47.75ZM60 14.25V2H70.5V3.75H72.25V9H68.75V10.75H70.5V12.5H72.25V14.25H67V12.5H65.25V10.75H63.5V14.25H60ZM63.5 9H67V7.25H68.75V3.75H63.5V9ZM88 14.25V2H96.75V3.75H98.5V5.5H100.25V10.75H98.5V12.5H96.75V14.25H88ZM91.5 12.5H95V10.75H96.75V5.5H95V3.75H91.5V12.5ZM102 14.25V5.5H103.75V3.75H105.5V2H110.75V3.75H112.5V5.5H114.25V14.25H110.75V10.75H105.5V14.25H102ZM105.5 9H110.75V5.5H109V3.75H107.25V5.5H105.5V9ZM121.25 14.25V3.75H117.75V2H128.25V3.75H124.75V14.25H121.25ZM130 14.25V5.5H131.75V3.75H133.5V2H138.75V3.75H140.5V5.5H142.25V14.25H138.75V10.75H133.5V14.25H130ZM133.5 9H138.75V5.5H137V3.75H135.25V5.5H133.5V9ZM145.75 16V14.25H147.5V10.75H151V14.25H149.25V16H145.75ZM173.75 14.25V12.5H172V3.75H173.75V2H182.5V3.75H184.25V12.5H182.5V14.25H173.75ZM175.5 12.5H180.75V3.75H175.5V12.5ZM187.75 14.25V12.5H186V2H189.5V12.5H194.75V2H198.25V12.5H196.5V14.25H187.75ZM200 14.25V2H210.5V3.75H212.25V9H208.75V10.75H210.5V12.5H212.25V14.25H207V12.5H205.25V10.75H203.5V14.25H200ZM203.5 9H207V7.25H208.75V3.75H203.5V9ZM228 14.25V2H238.5V3.75H240.25V9H238.5V10.75H231.5V14.25H228ZM231.5 9H236.75V3.75H231.5V9ZM243.75 14.25V12.5H242V3.75H243.75V2H252.5V3.75H254.25V12.5H252.5V14.25H243.75ZM245.5 12.5H250.75V3.75H245.5V12.5ZM257.75 14.25V12.5H256V2H259.5V9H261.25V2H263V9H264.75V2H268.25V12.5H266.5V14.25H264.75V12.5H263V10.75H261.25V12.5H259.5V14.25H257.75ZM270 14.25V2H282.25V3.75H273.5V7.25H280.5V9H273.5V12.5H282.25V14.25H270ZM284 14.25V2H294.5V3.75H296.25V9H292.75V10.75H294.5V12.5H296.25V14.25H291V12.5H289.25V10.75H287.5V14.25H284ZM287.5 9H291V7.25H292.75V3.75H287.5V9ZM299.75 16V14.25H301.5V10.75H305V14.25H303.25V16H299.75ZM327.75 14.25V12.5H326V3.75H327.75V2H336.5V3.75H338.25V12.5H336.5V14.25H327.75ZM329.5 12.5H334.75V3.75H329.5V12.5ZM341.75 14.25V12.5H340V2H343.5V12.5H348.75V2H352.25V12.5H350.5V14.25H341.75ZM354 14.25V2H364.5V3.75H366.25V9H362.75V10.75H364.5V12.5H366.25V14.25H361V12.5H359.25V10.75H357.5V14.25H354ZM357.5 9H361V7.25H362.75V3.75H357.5V9ZM382 14.25V2H394.25V3.75H385.5V7.25H392.5V9H385.5V14.25H382ZM397.75 14.25V12.5H396V2H399.5V12.5H404.75V2H408.25V12.5H406.5V14.25H397.75ZM415.25 14.25V3.75H411.75V2H422.25V3.75H418.75V14.25H415.25ZM425.75 14.25V12.5H424V2H427.5V12.5H432.75V2H436.25V12.5H434.5V14.25H425.75ZM438 14.25V2H448.5V3.75H450.25V9H446.75V10.75H448.5V12.5H450.25V14.25H445V12.5H443.25V10.75H441.5V14.25H438ZM441.5 9H445V7.25H446.75V3.75H441.5V9ZM452 14.25V2H464.25V3.75H455.5V7.25H462.5V9H455.5V12.5H464.25V14.25H452ZM481.75 9V7.25H492.25V9H481.75Z"/>
</mask>
<path d="M5.75 9V7.25H16.25V9H5.75ZM33.75 14.25V12.5H32V3.75H33.75V2H42.5V3.75H44.25V12.5H42.5V14.25H33.75ZM35.5 12.5H40.75V3.75H35.5V12.5ZM47.75 14.25V12.5H46V2H49.5V12.5H54.75V2H58.25V12.5H56.5V14.25H47.75ZM60 14.25V2H70.5V3.75H72.25V9H68.75V10.75H70.5V12.5H72.25V14.25H67V12.5H65.25V10.75H63.5V14.25H60ZM63.5 9H67V7.25H68.75V3.75H63.5V9ZM88 14.25V2H96.75V3.75H98.5V5.5H100.25V10.75H98.5V12.5H96.75V14.25H88ZM91.5 12.5H95V10.75H96.75V5.5H95V3.75H91.5V12.5ZM102 14.25V5.5H103.75V3.75H105.5V2H110.75V3.75H112.5V5.5H114.25V14.25H110.75V10.75H105.5V14.25H102ZM105.5 9H110.75V5.5H109V3.75H107.25V5.5H105.5V9ZM121.25 14.25V3.75H117.75V2H128.25V3.75H124.75V14.25H121.25ZM130 14.25V5.5H131.75V3.75H133.5V2H138.75V3.75H140.5V5.5H142.25V14.25H138.75V10.75H133.5V14.25H130ZM133.5 9H138.75V5.5H137V3.75H135.25V5.5H133.5V9ZM145.75 16V14.25H147.5V10.75H151V14.25H149.25V16H145.75ZM173.75 14.25V12.5H172V3.75H173.75V2H182.5V3.75H184.25V12.5H182.5V14.25H173.75ZM175.5 12.5H180.75V3.75H175.5V12.5ZM187.75 14.25V12.5H186V2H189.5V12.5H194.75V2H198.25V12.5H196.5V14.25H187.75ZM200 14.25V2H210.5V3.75H212.25V9H208.75V10.75H210.5V12.5H212.25V14.25H207V12.5H205.25V10.75H203.5V14.25H200ZM203.5 9H207V7.25H208.75V3.75H203.5V9ZM228 14.25V2H238.5V3.75H240.25V9H238.5V10.75H231.5V14.25H228ZM231.5 9H236.75V3.75H231.5V9ZM243.75 14.25V12.5H242V3.75H243.75V2H252.5V3.75H254.25V12.5H252.5V14.25H243.75ZM245.5 12.5H250.75V3.75H245.5V12.5ZM257.75 14.25V12.5H256V2H259.5V9H261.25V2H263V9H264.75V2H268.25V12.5H266.5V14.25H264.75V12.5H263V10.75H261.25V12.5H259.5V14.25H257.75ZM270 14.25V2H282.25V3.75H273.5V7.25H280.5V9H273.5V12.5H282.25V14.25H270ZM284 14.25V2H294.5V3.75H296.25V9H292.75V10.75H294.5V12.5H296.25V14.25H291V12.5H289.25V10.75H287.5V14.25H284ZM287.5 9H291V7.25H292.75V3.75H287.5V9ZM299.75 16V14.25H301.5V10.75H305V14.25H303.25V16H299.75ZM327.75 14.25V12.5H326V3.75H327.75V2H336.5V3.75H338.25V12.5H336.5V14.25H327.75ZM329.5 12.5H334.75V3.75H329.5V12.5ZM341.75 14.25V12.5H340V2H343.5V12.5H348.75V2H352.25V12.5H350.5V14.25H341.75ZM354 14.25V2H364.5V3.75H366.25V9H362.75V10.75H364.5V12.5H366.25V14.25H361V12.5H359.25V10.75H357.5V14.25H354ZM357.5 9H361V7.25H362.75V3.75H357.5V9ZM382 14.25V2H394.25V3.75H385.5V7.25H392.5V9H385.5V14.25H382ZM397.75 14.25V12.5H396V2H399.5V12.5H404.75V2H408.25V12.5H406.5V14.25H397.75ZM415.25 14.25V3.75H411.75V2H422.25V3.75H418.75V14.25H415.25ZM425.75 14.25V12.5H424V2H427.5V12.5H432.75V2H436.25V12.5H434.5V14.25H425.75ZM438 14.25V2H448.5V3.75H450.25V9H446.75V10.75H448.5V12.5H450.25V14.25H445V12.5H443.25V10.75H441.5V14.25H438ZM441.5 9H445V7.25H446.75V3.75H441.5V9ZM452 14.25V2H464.25V3.75H455.5V7.25H462.5V9H455.5V12.5H464.25V14.25H452ZM481.75 9V7.25H492.25V9H481.75Z" fill="white"/>
<path d="M5.75 9H4.95V9.8H5.75V9ZM5.75 7.25V6.45H4.95V7.25H5.75ZM16.25 7.25H17.05V6.45H16.25V7.25ZM16.25 9V9.8H17.05V9H16.25ZM6.55 9V7.25H4.95V9H6.55ZM5.75 8.05H16.25V6.45H5.75V8.05ZM15.45 7.25V9H17.05V7.25H15.45ZM16.25 8.2H5.75V9.8H16.25V8.2ZM33.75 14.25H32.95V15.05H33.75V14.25ZM33.75 12.5H34.55V11.7H33.75V12.5ZM32 12.5H31.2V13.3H32V12.5ZM32 3.75V2.95H31.2V3.75H32ZM33.75 3.75V4.55H34.55V3.75H33.75ZM33.75 2V1.2H32.95V2H33.75ZM42.5 2H43.3V1.2H42.5V2ZM42.5 3.75H41.7V4.55H42.5V3.75ZM44.25 3.75H45.05V2.95H44.25V3.75ZM44.25 12.5V13.3H45.05V12.5H44.25ZM42.5 12.5V11.7H41.7V12.5H42.5ZM42.5 14.25V15.05H43.3V14.25H42.5ZM35.5 12.5H34.7V13.3H35.5V12.5ZM40.75 12.5V13.3H41.55V12.5H40.75ZM40.75 3.75H41.55V2.95H40.75V3.75ZM35.5 3.75V2.95H34.7V3.75H35.5ZM34.55 14.25V12.5H32.95V14.25H34.55ZM33.75 11.7H32V13.3H33.75V11.7ZM32.8 12.5V3.75H31.2V12.5H32.8ZM32 4.55H33.75V2.95H32V4.55ZM34.55 3.75V2H32.95V3.75H34.55ZM33.75 2.8H42.5V1.2H33.75V2.8ZM41.7 2V3.75H43.3V2H41.7ZM42.5 4.55H44.25V2.95H42.5V4.55ZM43.45 3.75V12.5H45.05V3.75H43.45ZM44.25 11.7H42.5V13.3H44.25V11.7ZM41.7 12.5V14.25H43.3V12.5H41.7ZM42.5 13.45H33.75V15.05H42.5V13.45ZM35.5 13.3H40.75V11.7H35.5V13.3ZM41.55 12.5V3.75H39.95V12.5H41.55ZM40.75 2.95H35.5V4.55H40.75V2.95ZM34.7 3.75V12.5H36.3V3.75H34.7ZM47.75 14.25H46.95V15.05H47.75V14.25ZM47.75 12.5H48.55V11.7H47.75V12.5ZM46 12.5H45.2V13.3H46V12.5ZM46 2V1.2H45.2V2H46ZM49.5 2H50.3V1.2H49.5V2ZM49.5 12.5H48.7V13.3H49.5V12.5ZM54.75 12.5V13.3H55.55V12.5H54.75ZM54.75 2V1.2H53.95V2H54.75ZM58.25 2H59.05V1.2H58.25V2ZM58.25 12.5V13.3H59.05V12.5H58.25ZM56.5 12.5V11.7H55.7V12.5H56.5ZM56.5 14.25V15.05H57.3V14.25H56.5ZM48.55 14.25V12.5H46.95V14.25H48.55ZM47.75 11.7H46V13.3H47.75V11.7ZM46.8 12.5V2H45.2V12.5H46.8ZM46 2.8H49.5V1.2H46V2.8ZM48.7 2V12.5H50.3V2H48.7ZM49.5 13.3H54.75V11.7H49.5V13.3ZM55.55 12.5V2H53.95V12.5H55.55ZM54.75 2.8H58.25V1.2H54.75V2.8ZM57.45 2V12.5H59.05V2H57.45ZM58.25 11.7H56.5V13.3H58.25V11.7ZM55.7 12.5V14.25H57.3V12.5H55.7ZM56.5 13.45H47.75V15.05H56.5V13.45ZM60 14.25H59.2V15.05H60V14.25ZM60 2V1.2H59.2V2H60ZM70.5 2H71.3V1.2H70.5V2ZM70.5 3.75H69.7V4.55H70.5V3.75ZM72.25 3.75H73.05V2.95H72.25V3.75ZM72.25 9V9.8H73.05V9H72.25ZM68.75 9V8.2H67.95V9H68.75ZM68.75 10.75H67.95V11.55H68.75V10.75ZM70.5 10.75H71.3V9.95H70.5V10.75ZM70.5 12.5H69.7V13.3H70.5V12.5ZM72.25 12.5H73.05V11.7H72.25V12.5ZM72.25 14.25V15.05H73.05V14.25H72.25ZM67 14.25H66.2V15.05H67V14.25ZM67 12.5H67.8V11.7H67V12.5ZM65.25 12.5H64.45V13.3H65.25V12.5ZM65.25 10.75H66.05V9.95H65.25V10.75ZM63.5 10.75V9.95H62.7V10.75H63.5ZM63.5 14.25V15.05H64.3V14.25H63.5ZM63.5 9H62.7V9.8H63.5V9ZM67 9V9.8H67.8V9H67ZM67 7.25V6.45H66.2V7.25H67ZM68.75 7.25V8.05H69.55V7.25H68.75ZM68.75 3.75H69.55V2.95H68.75V3.75ZM63.5 3.75V2.95H62.7V3.75H63.5ZM60.8 14.25V2H59.2V14.25H60.8ZM60 2.8H70.5V1.2H60V2.8ZM69.7 2V3.75H71.3V2H69.7ZM70.5 4.55H72.25V2.95H70.5V4.55ZM71.45 3.75V9H73.05V3.75H71.45ZM72.25 8.2H68.75V9.8H72.25V8.2ZM67.95 9V10.75H69.55V9H67.95ZM68.75 11.55H70.5V9.95H68.75V11.55ZM69.7 10.75V12.5H71.3V10.75H69.7ZM70.5 13.3H72.25V11.7H70.5V13.3ZM71.45 12.5V14.25H73.05V12.5H71.45ZM72.25 13.45H67V15.05H72.25V13.45ZM67.8 14.25V12.5H66.2V14.25H67.8ZM67 11.7H65.25V13.3H67V11.7ZM66.05 12.5V10.75H64.45V12.5H66.05ZM65.25 9.95H63.5V11.55H65.25V9.95ZM62.7 10.75V14.25H64.3V10.75H62.7ZM63.5 13.45H60V15.05H63.5V13.45ZM63.5 9.8H67V8.2H63.5V9.8ZM67.8 9V7.25H66.2V9H67.8ZM67 8.05H68.75V6.45H67V8.05ZM69.55 7.25V3.75H67.95V7.25H69.55ZM68.75 2.95H63.5V4.55H68.75V2.95ZM62.7 3.75V9H64.3V3.75H62.7ZM88 14.25H87.2V15.05H88V14.25ZM88 2V1.2H87.2V2H88ZM96.75 2H97.55V1.2H96.75V2ZM96.75 3.75H95.95V4.55H96.75V3.75ZM98.5 3.75H99.3V2.95H98.5V3.75ZM98.5 5.5H97.7V6.3H98.5V5.5ZM100.25 5.5H101.05V4.7H100.25V5.5ZM100.25 10.75V11.55H101.05V10.75H100.25ZM98.5 10.75V9.95H97.7V10.75H98.5ZM98.5 12.5V13.3H99.3V12.5H98.5ZM96.75 12.5V11.7H95.95V12.5H96.75ZM96.75 14.25V15.05H97.55V14.25H96.75ZM91.5 12.5H90.7V13.3H91.5V12.5ZM95 12.5V13.3H95.8V12.5H95ZM95 10.75V9.95H94.2V10.75H95ZM96.75 10.75V11.55H97.55V10.75H96.75ZM96.75 5.5H97.55V4.7H96.75V5.5ZM95 5.5H94.2V6.3H95V5.5ZM95 3.75H95.8V2.95H95V3.75ZM91.5 3.75V2.95H90.7V3.75H91.5ZM88.8 14.25V2H87.2V14.25H88.8ZM88 2.8H96.75V1.2H88V2.8ZM95.95 2V3.75H97.55V2H95.95ZM96.75 4.55H98.5V2.95H96.75V4.55ZM97.7 3.75V5.5H99.3V3.75H97.7ZM98.5 6.3H100.25V4.7H98.5V6.3ZM99.45 5.5V10.75H101.05V5.5H99.45ZM100.25 9.95H98.5V11.55H100.25V9.95ZM97.7 10.75V12.5H99.3V10.75H97.7ZM98.5 11.7H96.75V13.3H98.5V11.7ZM95.95 12.5V14.25H97.55V12.5H95.95ZM96.75 13.45H88V15.05H96.75V13.45ZM91.5 13.3H95V11.7H91.5V13.3ZM95.8 12.5V10.75H94.2V12.5H95.8ZM95 11.55H96.75V9.95H95V11.55ZM97.55 10.75V5.5H95.95V10.75H97.55ZM96.75 4.7H95V6.3H96.75V4.7ZM95.8 5.5V3.75H94.2V5.5H95.8ZM95 2.95H91.5V4.55H95V2.95ZM90.7 3.75V12.5H92.3V3.75H90.7ZM102 14.25H101.2V15.05H102V14.25ZM102 5.5V4.7H101.2V5.5H102ZM103.75 5.5V6.3H104.55V5.5H103.75ZM103.75 3.75V2.95H102.95V3.75H103.75ZM105.5 3.75V4.55H106.3V3.75H105.5ZM105.5 2V1.2H104.7V2H105.5ZM110.75 2H111.55V1.2H110.75V2ZM110.75 3.75H109.95V4.55H110.75V3.75ZM112.5 3.75H113.3V2.95H112.5V3.75ZM112.5 5.5H111.7V6.3H112.5V5.5ZM114.25 5.5H115.05V4.7H114.25V5.5ZM114.25 14.25V15.05H115.05V14.25H114.25ZM110.75 14.25H109.95V15.05H110.75V14.25ZM110.75 10.75H111.55V9.95H110.75V10.75ZM105.5 10.75V9.95H104.7V10.75H105.5ZM105.5 14.25V15.05H106.3V14.25H105.5ZM105.5 9H104.7V9.8H105.5V9ZM110.75 9V9.8H111.55V9H110.75ZM110.75 5.5H111.55V4.7H110.75V5.5ZM109 5.5H108.2V6.3H109V5.5ZM109 3.75H109.8V2.95H109V3.75ZM107.25 3.75V2.95H106.45V3.75H107.25ZM107.25 5.5V6.3H108.05V5.5H107.25ZM105.5 5.5V4.7H104.7V5.5H105.5ZM102.8 14.25V5.5H101.2V14.25H102.8ZM102 6.3H103.75V4.7H102V6.3ZM104.55 5.5V3.75H102.95V5.5H104.55ZM103.75 4.55H105.5V2.95H103.75V4.55ZM106.3 3.75V2H104.7V3.75H106.3ZM105.5 2.8H110.75V1.2H105.5V2.8ZM109.95 2V3.75H111.55V2H109.95ZM110.75 4.55H112.5V2.95H110.75V4.55ZM111.7 3.75V5.5H113.3V3.75H111.7ZM112.5 6.3H114.25V4.7H112.5V6.3ZM113.45 5.5V14.25H115.05V5.5H113.45ZM114.25 13.45H110.75V15.05H114.25V13.45ZM111.55 14.25V10.75H109.95V14.25H111.55ZM110.75 9.95H105.5V11.55H110.75V9.95ZM104.7 10.75V14.25H106.3V10.75H104.7ZM105.5 13.45H102V15.05H105.5V13.45ZM105.5 9.8H110.75V8.2H105.5V9.8ZM111.55 9V5.5H109.95V9H111.55ZM110.75 4.7H109V6.3H110.75V4.7ZM109.8 5.5V3.75H108.2V5.5H109.8ZM109 2.95H107.25V4.55H109V2.95ZM106.45 3.75V5.5H108.05V3.75H106.45ZM107.25 4.7H105.5V6.3H107.25V4.7ZM104.7 5.5V9H106.3V5.5H104.7ZM121.25 14.25H120.45V15.05H121.25V14.25ZM121.25 3.75H122.05V2.95H121.25V3.75ZM117.75 3.75H116.95V4.55H117.75V3.75ZM117.75 2V1.2H116.95V2H117.75ZM128.25 2H129.05V1.2H128.25V2ZM128.25 3.75V4.55H129.05V3.75H128.25ZM124.75 3.75V2.95H123.95V3.75H124.75ZM124.75 14.25V15.05H125.55V14.25H124.75ZM122.05 14.25V3.75H120.45V14.25H122.05ZM121.25 2.95H117.75V4.55H121.25V2.95ZM118.55 3.75V2H116.95V3.75H118.55ZM117.75 2.8H128.25V1.2H117.75V2.8ZM127.45 2V3.75H129.05V2H127.45ZM128.25 2.95H124.75V4.55H128.25V2.95ZM123.95 3.75V14.25H125.55V3.75H123.95ZM124.75 13.45H121.25V15.05H124.75V13.45ZM130 14.25H129.2V15.05H130V14.25ZM130 5.5V4.7H129.2V5.5H130ZM131.75 5.5V6.3H132.55V5.5H131.75ZM131.75 3.75V2.95H130.95V3.75H131.75ZM133.5 3.75V4.55H134.3V3.75H133.5ZM133.5 2V1.2H132.7V2H133.5ZM138.75 2H139.55V1.2H138.75V2ZM138.75 3.75H137.95V4.55H138.75V3.75ZM140.5 3.75H141.3V2.95H140.5V3.75ZM140.5 5.5H139.7V6.3H140.5V5.5ZM142.25 5.5H143.05V4.7H142.25V5.5ZM142.25 14.25V15.05H143.05V14.25H142.25ZM138.75 14.25H137.95V15.05H138.75V14.25ZM138.75 10.75H139.55V9.95H138.75V10.75ZM133.5 10.75V9.95H132.7V10.75H133.5ZM133.5 14.25V15.05H134.3V14.25H133.5ZM133.5 9H132.7V9.8H133.5V9ZM138.75 9V9.8H139.55V9H138.75ZM138.75 5.5H139.55V4.7H138.75V5.5ZM137 5.5H136.2V6.3H137V5.5ZM137 3.75H137.8V2.95H137V3.75ZM135.25 3.75V2.95H134.45V3.75H135.25ZM135.25 5.5V6.3H136.05V5.5H135.25ZM133.5 5.5V4.7H132.7V5.5H133.5ZM130.8 14.25V5.5H129.2V14.25H130.8ZM130 6.3H131.75V4.7H130V6.3ZM132.55 5.5V3.75H130.95V5.5H132.55ZM131.75 4.55H133.5V2.95H131.75V4.55ZM134.3 3.75V2H132.7V3.75H134.3ZM133.5 2.8H138.75V1.2H133.5V2.8ZM137.95 2V3.75H139.55V2H137.95ZM138.75 4.55H140.5V2.95H138.75V4.55ZM139.7 3.75V5.5H141.3V3.75H139.7ZM140.5 6.3H142.25V4.7H140.5V6.3ZM141.45 5.5V14.25H143.05V5.5H141.45ZM142.25 13.45H138.75V15.05H142.25V13.45ZM139.55 14.25V10.75H137.95V14.25H139.55ZM138.75 9.95H133.5V11.55H138.75V9.95ZM132.7 10.75V14.25H134.3V10.75H132.7ZM133.5 13.45H130V15.05H133.5V13.45ZM133.5 9.8H138.75V8.2H133.5V9.8ZM139.55 9V5.5H137.95V9H139.55ZM138.75 4.7H137V6.3H138.75V4.7ZM137.8 5.5V3.75H136.2V5.5H137.8ZM137 2.95H135.25V4.55H137V2.95ZM134.45 3.75V5.5H136.05V3.75H134.45ZM135.25 4.7H133.5V6.3H135.25V4.7ZM132.7 5.5V9H134.3V5.5H132.7ZM145.75 16H144.95V16.8H145.75V16ZM145.75 14.25V13.45H144.95V14.25H145.75ZM147.5 14.25V15.05H148.3V14.25H147.5ZM147.5 10.75V9.95H146.7V10.75H147.5ZM151 10.75H151.8V9.95H151V10.75ZM151 14.25V15.05H151.8V14.25H151ZM149.25 14.25V13.45H148.45V14.25H149.25ZM149.25 16V16.8H150.05V16H149.25ZM146.55 16V14.25H144.95V16H146.55ZM145.75 15.05H147.5V13.45H145.75V15.05ZM148.3 14.25V10.75H146.7V14.25H148.3ZM147.5 11.55H151V9.95H147.5V11.55ZM150.2 10.75V14.25H151.8V10.75H150.2ZM151 13.45H149.25V15.05H151V13.45ZM148.45 14.25V16H150.05V14.25H148.45ZM149.25 15.2H145.75V16.8H149.25V15.2ZM173.75 14.25H172.95V15.05H173.75V14.25ZM173.75 12.5H174.55V11.7H173.75V12.5ZM172 12.5H171.2V13.3H172V12.5ZM172 3.75V2.95H171.2V3.75H172ZM173.75 3.75V4.55H174.55V3.75H173.75ZM173.75 2V1.2H172.95V2H173.75ZM182.5 2H183.3V1.2H182.5V2ZM182.5 3.75H181.7V4.55H182.5V3.75ZM184.25 3.75H185.05V2.95H184.25V3.75ZM184.25 12.5V13.3H185.05V12.5H184.25ZM182.5 12.5V11.7H181.7V12.5H182.5ZM182.5 14.25V15.05H183.3V14.25H182.5ZM175.5 12.5H174.7V13.3H175.5V12.5ZM180.75 12.5V13.3H181.55V12.5H180.75ZM180.75 3.75H181.55V2.95H180.75V3.75ZM175.5 3.75V2.95H174.7V3.75H175.5ZM174.55 14.25V12.5H172.95V14.25H174.55ZM173.75 11.7H172V13.3H173.75V11.7ZM172.8 12.5V3.75H171.2V12.5H172.8ZM172 4.55H173.75V2.95H172V4.55ZM174.55 3.75V2H172.95V3.75H174.55ZM173.75 2.8H182.5V1.2H173.75V2.8ZM181.7 2V3.75H183.3V2H181.7ZM182.5 4.55H184.25V2.95H182.5V4.55ZM183.45 3.75V12.5H185.05V3.75H183.45ZM184.25 11.7H182.5V13.3H184.25V11.7ZM181.7 12.5V14.25H183.3V12.5H181.7ZM182.5 13.45H173.75V15.05H182.5V13.45ZM175.5 13.3H180.75V11.7H175.5V13.3ZM181.55 12.5V3.75H179.95V12.5H181.55ZM180.75 2.95H175.5V4.55H180.75V2.95ZM174.7 3.75V12.5H176.3V3.75H174.7ZM187.75 14.25H186.95V15.05H187.75V14.25ZM187.75 12.5H188.55V11.7H187.75V12.5ZM186 12.5H185.2V13.3H186V12.5ZM186 2V1.2H185.2V2H186ZM189.5 2H190.3V1.2H189.5V2ZM189.5 12.5H188.7V13.3H189.5V12.5ZM194.75 12.5V13.3H195.55V12.5H194.75ZM194.75 2V1.2H193.95V2H194.75ZM198.25 2H199.05V1.2H198.25V2ZM198.25 12.5V13.3H199.05V12.5H198.25ZM196.5 12.5V11.7H195.7V12.5H196.5ZM196.5 14.25V15.05H197.3V14.25H196.5ZM188.55 14.25V12.5H186.95V14.25H188.55ZM187.75 11.7H186V13.3H187.75V11.7ZM186.8 12.5V2H185.2V12.5H186.8ZM186 2.8H189.5V1.2H186V2.8ZM188.7 2V12.5H190.3V2H188.7ZM189.5 13.3H194.75V11.7H189.5V13.3ZM195.55 12.5V2H193.95V12.5H195.55ZM194.75 2.8H198.25V1.2H194.75V2.8ZM197.45 2V12.5H199.05V2H197.45ZM198.25 11.7H196.5V13.3H198.25V11.7ZM195.7 12.5V14.25H197.3V12.5H195.7ZM196.5 13.45H187.75V15.05H196.5V13.45ZM200 14.25H199.2V15.05H200V14.25ZM200 2V1.2H199.2V2H200ZM210.5 2H211.3V1.2H210.5V2ZM210.5 3.75H209.7V4.55H210.5V3.75ZM212.25 3.75H213.05V2.95H212.25V3.75ZM212.25 9V9.8H213.05V9H212.25ZM208.75 9V8.2H207.95V9H208.75ZM208.75 10.75H207.95V11.55H208.75V10.75ZM210.5 10.75H211.3V9.95H210.5V10.75ZM210.5 12.5H209.7V13.3H210.5V12.5ZM212.25 12.5H213.05V11.7H212.25V12.5ZM212.25 14.25V15.05H213.05V14.25H212.25ZM207 14.25H206.2V15.05H207V14.25ZM207 12.5H207.8V11.7H207V12.5ZM205.25 12.5H204.45V13.3H205.25V12.5ZM205.25 10.75H206.05V9.95H205.25V10.75ZM203.5 10.75V9.95H202.7V10.75H203.5ZM203.5 14.25V15.05H204.3V14.25H203.5ZM203.5 9H202.7V9.8H203.5V9ZM207 9V9.8H207.8V9H207ZM207 7.25V6.45H206.2V7.25H207ZM208.75 7.25V8.05H209.55V7.25H208.75ZM208.75 3.75H209.55V2.95H208.75V3.75ZM203.5 3.75V2.95H202.7V3.75H203.5ZM200.8 14.25V2H199.2V14.25H200.8ZM200 2.8H210.5V1.2H200V2.8ZM209.7 2V3.75H211.3V2H209.7ZM210.5 4.55H212.25V2.95H210.5V4.55ZM211.45 3.75V9H213.05V3.75H211.45ZM212.25 8.2H208.75V9.8H212.25V8.2ZM207.95 9V10.75H209.55V9H207.95ZM208.75 11.55H210.5V9.95H208.75V11.55ZM209.7 10.75V12.5H211.3V10.75H209.7ZM210.5 13.3H212.25V11.7H210.5V13.3ZM211.45 12.5V14.25H213.05V12.5H211.45ZM212.25 13.45H207V15.05H212.25V13.45ZM207.8 14.25V12.5H206.2V14.25H207.8ZM207 11.7H205.25V13.3H207V11.7ZM206.05 12.5V10.75H204.45V12.5H206.05ZM205.25 9.95H203.5V11.55H205.25V9.95ZM202.7 10.75V14.25H204.3V10.75H202.7ZM203.5 13.45H200V15.05H203.5V13.45ZM203.5 9.8H207V8.2H203.5V9.8ZM207.8 9V7.25H206.2V9H207.8ZM207 8.05H208.75V6.45H207V8.05ZM209.55 7.25V3.75H207.95V7.25H209.55ZM208.75 2.95H203.5V4.55H208.75V2.95ZM202.7 3.75V9H204.3V3.75H202.7ZM228 14.25H227.2V15.05H228V14.25ZM228 2V1.2H227.2V2H228ZM238.5 2H239.3V1.2H238.5V2ZM238.5 3.75H237.7V4.55H238.5V3.75ZM240.25 3.75H241.05V2.95H240.25V3.75ZM240.25 9V9.8H241.05V9H240.25ZM238.5 9V8.2H237.7V9H238.5ZM238.5 10.75V11.55H239.3V10.75H238.5ZM231.5 10.75V9.95H230.7V10.75H231.5ZM231.5 14.25V15.05H232.3V14.25H231.5ZM231.5 9H230.7V9.8H231.5V9ZM236.75 9V9.8H237.55V9H236.75ZM236.75 3.75H237.55V2.95H236.75V3.75ZM231.5 3.75V2.95H230.7V3.75H231.5ZM228.8 14.25V2H227.2V14.25H228.8ZM228 2.8H238.5V1.2H228V2.8ZM237.7 2V3.75H239.3V2H237.7ZM238.5 4.55H240.25V2.95H238.5V4.55ZM239.45 3.75V9H241.05V3.75H239.45ZM240.25 8.2H238.5V9.8H240.25V8.2ZM237.7 9V10.75H239.3V9H237.7ZM238.5 9.95H231.5V11.55H238.5V9.95ZM230.7 10.75V14.25H232.3V10.75H230.7ZM231.5 13.45H228V15.05H231.5V13.45ZM231.5 9.8H236.75V8.2H231.5V9.8ZM237.55 9V3.75H235.95V9H237.55ZM236.75 2.95H231.5V4.55H236.75V2.95ZM230.7 3.75V9H232.3V3.75H230.7ZM243.75 14.25H242.95V15.05H243.75V14.25ZM243.75 12.5H244.55V11.7H243.75V12.5ZM242 12.5H241.2V13.3H242V12.5ZM242 3.75V2.95H241.2V3.75H242ZM243.75 3.75V4.55H244.55V3.75H243.75ZM243.75 2V1.2H242.95V2H243.75ZM252.5 2H253.3V1.2H252.5V2ZM252.5 3.75H251.7V4.55H252.5V3.75ZM254.25 3.75H255.05V2.95H254.25V3.75ZM254.25 12.5V13.3H255.05V12.5H254.25ZM252.5 12.5V11.7H251.7V12.5H252.5ZM252.5 14.25V15.05H253.3V14.25H252.5ZM245.5 12.5H244.7V13.3H245.5V12.5ZM250.75 12.5V13.3H251.55V12.5H250.75ZM250.75 3.75H251.55V2.95H250.75V3.75ZM245.5 3.75V2.95H244.7V3.75H245.5ZM244.55 14.25V12.5H242.95V14.25H244.55ZM243.75 11.7H242V13.3H243.75V11.7ZM242.8 12.5V3.75H241.2V12.5H242.8ZM242 4.55H243.75V2.95H242V4.55ZM244.55 3.75V2H242.95V3.75H244.55ZM243.75 2.8H252.5V1.2H243.75V2.8ZM251.7 2V3.75H253.3V2H251.7ZM252.5 4.55H254.25V2.95H252.5V4.55ZM253.45 3.75V12.5H255.05V3.75H253.45ZM254.25 11.7H252.5V13.3H254.25V11.7ZM251.7 12.5V14.25H253.3V12.5H251.7ZM252.5 13.45H243.75V15.05H252.5V13.45ZM245.5 13.3H250.75V11.7H245.5V13.3ZM251.55 12.5V3.75H249.95V12.5H251.55ZM250.75 2.95H245.5V4.55H250.75V2.95ZM244.7 3.75V12.5H246.3V3.75H244.7ZM257.75 14.25H256.95V15.05H257.75V14.25ZM257.75 12.5H258.55V11.7H257.75V12.5ZM256 12.5H255.2V13.3H256V12.5ZM256 2V1.2H255.2V2H256ZM259.5 2H260.3V1.2H259.5V2ZM259.5 9H258.7V9.8H259.5V9ZM261.25 9V9.8H262.05V9H261.25ZM261.25 2V1.2H260.45V2H261.25ZM263 2H263.8V1.2H263V2ZM263 9H262.2V9.8H263V9ZM264.75 9V9.8H265.55V9H264.75ZM264.75 2V1.2H263.95V2H264.75ZM268.25 2H269.05V1.2H268.25V2ZM268.25 12.5V13.3H269.05V12.5H268.25ZM266.5 12.5V11.7H265.7V12.5H266.5ZM266.5 14.25V15.05H267.3V14.25H266.5ZM264.75 14.25H263.95V15.05H264.75V14.25ZM264.75 12.5H265.55V11.7H264.75V12.5ZM263 12.5H262.2V13.3H263V12.5ZM263 10.75H263.8V9.95H263V10.75ZM261.25 10.75V9.95H260.45V10.75H261.25ZM261.25 12.5V13.3H262.05V12.5H261.25ZM259.5 12.5V11.7H258.7V12.5H259.5ZM259.5 14.25V15.05H260.3V14.25H259.5ZM258.55 14.25V12.5H256.95V14.25H258.55ZM257.75 11.7H256V13.3H257.75V11.7ZM256.8 12.5V2H255.2V12.5H256.8ZM256 2.8H259.5V1.2H256V2.8ZM258.7 2V9H260.3V2H258.7ZM259.5 9.8H261.25V8.2H259.5V9.8ZM262.05 9V2H260.45V9H262.05ZM261.25 2.8H263V1.2H261.25V2.8ZM262.2 2V9H263.8V2H262.2ZM263 9.8H264.75V8.2H263V9.8ZM265.55 9V2H263.95V9H265.55ZM264.75 2.8H268.25V1.2H264.75V2.8ZM267.45 2V12.5H269.05V2H267.45ZM268.25 11.7H266.5V13.3H268.25V11.7ZM265.7 12.5V14.25H267.3V12.5H265.7ZM266.5 13.45H264.75V15.05H266.5V13.45ZM265.55 14.25V12.5H263.95V14.25H265.55ZM264.75 11.7H263V13.3H264.75V11.7ZM263.8 12.5V10.75H262.2V12.5H263.8ZM263 9.95H261.25V11.55H263V9.95ZM260.45 10.75V12.5H262.05V10.75H260.45ZM261.25 11.7H259.5V13.3H261.25V11.7ZM258.7 12.5V14.25H260.3V12.5H258.7ZM259.5 13.45H257.75V15.05H259.5V13.45ZM270 14.25H269.2V15.05H270V14.25ZM270 2V1.2H269.2V2H270ZM282.25 2H283.05V1.2H282.25V2ZM282.25 3.75V4.55H283.05V3.75H282.25ZM273.5 3.75V2.95H272.7V3.75H273.5ZM273.5 7.25H272.7V8.05H273.5V7.25ZM280.5 7.25H281.3V6.45H280.5V7.25ZM280.5 9V9.8H281.3V9H280.5ZM273.5 9V8.2H272.7V9H273.5ZM273.5 12.5H272.7V13.3H273.5V12.5ZM282.25 12.5H283.05V11.7H282.25V12.5ZM282.25 14.25V15.05H283.05V14.25H282.25ZM270.8 14.25V2H269.2V14.25H270.8ZM270 2.8H282.25V1.2H270V2.8ZM281.45 2V3.75H283.05V2H281.45ZM282.25 2.95H273.5V4.55H282.25V2.95ZM272.7 3.75V7.25H274.3V3.75H272.7ZM273.5 8.05H280.5V6.45H273.5V8.05ZM279.7 7.25V9H281.3V7.25H279.7ZM280.5 8.2H273.5V9.8H280.5V8.2ZM272.7 9V12.5H274.3V9H272.7ZM273.5 13.3H282.25V11.7H273.5V13.3ZM281.45 12.5V14.25H283.05V12.5H281.45ZM282.25 13.45H270V15.05H282.25V13.45ZM284 14.25H283.2V15.05H284V14.25ZM284 2V1.2H283.2V2H284ZM294.5 2H295.3V1.2H294.5V2ZM294.5 3.75H293.7V4.55H294.5V3.75ZM296.25 3.75H297.05V2.95H296.25V3.75ZM296.25 9V9.8H297.05V9H296.25ZM292.75 9V8.2H291.95V9H292.75ZM292.75 10.75H291.95V11.55H292.75V10.75ZM294.5 10.75H295.3V9.95H294.5V10.75ZM294.5 12.5H293.7V13.3H294.5V12.5ZM296.25 12.5H297.05V11.7H296.25V12.5ZM296.25 14.25V15.05H297.05V14.25H296.25ZM291 14.25H290.2V15.05H291V14.25ZM291 12.5H291.8V11.7H291V12.5ZM289.25 12.5H288.45V13.3H289.25V12.5ZM289.25 10.75H290.05V9.95H289.25V10.75ZM287.5 10.75V9.95H286.7V10.75H287.5ZM287.5 14.25V15.05H288.3V14.25H287.5ZM287.5 9H286.7V9.8H287.5V9ZM291 9V9.8H291.8V9H291ZM291 7.25V6.45H290.2V7.25H291ZM292.75 7.25V8.05H293.55V7.25H292.75ZM292.75 3.75H293.55V2.95H292.75V3.75ZM287.5 3.75V2.95H286.7V3.75H287.5ZM284.8 14.25V2H283.2V14.25H284.8ZM284 2.8H294.5V1.2H284V2.8ZM293.7 2V3.75H295.3V2H293.7ZM294.5 4.55H296.25V2.95H294.5V4.55ZM295.45 3.75V9H297.05V3.75H295.45ZM296.25 8.2H292.75V9.8H296.25V8.2ZM291.95 9V10.75H293.55V9H291.95ZM292.75 11.55H294.5V9.95H292.75V11.55ZM293.7 10.75V12.5H295.3V10.75H293.7ZM294.5 13.3H296.25V11.7H294.5V13.3ZM295.45 12.5V14.25H297.05V12.5H295.45ZM296.25 13.45H291V15.05H296.25V13.45ZM291.8 14.25V12.5H290.2V14.25H291.8ZM291 11.7H289.25V13.3H291V11.7ZM290.05 12.5V10.75H288.45V12.5H290.05ZM289.25 9.95H287.5V11.55H289.25V9.95ZM286.7 10.75V14.25H288.3V10.75H286.7ZM287.5 13.45H284V15.05H287.5V13.45ZM287.5 9.8H291V8.2H287.5V9.8ZM291.8 9V7.25H290.2V9H291.8ZM291 8.05H292.75V6.45H291V8.05ZM293.55 7.25V3.75H291.95V7.25H293.55ZM292.75 2.95H287.5V4.55H292.75V2.95ZM286.7 3.75V9H288.3V3.75H286.7ZM299.75 16H298.95V16.8H299.75V16ZM299.75 14.25V13.45H298.95V14.25H299.75ZM301.5 14.25V15.05H302.3V14.25H301.5ZM301.5 10.75V9.95H300.7V10.75H301.5ZM305 10.75H305.8V9.95H305V10.75ZM305 14.25V15.05H305.8V14.25H305ZM303.25 14.25V13.45H302.45V14.25H303.25ZM303.25 16V16.8H304.05V16H303.25ZM300.55 16V14.25H298.95V16H300.55ZM299.75 15.05H301.5V13.45H299.75V15.05ZM302.3 14.25V10.75H300.7V14.25H302.3ZM301.5 11.55H305V9.95H301.5V11.55ZM304.2 10.75V14.25H305.8V10.75H304.2ZM305 13.45H303.25V15.05H305V13.45ZM302.45 14.25V16H304.05V14.25H302.45ZM303.25 15.2H299.75V16.8H303.25V15.2ZM327.75 14.25H326.95V15.05H327.75V14.25ZM327.75 12.5H328.55V11.7H327.75V12.5ZM326 12.5H325.2V13.3H326V12.5ZM326 3.75V2.95H325.2V3.75H326ZM327.75 3.75V4.55H328.55V3.75H327.75ZM327.75 2V1.2H326.95V2H327.75ZM336.5 2H337.3V1.2H336.5V2ZM336.5 3.75H335.7V4.55H336.5V3.75ZM338.25 3.75H339.05V2.95H338.25V3.75ZM338.25 12.5V13.3H339.05V12.5H338.25ZM336.5 12.5V11.7H335.7V12.5H336.5ZM336.5 14.25V15.05H337.3V14.25H336.5ZM329.5 12.5H328.7V13.3H329.5V12.5ZM334.75 12.5V13.3H335.55V12.5H334.75ZM334.75 3.75H335.55V2.95H334.75V3.75ZM329.5 3.75V2.95H328.7V3.75H329.5ZM328.55 14.25V12.5H326.95V14.25H328.55ZM327.75 11.7H326V13.3H327.75V11.7ZM326.8 12.5V3.75H325.2V12.5H326.8ZM326 4.55H327.75V2.95H326V4.55ZM328.55 3.75V2H326.95V3.75H328.55ZM327.75 2.8H336.5V1.2H327.75V2.8ZM335.7 2V3.75H337.3V2H335.7ZM336.5 4.55H338.25V2.95H336.5V4.55ZM337.45 3.75V12.5H339.05V3.75H337.45ZM338.25 11.7H336.5V13.3H338.25V11.7ZM335.7 12.5V14.25H337.3V12.5H335.7ZM336.5 13.45H327.75V15.05H336.5V13.45ZM329.5 13.3H334.75V11.7H329.5V13.3ZM335.55 12.5V3.75H333.95V12.5H335.55ZM334.75 2.95H329.5V4.55H334.75V2.95ZM328.7 3.75V12.5H330.3V3.75H328.7ZM341.75 14.25H340.95V15.05H341.75V14.25ZM341.75 12.5H342.55V11.7H341.75V12.5ZM340 12.5H339.2V13.3H340V12.5ZM340 2V1.2H339.2V2H340ZM343.5 2H344.3V1.2H343.5V2ZM343.5 12.5H342.7V13.3H343.5V12.5ZM348.75 12.5V13.3H349.55V12.5H348.75ZM348.75 2V1.2H347.95V2H348.75ZM352.25 2H353.05V1.2H352.25V2ZM352.25 12.5V13.3H353.05V12.5H352.25ZM350.5 12.5V11.7H349.7V12.5H350.5ZM350.5 14.25V15.05H351.3V14.25H350.5ZM342.55 14.25V12.5H340.95V14.25H342.55ZM341.75 11.7H340V13.3H341.75V11.7ZM340.8 12.5V2H339.2V12.5H340.8ZM340 2.8H343.5V1.2H340V2.8ZM342.7 2V12.5H344.3V2H342.7ZM343.5 13.3H348.75V11.7H343.5V13.3ZM349.55 12.5V2H347.95V12.5H349.55ZM348.75 2.8H352.25V1.2H348.75V2.8ZM351.45 2V12.5H353.05V2H351.45ZM352.25 11.7H350.5V13.3H352.25V11.7ZM349.7 12.5V14.25H351.3V12.5H349.7ZM350.5 13.45H341.75V15.05H350.5V13.45ZM354 14.25H353.2V15.05H354V14.25ZM354 2V1.2H353.2V2H354ZM364.5 2H365.3V1.2H364.5V2ZM364.5 3.75H363.7V4.55H364.5V3.75ZM366.25 3.75H367.05V2.95H366.25V3.75ZM366.25 9V9.8H367.05V9H366.25ZM362.75 9V8.2H361.95V9H362.75ZM362.75 10.75H361.95V11.55H362.75V10.75ZM364.5 10.75H365.3V9.95H364.5V10.75ZM364.5 12.5H363.7V13.3H364.5V12.5ZM366.25 12.5H367.05V11.7H366.25V12.5ZM366.25 14.25V15.05H367.05V14.25H366.25ZM361 14.25H360.2V15.05H361V14.25ZM361 12.5H361.8V11.7H361V12.5ZM359.25 12.5H358.45V13.3H359.25V12.5ZM359.25 10.75H360.05V9.95H359.25V10.75ZM357.5 10.75V9.95H356.7V10.75H357.5ZM357.5 14.25V15.05H358.3V14.25H357.5ZM357.5 9H356.7V9.8H357.5V9ZM361 9V9.8H361.8V9H361ZM361 7.25V6.45H360.2V7.25H361ZM362.75 7.25V8.05H363.55V7.25H362.75ZM362.75 3.75H363.55V2.95H362.75V3.75ZM357.5 3.75V2.95H356.7V3.75H357.5ZM354.8 14.25V2H353.2V14.25H354.8ZM354 2.8H364.5V1.2H354V2.8ZM363.7 2V3.75H365.3V2H363.7ZM364.5 4.55H366.25V2.95H364.5V4.55ZM365.45 3.75V9H367.05V3.75H365.45ZM366.25 8.2H362.75V9.8H366.25V8.2ZM361.95 9V10.75H363.55V9H361.95ZM362.75 11.55H364.5V9.95H362.75V11.55ZM363.7 10.75V12.5H365.3V10.75H363.7ZM364.5 13.3H366.25V11.7H364.5V13.3ZM365.45 12.5V14.25H367.05V12.5H365.45ZM366.25 13.45H361V15.05H366.25V13.45ZM361.8 14.25V12.5H360.2V14.25H361.8ZM361 11.7H359.25V13.3H361V11.7ZM360.05 12.5V10.75H358.45V12.5H360.05ZM359.25 9.95H357.5V11.55H359.25V9.95ZM356.7 10.75V14.25H358.3V10.75H356.7ZM357.5 13.45H354V15.05H357.5V13.45ZM357.5 9.8H361V8.2H357.5V9.8ZM361.8 9V7.25H360.2V9H361.8ZM361 8.05H362.75V6.45H361V8.05ZM363.55 7.25V3.75H361.95V7.25H363.55ZM362.75 2.95H357.5V4.55H362.75V2.95ZM356.7 3.75V9H358.3V3.75H356.7ZM382 14.25H381.2V15.05H382V14.25ZM382 2V1.2H381.2V2H382ZM394.25 2H395.05V1.2H394.25V2ZM394.25 3.75V4.55H395.05V3.75H394.25ZM385.5 3.75V2.95H384.7V3.75H385.5ZM385.5 7.25H384.7V8.05H385.5V7.25ZM392.5 7.25H393.3V6.45H392.5V7.25ZM392.5 9V9.8H393.3V9H392.5ZM385.5 9V8.2H384.7V9H385.5ZM385.5 14.25V15.05H386.3V14.25H385.5ZM382.8 14.25V2H381.2V14.25H382.8ZM382 2.8H394.25V1.2H382V2.8ZM393.45 2V3.75H395.05V2H393.45ZM394.25 2.95H385.5V4.55H394.25V2.95ZM384.7 3.75V7.25H386.3V3.75H384.7ZM385.5 8.05H392.5V6.45H385.5V8.05ZM391.7 7.25V9H393.3V7.25H391.7ZM392.5 8.2H385.5V9.8H392.5V8.2ZM384.7 9V14.25H386.3V9H384.7ZM385.5 13.45H382V15.05H385.5V13.45ZM397.75 14.25H396.95V15.05H397.75V14.25ZM397.75 12.5H398.55V11.7H397.75V12.5ZM396 12.5H395.2V13.3H396V12.5ZM396 2V1.2H395.2V2H396ZM399.5 2H400.3V1.2H399.5V2ZM399.5 12.5H398.7V13.3H399.5V12.5ZM404.75 12.5V13.3H405.55V12.5H404.75ZM404.75 2V1.2H403.95V2H404.75ZM408.25 2H409.05V1.2H408.25V2ZM408.25 12.5V13.3H409.05V12.5H408.25ZM406.5 12.5V11.7H405.7V12.5H406.5ZM406.5 14.25V15.05H407.3V14.25H406.5ZM398.55 14.25V12.5H396.95V14.25H398.55ZM397.75 11.7H396V13.3H397.75V11.7ZM396.8 12.5V2H395.2V12.5H396.8ZM396 2.8H399.5V1.2H396V2.8ZM398.7 2V12.5H400.3V2H398.7ZM399.5 13.3H404.75V11.7H399.5V13.3ZM405.55 12.5V2H403.95V12.5H405.55ZM404.75 2.8H408.25V1.2H404.75V2.8ZM407.45 2V12.5H409.05V2H407.45ZM408.25 11.7H406.5V13.3H408.25V11.7ZM405.7 12.5V14.25H407.3V12.5H405.7ZM406.5 13.45H397.75V15.05H406.5V13.45ZM415.25 14.25H414.45V15.05H415.25V14.25ZM415.25 3.75H416.05V2.95H415.25V3.75ZM411.75 3.75H410.95V4.55H411.75V3.75ZM411.75 2V1.2H410.95V2H411.75ZM422.25 2H423.05V1.2H422.25V2ZM422.25 3.75V4.55H423.05V3.75H422.25ZM418.75 3.75V2.95H417.95V3.75H418.75ZM418.75 14.25V15.05H419.55V14.25H418.75ZM416.05 14.25V3.75H414.45V14.25H416.05ZM415.25 2.95H411.75V4.55H415.25V2.95ZM412.55 3.75V2H410.95V3.75H412.55ZM411.75 2.8H422.25V1.2H411.75V2.8ZM421.45 2V3.75H423.05V2H421.45ZM422.25 2.95H418.75V4.55H422.25V2.95ZM417.95 3.75V14.25H419.55V3.75H417.95ZM418.75 13.45H415.25V15.05H418.75V13.45ZM425.75 14.25H424.95V15.05H425.75V14.25ZM425.75 12.5H426.55V11.7H425.75V12.5ZM424 12.5H423.2V13.3H424V12.5ZM424 2V1.2H423.2V2H424ZM427.5 2H428.3V1.2H427.5V2ZM427.5 12.5H426.7V13.3H427.5V12.5ZM432.75 12.5V13.3H433.55V12.5H432.75ZM432.75 2V1.2H431.95V2H432.75ZM436.25 2H437.05V1.2H436.25V2ZM436.25 12.5V13.3H437.05V12.5H436.25ZM434.5 12.5V11.7H433.7V12.5H434.5ZM434.5 14.25V15.05H435.3V14.25H434.5ZM426.55 14.25V12.5H424.95V14.25H426.55ZM425.75 11.7H424V13.3H425.75V11.7ZM424.8 12.5V2H423.2V12.5H424.8ZM424 2.8H427.5V1.2H424V2.8ZM426.7 2V12.5H428.3V2H426.7ZM427.5 13.3H432.75V11.7H427.5V13.3ZM433.55 12.5V2H431.95V12.5H433.55ZM432.75 2.8H436.25V1.2H432.75V2.8ZM435.45 2V12.5H437.05V2H435.45ZM436.25 11.7H434.5V13.3H436.25V11.7ZM433.7 12.5V14.25H435.3V12.5H433.7ZM434.5 13.45H425.75V15.05H434.5V13.45ZM438 14.25H437.2V15.05H438V14.25ZM438 2V1.2H437.2V2H438ZM448.5 2H449.3V1.2H448.5V2ZM448.5 3.75H447.7V4.55H448.5V3.75ZM450.25 3.75H451.05V2.95H450.25V3.75ZM450.25 9V9.8H451.05V9H450.25ZM446.75 9V8.2H445.95V9H446.75ZM446.75 10.75H445.95V11.55H446.75V10.75ZM448.5 10.75H449.3V9.95H448.5V10.75ZM448.5 12.5H447.7V13.3H448.5V12.5ZM450.25 12.5H451.05V11.7H450.25V12.5ZM450.25 14.25V15.05H451.05V14.25H450.25ZM445 14.25H444.2V15.05H445V14.25ZM445 12.5H445.8V11.7H445V12.5ZM443.25 12.5H442.45V13.3H443.25V12.5ZM443.25 10.75H444.05V9.95H443.25V10.75ZM441.5 10.75V9.95H440.7V10.75H441.5ZM441.5 14.25V15.05H442.3V14.25H441.5ZM441.5 9H440.7V9.8H441.5V9ZM445 9V9.8H445.8V9H445ZM445 7.25V6.45H444.2V7.25H445ZM446.75 7.25V8.05H447.55V7.25H446.75ZM446.75 3.75H447.55V2.95H446.75V3.75ZM441.5 3.75V2.95H440.7V3.75H441.5ZM438.8 14.25V2H437.2V14.25H438.8ZM438 2.8H448.5V1.2H438V2.8ZM447.7 2V3.75H449.3V2H447.7ZM448.5 4.55H450.25V2.95H448.5V4.55ZM449.45 3.75V9H451.05V3.75H449.45ZM450.25 8.2H446.75V9.8H450.25V8.2ZM445.95 9V10.75H447.55V9H445.95ZM446.75 11.55H448.5V9.95H446.75V11.55ZM447.7 10.75V12.5H449.3V10.75H447.7ZM448.5 13.3H450.25V11.7H448.5V13.3ZM449.45 12.5V14.25H451.05V12.5H449.45ZM450.25 13.45H445V15.05H450.25V13.45ZM445.8 14.25V12.5H444.2V14.25H445.8ZM445 11.7H443.25V13.3H445V11.7ZM444.05 12.5V10.75H442.45V12.5H444.05ZM443.25 9.95H441.5V11.55H443.25V9.95ZM440.7 10.75V14.25H442.3V10.75H440.7ZM441.5 13.45H438V15.05H441.5V13.45ZM441.5 9.8H445V8.2H441.5V9.8ZM445.8 9V7.25H444.2V9H445.8ZM445 8.05H446.75V6.45H445V8.05ZM447.55 7.25V3.75H445.95V7.25H447.55ZM446.75 2.95H441.5V4.55H446.75V2.95ZM440.7 3.75V9H442.3V3.75H440.7ZM452 14.25H451.2V15.05H452V14.25ZM452 2V1.2H451.2V2H452ZM464.25 2H465.05V1.2H464.25V2ZM464.25 3.75V4.55H465.05V3.75H464.25ZM455.5 3.75V2.95H454.7V3.75H455.5ZM455.5 7.25H454.7V8.05H455.5V7.25ZM462.5 7.25H463.3V6.45H462.5V7.25ZM462.5 9V9.8H463.3V9H462.5ZM455.5 9V8.2H454.7V9H455.5ZM455.5 12.5H454.7V13.3H455.5V12.5ZM464.25 12.5H465.05V11.7H464.25V12.5ZM464.25 14.25V15.05H465.05V14.25H464.25ZM452.8 14.25V2H451.2V14.25H452.8ZM452 2.8H464.25V1.2H452V2.8ZM463.45 2V3.75H465.05V2H463.45ZM464.25 2.95H455.5V4.55H464.25V2.95ZM454.7 3.75V7.25H456.3V3.75H454.7ZM455.5 8.05H462.5V6.45H455.5V8.05ZM461.7 7.25V9H463.3V7.25H461.7ZM462.5 8.2H455.5V9.8H462.5V8.2ZM454.7 9V12.5H456.3V9H454.7ZM455.5 13.3H464.25V11.7H455.5V13.3ZM463.45 12.5V14.25H465.05V12.5H463.45ZM464.25 13.45H452V15.05H464.25V13.45ZM481.75 9H480.95V9.8H481.75V9ZM481.75 7.25V6.45H480.95V7.25H481.75ZM492.25 7.25H493.05V6.45H492.25V7.25ZM492.25 9V9.8H493.05V9H492.25ZM482.55 9V7.25H480.95V9H482.55ZM481.75 8.05H492.25V6.45H481.75V8.05ZM491.45 7.25V9H493.05V7.25H491.45ZM492.25 8.2H481.75V9.8H492.25V8.2Z" fill="#3B226B" mask="url(#path-4-outside-2_182_5692)"/>
</svg>
