<svg width="509" height="461" viewBox="0 0 509 461" fill="none" xmlns="http://www.w3.org/2000/svg">
<g clip-path="url(#clip0_182_5500)">
<path d="M369.5 156.5L403.5 165" stroke="#4B4E60"/>
<path d="M375 188L337 191" stroke="#4B4E60"/>
<path d="M398 135L369 157L347 165.5" stroke="#4B4E60"/>
<path d="M417.5 70.5L390 94L371.5 112.5L417.5 116.5" stroke="#4B4E60"/>
<path d="M325 129L330.5 108" stroke="#4B4E60"/>
<path d="M318.5 228.5L339 184L333 162M333 162L302.5 143L282.5 128.5L290.5 112.5M333 162L327 135" stroke="#4B4E60"/>
<circle cx="328" cy="132.001" r="8.63956" stroke="url(#paint0_linear_182_5500)" stroke-width="2.72089"/>
<circle cx="328" cy="132.001" r="8.63956" stroke="url(#paint1_linear_182_5500)" stroke-width="2.72089"/>
<circle cx="327.889" cy="131.89" r="4.75067" transform="rotate(-149.996 327.889 131.89)" stroke="url(#paint2_linear_182_5500)" stroke-width="2.72089"/>
<circle cx="327.889" cy="131.89" r="4.75067" transform="rotate(-149.996 327.889 131.89)" stroke="url(#paint3_linear_182_5500)" stroke-width="2.72089"/>
<path d="M332.047 129.589C330.703 127.26 327.772 126.472 325.515 127.775C323.258 129.078 322.474 132.01 323.818 134.339C325.163 136.668 328.094 137.455 330.351 136.152C332.608 134.85 333.392 131.918 332.047 129.589Z" stroke="url(#paint4_angular_182_5500)" stroke-opacity="0.5" stroke-width="2.72089"/>
<ellipse cx="2.13115" cy="2.19577" rx="2.13115" ry="2.19577" transform="matrix(0.86606 -0.49994 -0.49994 -0.86606 327.337 135.077)" fill="white"/>
<path d="M362 70L350 91L314.5 77.5" stroke="#4B4E60"/>
<path d="M339 184.5L358.5 137L370 113L345 88.5L324 51" stroke="#4B4E60"/>
<path d="M231.128 353.94L125.487 347.894L142.782 297.426C142.901 297.412 143.054 297.393 143.239 297.37C143.741 297.307 144.481 297.213 145.431 297.09C147.331 296.843 150.072 296.475 153.434 295.994C160.159 295.032 169.372 293.615 179.328 291.797C189.283 289.978 199.985 287.757 209.686 285.185C219.377 282.615 228.102 279.687 234.083 276.446C236.971 274.881 242.246 273.392 249.327 272.074C256.391 270.76 265.197 269.626 275.108 268.75C294.93 266.998 319.143 266.28 342.615 267.209C366.093 268.138 388.8 270.714 405.622 275.537C414.036 277.949 420.942 280.913 425.734 284.487C430.519 288.057 433.145 292.193 433.145 296.968C433.145 301.726 430.127 306.235 424.637 310.496C419.156 314.751 411.298 318.689 401.825 322.311C382.883 329.553 357.605 335.484 332.299 340.173C307 344.861 281.697 348.304 262.718 350.575C253.229 351.71 245.322 352.552 239.787 353.11C237.019 353.39 234.845 353.598 233.363 353.736C232.622 353.805 232.054 353.857 231.672 353.892C231.555 353.902 231.455 353.911 231.374 353.918C231.321 353.923 231.276 353.927 231.238 353.93L231.129 353.94L231.128 353.94Z" stroke="url(#paint5_linear_182_5500)"/>
<path opacity="0.1" d="M142.41 296.968C142.41 296.968 210.139 288.854 233.845 276.007C257.55 263.16 433.645 257.074 433.645 296.968C433.645 336.861 231.135 354.441 231.135 354.441L124.801 348.356L142.41 296.968Z" fill="black"/>
<path d="M77.8046 295.364L77.9531 295.456L78.1265 295.435L78.0677 294.939C78.1265 295.435 78.1268 295.435 78.1274 295.435L78.1301 295.435L78.141 295.434L78.1843 295.429L78.3555 295.409C78.5067 295.391 78.7311 295.364 79.0242 295.33C79.6102 295.262 80.4703 295.162 81.5666 295.037C83.7591 294.786 86.896 294.432 90.673 294.02C98.2273 293.196 108.341 292.14 118.581 291.211C128.823 290.281 139.184 289.479 147.235 289.163C151.262 289.005 154.699 288.968 157.251 289.097C158.529 289.161 159.57 289.266 160.346 289.413C160.734 289.487 161.044 289.569 161.278 289.657C161.346 289.682 161.404 289.706 161.454 289.73L147.471 330.28L-74.5 332.974V273.027C-74.3501 272.995 -74.1574 272.954 -73.9233 272.905C-73.2853 272.773 -72.3392 272.583 -71.1102 272.357C-68.6522 271.904 -65.0628 271.303 -60.5428 270.713C-51.5024 269.532 -38.7425 268.393 -23.8702 268.562C5.88161 268.899 44.0468 274.469 77.8046 295.364Z" stroke="#8C52FF"/>
<path opacity="0.1" d="M162.052 289.485L147.829 330.73L-75 333.435V272.581C-75 272.581 10.3387 252.972 78.0677 294.894C78.0677 294.894 157.988 285.428 162.052 289.485Z" fill="black"/>
<path d="M397.025 299.58L397.017 299.586L397.01 299.592C396.22 300.247 395.28 300.653 394.239 301.07C394.153 301.105 394.066 301.139 393.979 301.174C393.03 301.552 392.008 301.96 391.067 302.592C390.486 302.983 390.105 303.606 389.819 304.258C389.555 304.864 389.347 305.557 389.15 306.217C389.134 306.271 389.117 306.325 389.101 306.379C388.884 307.104 388.672 307.781 388.397 308.346C388.121 308.912 387.809 309.305 387.425 309.517C386.571 309.99 385.461 310.049 384.174 310.089C384.124 310.09 384.073 310.092 384.023 310.093C382.832 310.13 381.504 310.17 380.379 310.686C379.783 310.959 379.281 311.4 378.837 311.885C378.43 312.33 378.05 312.84 377.686 313.328C377.655 313.37 377.623 313.411 377.592 313.453C376.775 314.546 376.045 315.463 375.116 315.816C374.14 316.186 373.033 316.297 371.833 316.398C371.766 316.403 371.699 316.409 371.632 316.414C370.516 316.507 369.326 316.606 368.218 316.951C367.194 317.269 366.099 317.405 364.944 317.532C364.853 317.542 364.761 317.552 364.668 317.562C363.611 317.678 362.507 317.798 361.433 318.066C360.79 318.227 360.21 318.58 359.684 318.992C359.191 319.377 358.715 319.837 358.26 320.277L358.171 320.362C357.68 320.836 357.212 321.282 356.731 321.637C356.252 321.991 355.79 322.233 355.322 322.324C354.313 322.519 353.197 322.359 351.967 322.164C351.92 322.157 351.872 322.149 351.825 322.142C350.671 321.958 349.422 321.759 348.234 321.928C347.789 321.991 347.295 321.902 346.738 321.699C346.18 321.495 345.602 321.194 344.987 320.871L344.931 320.841C344.345 320.533 343.725 320.207 343.107 319.972C342.469 319.728 341.792 319.564 341.109 319.627C339.979 319.732 338.886 320.097 337.854 320.442C337.793 320.462 337.732 320.483 337.672 320.503C336.564 320.872 335.517 321.202 334.441 321.252C333.329 321.303 332.228 321.559 331.174 321.803C331.103 321.82 331.032 321.836 330.961 321.853C329.825 322.116 328.74 322.351 327.649 322.351C326.406 322.351 325.168 322.911 324.059 323.413L323.947 323.464C322.752 324.004 321.704 324.457 320.713 324.411C320.249 324.39 319.767 324.207 319.246 323.902C318.724 323.597 318.201 323.192 317.651 322.759L317.57 322.695C317.054 322.29 316.513 321.864 315.963 321.525C315.384 321.168 314.754 320.88 314.08 320.818C313.376 320.752 312.677 320.967 312.027 321.268C311.392 321.563 310.751 321.966 310.145 322.348L310.097 322.378C309.463 322.777 308.867 323.149 308.296 323.405C307.724 323.661 307.235 323.774 306.81 323.714C306.345 323.648 305.876 323.423 305.381 323.079C304.885 322.734 304.397 322.294 303.885 321.825L303.801 321.747C303.323 321.31 302.823 320.851 302.309 320.474C301.763 320.074 301.164 319.736 300.506 319.609C299.837 319.479 299.146 319.562 298.482 319.724C297.841 319.881 297.186 320.122 296.566 320.35L296.501 320.374C295.849 320.613 295.235 320.836 294.653 320.969C294.071 321.101 293.564 321.132 293.124 321.022C292.68 320.912 292.248 320.627 291.802 320.201C291.356 319.774 290.931 319.241 290.486 318.673L290.409 318.574C289.995 318.047 289.562 317.493 289.103 317.029C288.615 316.535 288.059 316.1 287.407 315.898C286.246 315.537 284.966 315.587 283.8 315.634C283.751 315.636 283.703 315.637 283.655 315.639C282.406 315.688 281.296 315.712 280.357 315.355C279.28 314.947 278.1 314.763 276.99 314.59C276.915 314.578 276.841 314.566 276.766 314.555C275.566 314.366 274.46 314.173 273.512 313.739C272.534 313.29 271.676 312.526 270.779 311.688C270.71 311.623 270.64 311.558 270.57 311.492C269.759 310.731 268.901 309.926 267.939 309.393C267.026 308.888 266.336 307.995 265.604 306.984C265.554 306.915 265.504 306.845 265.454 306.776C264.793 305.858 264.074 304.86 263.128 304.224C262.124 303.549 260.884 303.241 259.762 302.962C259.696 302.946 259.631 302.93 259.567 302.914C258.347 302.609 257.292 302.316 256.538 301.689C255.601 300.911 254.298 300.492 253.124 300.114C253.05 300.09 252.976 300.066 252.904 300.042C251.61 299.624 250.516 299.232 249.856 298.534C249.113 297.747 248.575 296.673 248.049 295.512C247.972 295.342 247.895 295.169 247.818 294.996C247.381 294.017 246.93 293.004 246.359 292.188C246.117 291.843 246.029 291.363 246.069 290.731C246.11 290.1 246.273 289.391 246.46 288.633C246.482 288.546 246.504 288.459 246.526 288.371C246.691 287.709 246.864 287.017 246.951 286.372C247.049 285.648 247.054 284.897 246.759 284.258C246.467 283.627 245.959 283.12 245.407 282.689C244.919 282.308 244.36 281.959 243.83 281.629C243.76 281.585 243.691 281.542 243.622 281.499C243.019 281.121 242.468 280.763 242.038 280.373C241.61 279.985 241.342 279.603 241.248 279.192C240.735 276.925 240.472 274.61 240.463 272.287C240.464 271.841 240.631 271.393 240.936 270.914C241.244 270.433 241.666 269.956 242.133 269.453C242.204 269.376 242.277 269.298 242.35 269.219C242.745 268.797 243.158 268.354 243.508 267.901C243.925 267.363 244.287 266.769 244.438 266.111L243.952 265.999L244.438 266.111C244.59 265.449 244.505 264.749 244.344 264.08C244.207 263.508 244.002 262.916 243.806 262.349C243.773 262.252 243.74 262.156 243.707 262.061C243.479 261.395 243.28 260.771 243.192 260.193C243.105 259.618 243.136 259.135 243.322 258.731C243.752 257.803 243.972 256.664 244.182 255.581C244.217 255.4 244.252 255.221 244.287 255.045C244.544 253.765 244.835 252.604 245.439 251.74C245.997 250.943 246.998 250.359 248.174 249.729C248.264 249.68 248.355 249.632 248.447 249.583C249.503 249.02 250.658 248.404 251.464 247.551C252.151 246.824 253.127 246.342 254.237 245.835C254.323 245.796 254.41 245.756 254.498 245.716C255.506 245.259 256.599 244.762 257.489 244.023C258.012 243.589 258.358 242.964 258.62 242.312C258.859 241.721 259.047 241.057 259.228 240.421C259.247 240.354 259.265 240.288 259.284 240.222C259.487 239.512 259.686 238.844 259.948 238.275C260.21 237.706 260.513 237.286 260.892 237.031C261.766 236.444 262.827 236.008 263.965 235.567C264.086 235.52 264.209 235.473 264.332 235.425C265.343 235.036 266.398 234.63 267.344 234.106C268.239 233.611 269.338 233.396 270.553 233.183C270.621 233.171 270.69 233.159 270.758 233.147C271.884 232.95 273.096 232.738 274.164 232.248C274.573 232.061 275.066 232.001 275.645 232.028C276.226 232.054 276.852 232.164 277.52 232.285L277.596 232.299C278.229 232.414 278.899 232.535 279.545 232.578C280.219 232.622 280.907 232.584 281.546 232.342C282.574 231.952 283.508 231.349 284.395 230.777C284.467 230.731 284.538 230.685 284.609 230.639C285.578 230.016 286.508 229.443 287.547 229.121C288.239 228.905 288.786 228.355 289.236 227.75C289.67 227.168 290.067 226.462 290.445 225.788C290.465 225.753 290.484 225.718 290.504 225.684C290.909 224.963 291.296 224.287 291.713 223.755C292.135 223.218 292.534 222.899 292.936 222.799C293.936 222.549 295.073 222.628 296.319 222.732C296.371 222.736 296.424 222.741 296.476 222.745C297.643 222.844 298.901 222.95 300.069 222.724C300.462 222.647 300.942 222.761 301.536 223.055C302.124 223.347 302.746 223.777 303.408 224.237L303.449 224.266C304.085 224.707 304.757 225.175 305.417 225.511C306.085 225.852 306.815 226.097 307.541 225.994C308.279 225.889 308.904 225.383 309.431 224.811C309.946 224.253 310.439 223.548 310.909 222.877L310.966 222.796C311.464 222.084 311.938 221.416 312.423 220.911C312.915 220.397 313.345 220.131 313.737 220.095C314.193 220.052 314.692 220.159 315.247 220.375C315.804 220.591 316.378 220.899 316.986 221.23L317.044 221.262C317.623 221.577 318.234 221.909 318.844 222.156C319.474 222.411 320.143 222.593 320.822 222.562C321.843 222.515 322.887 222.859 324.044 223.259C324.084 223.272 324.124 223.286 324.164 223.3C325.25 223.677 326.438 224.088 327.649 224.088C328.899 224.088 330.122 223.505 331.212 222.986C331.248 222.968 331.284 222.951 331.319 222.934C332.494 222.375 333.518 221.91 334.503 221.955C334.978 221.977 335.463 222.146 335.978 222.422C336.496 222.699 337.011 223.066 337.555 223.457L337.64 223.519C338.147 223.885 338.68 224.269 339.223 224.577C339.798 224.902 340.419 225.163 341.081 225.224C341.822 225.293 342.547 224.982 343.2 224.578C343.847 224.178 344.502 223.635 345.121 223.121L345.158 223.091C345.803 222.556 346.409 222.057 346.988 221.706C347.574 221.351 348.046 221.204 348.431 221.258C348.892 221.324 349.356 221.552 349.847 221.907C350.338 222.262 350.82 222.716 351.327 223.201L351.408 223.279C351.881 223.731 352.377 224.206 352.888 224.596C353.43 225.008 354.029 225.357 354.691 225.485C355.352 225.614 356.031 225.549 356.687 225.411C357.316 225.277 357.957 225.068 358.566 224.869L358.635 224.846C359.275 224.636 359.879 224.442 360.454 224.33C361.028 224.219 361.536 224.198 361.985 224.311C362.436 224.423 362.871 224.7 363.318 225.108C363.765 225.516 364.192 226.024 364.64 226.567L364.72 226.664C365.135 227.166 365.57 227.693 366.03 228.138C366.52 228.611 367.074 229.027 367.72 229.228C368.702 229.533 369.52 230.27 370.416 231.12C370.461 231.163 370.506 231.206 370.551 231.249C371.374 232.031 372.281 232.893 373.385 233.312C374.093 233.581 374.893 233.45 375.641 233.208C376.385 232.968 377.177 232.583 377.926 232.22L377.968 232.2C378.746 231.822 379.477 231.47 380.134 231.265C380.804 231.057 381.287 231.037 381.623 231.191C382.64 231.658 383.597 232.299 384.565 232.977C384.7 233.071 384.835 233.166 384.97 233.262C385.797 233.844 386.64 234.438 387.507 234.918C388.584 235.514 389.944 235.674 391.168 235.819C391.227 235.826 391.285 235.833 391.344 235.84C392.675 235.998 393.822 236.161 394.63 236.704C395.47 237.269 396.026 238.339 396.616 239.585C396.65 239.658 396.685 239.732 396.72 239.807C396.972 240.34 397.232 240.893 397.521 241.395C397.85 241.968 398.237 242.512 398.731 242.923C399.63 243.669 400.79 244.168 401.859 244.628C401.946 244.665 402.032 244.702 402.118 244.739C403.296 245.249 404.325 245.73 405.007 246.452C405.731 247.218 406.162 248.311 406.582 249.527C406.629 249.662 406.676 249.799 406.723 249.937C407.083 250.995 407.466 252.119 408.075 252.99C408.686 253.865 408.995 254.926 409.269 256.082C409.311 256.26 409.352 256.441 409.394 256.624C409.617 257.595 409.851 258.618 410.269 259.521C410.732 260.524 411.533 261.414 412.268 262.231C412.368 262.341 412.466 262.45 412.562 262.558C413.403 263.503 414.089 264.364 414.309 265.325C414.512 266.212 414.87 267.154 415.219 268.074C415.324 268.349 415.427 268.623 415.526 268.892C415.965 270.092 416.313 271.232 416.313 272.288C416.313 272.671 416.096 273.091 415.633 273.578C415.176 274.059 414.549 274.534 413.865 275.034C413.792 275.088 413.717 275.142 413.643 275.197C413.04 275.636 412.411 276.095 411.893 276.568C411.318 277.094 410.802 277.704 410.64 278.414C410.484 279.094 410.612 279.818 410.823 280.505C411.007 281.104 411.274 281.73 411.529 282.327C411.567 282.415 411.604 282.503 411.641 282.59C411.935 283.282 412.194 283.928 412.327 284.523C412.459 285.115 412.449 285.593 412.272 285.978C411.278 288.105 410.104 290.144 408.762 292.072C408.516 292.423 408.122 292.7 407.589 292.94C407.055 293.18 406.429 293.362 405.751 293.551C405.699 293.565 405.646 293.58 405.593 293.595C404.976 293.766 404.324 293.947 403.729 294.183C403.085 294.438 402.462 294.773 401.987 295.272C400.423 296.808 398.766 298.246 397.025 299.58Z" stroke="#4B4E60"/>
<path d="M167.873 380.568C167.655 380.514 167.474 380.468 167.33 380.432L173.361 314.869C173.506 314.796 173.714 314.692 173.982 314.559C174.553 314.277 175.397 313.864 176.489 313.343C178.673 312.302 181.851 310.831 185.818 309.111C193.754 305.672 204.849 301.242 217.486 297.276C242.786 289.335 274.154 283.294 298.721 290.685C323.557 298.157 353.288 295.434 377.755 291.969C382.64 291.277 387.31 290.556 391.692 289.88C398.307 288.859 404.264 287.94 409.308 287.375C413.497 286.906 417.021 286.685 419.74 286.85C421.099 286.933 422.239 287.111 423.152 287.393C424.066 287.676 424.723 288.054 425.151 288.517C425.603 289.006 426.097 289.83 426.595 290.987C427.09 292.136 427.575 293.581 428.021 295.284C428.914 298.689 429.646 303.098 429.993 308.169C430.688 318.313 429.845 331.073 425.72 343.721C421.596 356.366 414.196 368.889 401.78 378.59C389.365 388.289 371.901 395.192 347.602 396.54C298.879 399.242 253.705 395.189 220.709 390.459C204.211 388.094 190.761 385.56 181.436 383.618C176.773 382.647 173.142 381.824 170.678 381.244C169.445 380.954 168.505 380.724 167.873 380.568Z" stroke="url(#paint6_linear_182_5500)"/>
<path d="M154.696 310.842L154.793 310.877L154.896 310.87L154.865 310.371C154.896 310.87 154.896 310.87 154.897 310.87L154.897 310.87L154.901 310.87L154.917 310.869L154.98 310.865C155.036 310.862 155.12 310.857 155.23 310.852C155.448 310.84 155.77 310.825 156.179 310.81C156.998 310.779 158.167 310.747 159.567 310.742C162.367 310.732 166.079 310.831 169.744 311.266C173.42 311.701 176.999 312.469 179.561 313.77C180.839 314.42 181.832 315.186 182.466 316.081C183.091 316.963 183.383 317.992 183.229 319.219C182.895 321.886 182.563 328.917 182.134 338.005L182.104 338.644C181.659 348.058 181.109 359.611 180.348 370.889C179.586 382.169 178.613 393.16 177.326 401.453C176.682 405.602 175.962 409.054 175.157 411.523C174.754 412.76 174.337 413.726 173.911 414.405C173.476 415.098 173.084 415.407 172.767 415.487C171.799 415.728 169.945 415.948 167.352 416.143C164.772 416.336 161.496 416.502 157.705 416.645C150.123 416.93 140.498 417.12 130.298 417.247C109.898 417.5 87.2116 417.5 74.004 417.5H-74.5V288.845C-74.3126 288.835 -74.0704 288.822 -73.7754 288.807C-72.9903 288.768 -71.8311 288.713 -70.3368 288.653C-67.348 288.533 -63.0184 288.391 -57.6574 288.303C-46.9348 288.126 -32.0886 288.165 -15.5938 289.028C17.4199 290.754 56.9491 295.775 83.2628 308.91L83.3716 308.964L83.4933 308.962L83.4861 308.462C83.4933 308.962 83.4935 308.962 83.494 308.962L83.4961 308.962L83.5048 308.962L83.5392 308.962L83.6753 308.96L84.2077 308.953C84.6746 308.947 85.3604 308.938 86.2361 308.928C87.9876 308.909 90.4987 308.884 93.5365 308.863C99.6125 308.822 107.795 308.796 116.223 308.858C124.651 308.92 133.321 309.07 140.372 309.381C143.898 309.536 147.014 309.732 149.491 309.976C151.987 310.222 153.78 310.513 154.696 310.842Z" stroke="#8C52FF"/>
<circle cx="337" cy="167.001" r="8.63956" stroke="url(#paint7_linear_182_5500)" stroke-width="2.72089"/>
<circle cx="337" cy="167.001" r="8.63956" stroke="url(#paint8_linear_182_5500)" stroke-width="2.72089"/>
<circle cx="336.889" cy="166.89" r="4.75067" transform="rotate(-149.996 336.889 166.89)" stroke="url(#paint9_linear_182_5500)" stroke-width="2.72089"/>
<circle cx="336.889" cy="166.89" r="4.75067" transform="rotate(-149.996 336.889 166.89)" stroke="url(#paint10_linear_182_5500)" stroke-width="2.72089"/>
<path d="M341.047 164.589C339.703 162.26 336.772 161.472 334.515 162.775C332.258 164.078 331.474 167.01 332.818 169.339C334.163 171.668 337.094 172.455 339.351 171.152C341.608 169.85 342.392 166.918 341.047 164.589Z" stroke="url(#paint11_angular_182_5500)" stroke-opacity="0.5" stroke-width="2.72089"/>
<ellipse cx="2.13115" cy="2.19577" rx="2.13115" ry="2.19577" transform="matrix(0.86606 -0.49994 -0.49994 -0.86606 336.337 170.077)" fill="white"/>
<circle cx="372" cy="160.001" r="8.63956" stroke="url(#paint12_linear_182_5500)" stroke-width="2.72089"/>
<circle cx="372" cy="160.001" r="8.63956" stroke="url(#paint13_linear_182_5500)" stroke-width="2.72089"/>
<circle cx="371.889" cy="159.89" r="4.75067" transform="rotate(-149.996 371.889 159.89)" stroke="url(#paint14_linear_182_5500)" stroke-width="2.72089"/>
<circle cx="371.889" cy="159.89" r="4.75067" transform="rotate(-149.996 371.889 159.89)" stroke="url(#paint15_linear_182_5500)" stroke-width="2.72089"/>
<path d="M376.047 157.589C374.703 155.26 371.772 154.472 369.515 155.775C367.258 157.078 366.474 160.01 367.818 162.339C369.163 164.668 372.094 165.455 374.351 164.152C376.608 162.85 377.392 159.918 376.047 157.589Z" stroke="url(#paint16_angular_182_5500)" stroke-opacity="0.5" stroke-width="2.72089"/>
<ellipse cx="2.13115" cy="2.19577" rx="2.13115" ry="2.19577" transform="matrix(0.86606 -0.49994 -0.49994 -0.86606 371.337 163.077)" fill="white"/>
<circle cx="378" cy="190.001" r="8.63956" stroke="url(#paint17_linear_182_5500)" stroke-width="2.72089"/>
<circle cx="378" cy="190.001" r="8.63956" stroke="url(#paint18_linear_182_5500)" stroke-width="2.72089"/>
<circle cx="377.889" cy="189.89" r="4.75067" transform="rotate(-149.996 377.889 189.89)" stroke="url(#paint19_linear_182_5500)" stroke-width="2.72089"/>
<circle cx="377.889" cy="189.89" r="4.75067" transform="rotate(-149.996 377.889 189.89)" stroke="url(#paint20_linear_182_5500)" stroke-width="2.72089"/>
<path d="M382.047 187.589C380.703 185.26 377.772 184.472 375.515 185.775C373.258 187.078 372.474 190.01 373.818 192.339C375.163 194.668 378.094 195.455 380.351 194.152C382.608 192.85 383.392 189.918 382.047 187.589Z" stroke="url(#paint21_angular_182_5500)" stroke-opacity="0.5" stroke-width="2.72089"/>
<ellipse cx="2.13115" cy="2.19577" rx="2.13115" ry="2.19577" transform="matrix(0.86606 -0.49994 -0.49994 -0.86606 377.337 193.077)" fill="white"/>
<circle cx="374" cy="115.001" r="8.63956" stroke="url(#paint22_linear_182_5500)" stroke-width="2.72089"/>
<circle cx="374" cy="115.001" r="8.63956" stroke="url(#paint23_linear_182_5500)" stroke-width="2.72089"/>
<circle cx="373.889" cy="114.89" r="4.75067" transform="rotate(-149.996 373.889 114.89)" stroke="url(#paint24_linear_182_5500)" stroke-width="2.72089"/>
<circle cx="373.889" cy="114.89" r="4.75067" transform="rotate(-149.996 373.889 114.89)" stroke="url(#paint25_linear_182_5500)" stroke-width="2.72089"/>
<path d="M378.047 112.589C376.703 110.26 373.772 109.472 371.515 110.775C369.258 112.078 368.474 115.01 369.818 117.339C371.163 119.668 374.094 120.455 376.351 119.152C378.608 117.85 379.392 114.918 378.047 112.589Z" stroke="url(#paint26_angular_182_5500)" stroke-opacity="0.5" stroke-width="2.72089"/>
<ellipse cx="2.13115" cy="2.19577" rx="2.13115" ry="2.19577" transform="matrix(0.86606 -0.49994 -0.49994 -0.86606 373.337 118.077)" fill="white"/>
<circle cx="334" cy="111.001" r="8.63956" stroke="url(#paint27_linear_182_5500)" stroke-width="2.72089"/>
<circle cx="334" cy="111.001" r="8.63956" stroke="url(#paint28_linear_182_5500)" stroke-width="2.72089"/>
<circle cx="333.889" cy="110.89" r="4.75067" transform="rotate(-149.996 333.889 110.89)" stroke="url(#paint29_linear_182_5500)" stroke-width="2.72089"/>
<circle cx="333.889" cy="110.89" r="4.75067" transform="rotate(-149.996 333.889 110.89)" stroke="url(#paint30_linear_182_5500)" stroke-width="2.72089"/>
<path d="M338.047 108.589C336.703 106.26 333.772 105.472 331.515 106.775C329.258 108.078 328.474 111.01 329.818 113.339C331.163 115.668 334.094 116.455 336.351 115.152C338.608 113.85 339.392 110.918 338.047 108.589Z" stroke="url(#paint31_angular_182_5500)" stroke-opacity="0.5" stroke-width="2.72089"/>
<ellipse cx="2.13115" cy="2.19577" rx="2.13115" ry="2.19577" transform="matrix(0.86606 -0.49994 -0.49994 -0.86606 333.337 114.077)" fill="white"/>
<circle cx="352" cy="94.0007" r="8.63956" stroke="url(#paint32_linear_182_5500)" stroke-width="2.72089"/>
<circle cx="352" cy="94.0007" r="8.63956" stroke="url(#paint33_linear_182_5500)" stroke-width="2.72089"/>
<circle cx="351.889" cy="93.8897" r="4.75067" transform="rotate(-149.996 351.889 93.8897)" stroke="url(#paint34_linear_182_5500)" stroke-width="2.72089"/>
<circle cx="351.889" cy="93.8897" r="4.75067" transform="rotate(-149.996 351.889 93.8897)" stroke="url(#paint35_linear_182_5500)" stroke-width="2.72089"/>
<path d="M356.047 91.5887C354.703 89.2599 351.772 88.4723 349.515 89.7752C347.258 91.078 346.474 94.01 347.818 96.3388C349.163 98.6676 352.094 99.4551 354.351 98.1523C356.608 96.8495 357.392 93.9175 356.047 91.5887Z" stroke="url(#paint36_angular_182_5500)" stroke-opacity="0.5" stroke-width="2.72089"/>
<ellipse cx="2.13115" cy="2.19577" rx="2.13115" ry="2.19577" transform="matrix(0.86606 -0.49994 -0.49994 -0.86606 351.337 97.0771)" fill="white"/>
<circle cx="392" cy="97.0007" r="8.63956" stroke="url(#paint37_linear_182_5500)" stroke-width="2.72089"/>
<circle cx="392" cy="97.0007" r="8.63956" stroke="url(#paint38_linear_182_5500)" stroke-width="2.72089"/>
<circle cx="391.889" cy="96.8897" r="4.75067" transform="rotate(-149.996 391.889 96.8897)" stroke="url(#paint39_linear_182_5500)" stroke-width="2.72089"/>
<circle cx="391.889" cy="96.8897" r="4.75067" transform="rotate(-149.996 391.889 96.8897)" stroke="url(#paint40_linear_182_5500)" stroke-width="2.72089"/>
<path d="M396.047 94.5887C394.703 92.2599 391.772 91.4723 389.515 92.7752C387.258 94.078 386.474 97.01 387.818 99.3388C389.163 101.668 392.094 102.455 394.351 101.152C396.608 99.8495 397.392 96.9175 396.047 94.5887Z" stroke="url(#paint41_angular_182_5500)" stroke-opacity="0.5" stroke-width="2.72089"/>
<ellipse cx="2.13115" cy="2.19577" rx="2.13115" ry="2.19577" transform="matrix(0.86606 -0.49994 -0.49994 -0.86606 391.337 100.077)" fill="white"/>
<circle cx="422" cy="119.001" r="8.63956" stroke="url(#paint42_linear_182_5500)" stroke-width="2.72089"/>
<circle cx="422" cy="119.001" r="8.63956" stroke="url(#paint43_linear_182_5500)" stroke-width="2.72089"/>
<circle cx="421.889" cy="118.89" r="4.75067" transform="rotate(-149.996 421.889 118.89)" stroke="url(#paint44_linear_182_5500)" stroke-width="2.72089"/>
<circle cx="421.889" cy="118.89" r="4.75067" transform="rotate(-149.996 421.889 118.89)" stroke="url(#paint45_linear_182_5500)" stroke-width="2.72089"/>
<path d="M426.047 116.589C424.703 114.26 421.772 113.472 419.515 114.775C417.258 116.078 416.474 119.01 417.818 121.339C419.163 123.668 422.094 124.455 424.351 123.152C426.608 121.85 427.392 118.918 426.047 116.589Z" stroke="url(#paint46_angular_182_5500)" stroke-opacity="0.5" stroke-width="2.72089"/>
<ellipse cx="2.13115" cy="2.19577" rx="2.13115" ry="2.19577" transform="matrix(0.86606 -0.49994 -0.49994 -0.86606 421.337 122.077)" fill="white"/>
<circle cx="317" cy="80.0007" r="8.63956" stroke="url(#paint47_linear_182_5500)" stroke-width="2.72089"/>
<circle cx="317" cy="80.0007" r="8.63956" stroke="url(#paint48_linear_182_5500)" stroke-width="2.72089"/>
<circle cx="316.889" cy="79.8897" r="4.75067" transform="rotate(-149.996 316.889 79.8897)" stroke="url(#paint49_linear_182_5500)" stroke-width="2.72089"/>
<circle cx="316.889" cy="79.8897" r="4.75067" transform="rotate(-149.996 316.889 79.8897)" stroke="url(#paint50_linear_182_5500)" stroke-width="2.72089"/>
<path d="M321.047 77.5887C319.703 75.2599 316.772 74.4723 314.515 75.7752C312.258 77.078 311.474 80.01 312.818 82.3388C314.163 84.6676 317.094 85.4551 319.351 84.1523C321.608 82.8495 322.392 79.9175 321.047 77.5887Z" stroke="url(#paint51_angular_182_5500)" stroke-opacity="0.5" stroke-width="2.72089"/>
<ellipse cx="2.13115" cy="2.19577" rx="2.13115" ry="2.19577" transform="matrix(0.86606 -0.49994 -0.49994 -0.86606 316.337 83.0771)" fill="white"/>
<circle cx="327" cy="55.0007" r="8.63956" stroke="url(#paint52_linear_182_5500)" stroke-width="2.72089"/>
<circle cx="327" cy="55.0007" r="8.63956" stroke="url(#paint53_linear_182_5500)" stroke-width="2.72089"/>
<circle cx="326.889" cy="54.8897" r="4.75067" transform="rotate(-149.996 326.889 54.8897)" stroke="url(#paint54_linear_182_5500)" stroke-width="2.72089"/>
<circle cx="326.889" cy="54.8897" r="4.75067" transform="rotate(-149.996 326.889 54.8897)" stroke="url(#paint55_linear_182_5500)" stroke-width="2.72089"/>
<path d="M331.047 52.5887C329.703 50.2599 326.772 49.4723 324.515 50.7752C322.258 52.078 321.474 55.01 322.818 57.3388C324.163 59.6676 327.094 60.4551 329.351 59.1523C331.608 57.8495 332.392 54.9175 331.047 52.5887Z" stroke="url(#paint56_angular_182_5500)" stroke-opacity="0.5" stroke-width="2.72089"/>
<ellipse cx="2.13115" cy="2.19577" rx="2.13115" ry="2.19577" transform="matrix(0.86606 -0.49994 -0.49994 -0.86606 326.337 58.0771)" fill="white"/>
<circle cx="421" cy="73.0007" r="8.63956" stroke="url(#paint57_linear_182_5500)" stroke-width="2.72089"/>
<circle cx="421" cy="73.0007" r="8.63956" stroke="url(#paint58_linear_182_5500)" stroke-width="2.72089"/>
<circle cx="420.889" cy="72.8897" r="4.75067" transform="rotate(-149.996 420.889 72.8897)" stroke="url(#paint59_linear_182_5500)" stroke-width="2.72089"/>
<circle cx="420.889" cy="72.8897" r="4.75067" transform="rotate(-149.996 420.889 72.8897)" stroke="url(#paint60_linear_182_5500)" stroke-width="2.72089"/>
<path d="M425.047 70.5887C423.703 68.2599 420.772 67.4723 418.515 68.7752C416.258 70.078 415.474 73.01 416.818 75.3388C418.163 77.6676 421.094 78.4551 423.351 77.1523C425.608 75.8495 426.392 72.9175 425.047 70.5887Z" stroke="url(#paint61_angular_182_5500)" stroke-opacity="0.5" stroke-width="2.72089"/>
<ellipse cx="2.13115" cy="2.19577" rx="2.13115" ry="2.19577" transform="matrix(0.86606 -0.49994 -0.49994 -0.86606 420.337 76.0771)" fill="white"/>
<circle cx="271" cy="136.001" r="8.63956" stroke="url(#paint62_linear_182_5500)" stroke-width="2.72089"/>
<circle cx="271" cy="136.001" r="8.63956" stroke="url(#paint63_linear_182_5500)" stroke-width="2.72089"/>
<circle cx="270.889" cy="135.89" r="4.75067" transform="rotate(-149.996 270.889 135.89)" stroke="url(#paint64_linear_182_5500)" stroke-width="2.72089"/>
<circle cx="270.889" cy="135.89" r="4.75067" transform="rotate(-149.996 270.889 135.89)" stroke="url(#paint65_linear_182_5500)" stroke-width="2.72089"/>
<path d="M275.047 133.589C273.703 131.26 270.772 130.472 268.515 131.775C266.258 133.078 265.474 136.01 266.818 138.339C268.163 140.668 271.094 141.455 273.351 140.152C275.608 138.85 276.392 135.918 275.047 133.589Z" stroke="url(#paint66_angular_182_5500)" stroke-opacity="0.5" stroke-width="2.72089"/>
<ellipse cx="2.13115" cy="2.19577" rx="2.13115" ry="2.19577" transform="matrix(0.86606 -0.49994 -0.49994 -0.86606 270.337 139.077)" fill="white"/>
<circle cx="401" cy="138.001" r="8.63956" stroke="url(#paint67_linear_182_5500)" stroke-width="2.72089"/>
<circle cx="401" cy="138.001" r="8.63956" stroke="url(#paint68_linear_182_5500)" stroke-width="2.72089"/>
<circle cx="400.889" cy="137.89" r="4.75067" transform="rotate(-149.996 400.889 137.89)" stroke="url(#paint69_linear_182_5500)" stroke-width="2.72089"/>
<circle cx="400.889" cy="137.89" r="4.75067" transform="rotate(-149.996 400.889 137.89)" stroke="url(#paint70_linear_182_5500)" stroke-width="2.72089"/>
<path d="M405.047 135.589C403.703 133.26 400.772 132.472 398.515 133.775C396.258 135.078 395.474 138.01 396.818 140.339C398.163 142.668 401.094 143.455 403.351 142.152C405.608 140.85 406.392 137.918 405.047 135.589Z" stroke="url(#paint71_angular_182_5500)" stroke-opacity="0.5" stroke-width="2.72089"/>
<ellipse cx="2.13115" cy="2.19577" rx="2.13115" ry="2.19577" transform="matrix(0.86606 -0.49994 -0.49994 -0.86606 400.337 141.077)" fill="white"/>
<circle cx="410" cy="169.001" r="8.63956" stroke="url(#paint72_linear_182_5500)" stroke-width="2.72089"/>
<circle cx="410" cy="169.001" r="8.63956" stroke="url(#paint73_linear_182_5500)" stroke-width="2.72089"/>
<circle cx="409.889" cy="168.89" r="4.75067" transform="rotate(-149.996 409.889 168.89)" stroke="url(#paint74_linear_182_5500)" stroke-width="2.72089"/>
<circle cx="409.889" cy="168.89" r="4.75067" transform="rotate(-149.996 409.889 168.89)" stroke="url(#paint75_linear_182_5500)" stroke-width="2.72089"/>
<path d="M414.047 166.589C412.703 164.26 409.772 163.472 407.515 164.775C405.258 166.078 404.474 169.01 405.818 171.339C407.163 173.668 410.094 174.455 412.351 173.152C414.608 171.85 415.392 168.918 414.047 166.589Z" stroke="url(#paint76_angular_182_5500)" stroke-opacity="0.5" stroke-width="2.72089"/>
<ellipse cx="2.13115" cy="2.19577" rx="2.13115" ry="2.19577" transform="matrix(0.86606 -0.49994 -0.49994 -0.86606 409.337 172.077)" fill="white"/>
<circle cx="362" cy="140.001" r="8.63956" stroke="url(#paint77_linear_182_5500)" stroke-width="2.72089"/>
<circle cx="362" cy="140.001" r="8.63956" stroke="url(#paint78_linear_182_5500)" stroke-width="2.72089"/>
<circle cx="361.889" cy="139.89" r="4.75067" transform="rotate(-149.996 361.889 139.89)" stroke="url(#paint79_linear_182_5500)" stroke-width="2.72089"/>
<circle cx="361.889" cy="139.89" r="4.75067" transform="rotate(-149.996 361.889 139.89)" stroke="url(#paint80_linear_182_5500)" stroke-width="2.72089"/>
<path d="M366.047 137.589C364.703 135.26 361.772 134.472 359.515 135.775C357.258 137.078 356.474 140.01 357.818 142.339C359.163 144.668 362.094 145.455 364.351 144.152C366.608 142.85 367.392 139.918 366.047 137.589Z" stroke="url(#paint81_angular_182_5500)" stroke-opacity="0.5" stroke-width="2.72089"/>
<ellipse cx="2.13115" cy="2.19577" rx="2.13115" ry="2.19577" transform="matrix(0.86606 -0.49994 -0.49994 -0.86606 361.337 143.077)" fill="white"/>
<circle cx="365" cy="73.0007" r="8.63956" stroke="url(#paint82_linear_182_5500)" stroke-width="2.72089"/>
<circle cx="365" cy="73.0007" r="8.63956" stroke="url(#paint83_linear_182_5500)" stroke-width="2.72089"/>
<circle cx="364.889" cy="72.8897" r="4.75067" transform="rotate(-149.996 364.889 72.8897)" stroke="url(#paint84_linear_182_5500)" stroke-width="2.72089"/>
<circle cx="364.889" cy="72.8897" r="4.75067" transform="rotate(-149.996 364.889 72.8897)" stroke="url(#paint85_linear_182_5500)" stroke-width="2.72089"/>
<path d="M369.047 70.5887C367.703 68.2599 364.772 67.4723 362.515 68.7752C360.258 70.078 359.474 73.01 360.818 75.3388C362.163 77.6676 365.094 78.4551 367.351 77.1523C369.608 75.8495 370.392 72.9175 369.047 70.5887Z" stroke="url(#paint86_angular_182_5500)" stroke-opacity="0.5" stroke-width="2.72089"/>
<ellipse cx="2.13115" cy="2.19577" rx="2.13115" ry="2.19577" transform="matrix(0.86606 -0.49994 -0.49994 -0.86606 364.337 76.0771)" fill="white"/>
<circle cx="295" cy="115.001" r="8.63956" stroke="url(#paint87_linear_182_5500)" stroke-width="2.72089"/>
<circle cx="295" cy="115.001" r="8.63956" stroke="url(#paint88_linear_182_5500)" stroke-width="2.72089"/>
<circle cx="294.889" cy="114.89" r="4.75067" transform="rotate(-149.996 294.889 114.89)" stroke="url(#paint89_linear_182_5500)" stroke-width="2.72089"/>
<circle cx="294.889" cy="114.89" r="4.75067" transform="rotate(-149.996 294.889 114.89)" stroke="url(#paint90_linear_182_5500)" stroke-width="2.72089"/>
<path d="M299.047 112.589C297.703 110.26 294.772 109.472 292.515 110.775C290.258 112.078 289.474 115.01 290.818 117.339C292.163 119.668 295.094 120.455 297.351 119.152C299.608 117.85 300.392 114.918 299.047 112.589Z" stroke="url(#paint91_angular_182_5500)" stroke-opacity="0.5" stroke-width="2.72089"/>
<ellipse cx="2.13115" cy="2.19577" rx="2.13115" ry="2.19577" transform="matrix(0.86606 -0.49994 -0.49994 -0.86606 294.337 118.077)" fill="white"/>
<circle cx="305" cy="145.001" r="8.63956" stroke="url(#paint92_linear_182_5500)" stroke-width="2.72089"/>
<circle cx="305" cy="145.001" r="8.63956" stroke="url(#paint93_linear_182_5500)" stroke-width="2.72089"/>
<circle cx="304.889" cy="144.89" r="4.75067" transform="rotate(-149.996 304.889 144.89)" stroke="url(#paint94_linear_182_5500)" stroke-width="2.72089"/>
<circle cx="304.889" cy="144.89" r="4.75067" transform="rotate(-149.996 304.889 144.89)" stroke="url(#paint95_linear_182_5500)" stroke-width="2.72089"/>
<path d="M309.047 142.589C307.703 140.26 304.772 139.472 302.515 140.775C300.258 142.078 299.474 145.01 300.818 147.339C302.163 149.668 305.094 150.455 307.351 149.152C309.608 147.85 310.392 144.918 309.047 142.589Z" stroke="url(#paint96_angular_182_5500)" stroke-opacity="0.5" stroke-width="2.72089"/>
<ellipse cx="2.13115" cy="2.19577" rx="2.13115" ry="2.19577" transform="matrix(0.86606 -0.49994 -0.49994 -0.86606 304.337 148.077)" fill="white"/>
<g opacity="0.3">
<path d="M301.952 195.946C304.246 191.847 304.665 187.721 302.887 186.729C301.109 185.737 297.808 188.255 295.513 192.354C293.219 196.452 292.8 200.579 294.578 201.571C296.356 202.563 299.657 200.045 301.952 195.946Z" fill="url(#paint97_linear_182_5500)"/>
<path d="M300.88 196.566C303.175 192.467 303.594 188.34 301.816 187.348C300.038 186.356 296.736 188.875 294.442 192.973C292.147 197.072 291.728 201.199 293.506 202.191C295.284 203.183 298.586 200.664 300.88 196.566Z" stroke="#4B4E60" stroke-miterlimit="10"/>
</g>
<g opacity="0.3">
<path d="M386.68 215.594C388.038 214.079 386.298 210.313 382.794 207.181C379.289 204.05 375.347 202.74 373.989 204.255C372.63 205.77 374.37 209.537 377.875 212.668C381.379 215.799 385.322 217.11 386.68 215.594Z" fill="url(#paint98_linear_182_5500)"/>
<path d="M386.309 214.415C387.667 212.9 385.927 209.133 382.423 206.002C378.918 202.87 374.976 201.56 373.618 203.075C372.259 204.591 373.999 208.357 377.504 211.489C381.008 214.62 384.951 215.93 386.309 214.415Z" stroke="#4B4E60" stroke-miterlimit="10"/>
</g>
<g opacity="0.3">
<path d="M310.824 172.997C312.182 171.482 310.442 167.715 306.937 164.584C303.433 161.452 299.491 160.142 298.132 161.657C296.774 163.173 298.514 166.939 302.018 170.071C305.523 173.202 309.465 174.512 310.824 172.997Z" fill="url(#paint99_linear_182_5500)"/>
<path d="M310.452 171.817C311.811 170.302 310.071 166.535 306.566 163.404C303.062 160.273 299.12 158.963 297.761 160.478C296.403 161.993 298.143 165.76 301.647 168.891C305.152 172.022 309.094 173.332 310.452 171.817Z" stroke="#4B4E60" stroke-miterlimit="10"/>
</g>
<path d="M274.5 131L282.5 128.5" stroke="#4B4E60"/>
</g>
<defs>
<linearGradient id="paint0_linear_182_5500" x1="318" y1="132.001" x2="338" y2="132.001" gradientUnits="userSpaceOnUse">
<stop stop-color="#8C52FF"/>
<stop offset="1" stop-color="#55EECC"/>
</linearGradient>
<linearGradient id="paint1_linear_182_5500" x1="318" y1="132.001" x2="338" y2="132.001" gradientUnits="userSpaceOnUse">
<stop stop-color="#8C52FF"/>
<stop offset="1" stop-color="#55EECC"/>
</linearGradient>
<linearGradient id="paint2_linear_182_5500" x1="321.778" y1="131.89" x2="334" y2="131.89" gradientUnits="userSpaceOnUse">
<stop stop-color="#8C52FF"/>
<stop offset="1" stop-color="#5EC1E6"/>
</linearGradient>
<linearGradient id="paint3_linear_182_5500" x1="321.778" y1="131.89" x2="334" y2="131.89" gradientUnits="userSpaceOnUse">
<stop stop-color="#8C52FF"/>
<stop offset="1" stop-color="#5EC1E6"/>
</linearGradient>
<radialGradient id="paint4_angular_182_5500" cx="0" cy="0" r="1" gradientUnits="userSpaceOnUse" gradientTransform="translate(327.933 131.964) rotate(-119.996) scale(6.19681 6.11111)">
<stop stop-color="#01283E"/>
<stop offset="1" stop-color="#00C2FF"/>
</radialGradient>
<linearGradient id="paint5_linear_182_5500" x1="124.801" y1="310.371" x2="433.645" y2="310.371" gradientUnits="userSpaceOnUse">
<stop stop-color="#8C52FF"/>
<stop offset="1" stop-color="#55EECC"/>
</linearGradient>
<linearGradient id="paint6_linear_182_5500" x1="166.793" y1="342.102" x2="430.712" y2="342.102" gradientUnits="userSpaceOnUse">
<stop stop-color="#8C52FF"/>
<stop offset="1" stop-color="#5EC1E6"/>
</linearGradient>
<linearGradient id="paint7_linear_182_5500" x1="327" y1="167.001" x2="347" y2="167.001" gradientUnits="userSpaceOnUse">
<stop stop-color="#8C52FF"/>
<stop offset="1" stop-color="#55EECC"/>
</linearGradient>
<linearGradient id="paint8_linear_182_5500" x1="327" y1="167.001" x2="347" y2="167.001" gradientUnits="userSpaceOnUse">
<stop stop-color="#8C52FF"/>
<stop offset="1" stop-color="#55EECC"/>
</linearGradient>
<linearGradient id="paint9_linear_182_5500" x1="330.778" y1="166.89" x2="343" y2="166.89" gradientUnits="userSpaceOnUse">
<stop stop-color="#8C52FF"/>
<stop offset="1" stop-color="#5EC1E6"/>
</linearGradient>
<linearGradient id="paint10_linear_182_5500" x1="330.778" y1="166.89" x2="343" y2="166.89" gradientUnits="userSpaceOnUse">
<stop stop-color="#8C52FF"/>
<stop offset="1" stop-color="#5EC1E6"/>
</linearGradient>
<radialGradient id="paint11_angular_182_5500" cx="0" cy="0" r="1" gradientUnits="userSpaceOnUse" gradientTransform="translate(336.933 166.964) rotate(-119.996) scale(6.19681 6.11111)">
<stop stop-color="#01283E"/>
<stop offset="1" stop-color="#00C2FF"/>
</radialGradient>
<linearGradient id="paint12_linear_182_5500" x1="362" y1="160.001" x2="382" y2="160.001" gradientUnits="userSpaceOnUse">
<stop stop-color="#8C52FF"/>
<stop offset="1" stop-color="#55EECC"/>
</linearGradient>
<linearGradient id="paint13_linear_182_5500" x1="362" y1="160.001" x2="382" y2="160.001" gradientUnits="userSpaceOnUse">
<stop stop-color="#8C52FF"/>
<stop offset="1" stop-color="#55EECC"/>
</linearGradient>
<linearGradient id="paint14_linear_182_5500" x1="365.778" y1="159.89" x2="378" y2="159.89" gradientUnits="userSpaceOnUse">
<stop stop-color="#8C52FF"/>
<stop offset="1" stop-color="#5EC1E6"/>
</linearGradient>
<linearGradient id="paint15_linear_182_5500" x1="365.778" y1="159.89" x2="378" y2="159.89" gradientUnits="userSpaceOnUse">
<stop stop-color="#8C52FF"/>
<stop offset="1" stop-color="#5EC1E6"/>
</linearGradient>
<radialGradient id="paint16_angular_182_5500" cx="0" cy="0" r="1" gradientUnits="userSpaceOnUse" gradientTransform="translate(371.933 159.964) rotate(-119.996) scale(6.19681 6.11111)">
<stop stop-color="#01283E"/>
<stop offset="1" stop-color="#00C2FF"/>
</radialGradient>
<linearGradient id="paint17_linear_182_5500" x1="368" y1="190.001" x2="388" y2="190.001" gradientUnits="userSpaceOnUse">
<stop stop-color="#8C52FF"/>
<stop offset="1" stop-color="#55EECC"/>
</linearGradient>
<linearGradient id="paint18_linear_182_5500" x1="368" y1="190.001" x2="388" y2="190.001" gradientUnits="userSpaceOnUse">
<stop stop-color="#8C52FF"/>
<stop offset="1" stop-color="#55EECC"/>
</linearGradient>
<linearGradient id="paint19_linear_182_5500" x1="371.778" y1="189.89" x2="384" y2="189.89" gradientUnits="userSpaceOnUse">
<stop stop-color="#8C52FF"/>
<stop offset="1" stop-color="#5EC1E6"/>
</linearGradient>
<linearGradient id="paint20_linear_182_5500" x1="371.778" y1="189.89" x2="384" y2="189.89" gradientUnits="userSpaceOnUse">
<stop stop-color="#8C52FF"/>
<stop offset="1" stop-color="#5EC1E6"/>
</linearGradient>
<radialGradient id="paint21_angular_182_5500" cx="0" cy="0" r="1" gradientUnits="userSpaceOnUse" gradientTransform="translate(377.933 189.964) rotate(-119.996) scale(6.19681 6.11111)">
<stop stop-color="#01283E"/>
<stop offset="1" stop-color="#00C2FF"/>
</radialGradient>
<linearGradient id="paint22_linear_182_5500" x1="364" y1="115.001" x2="384" y2="115.001" gradientUnits="userSpaceOnUse">
<stop stop-color="#8C52FF"/>
<stop offset="1" stop-color="#55EECC"/>
</linearGradient>
<linearGradient id="paint23_linear_182_5500" x1="364" y1="115.001" x2="384" y2="115.001" gradientUnits="userSpaceOnUse">
<stop stop-color="#8C52FF"/>
<stop offset="1" stop-color="#55EECC"/>
</linearGradient>
<linearGradient id="paint24_linear_182_5500" x1="367.778" y1="114.89" x2="380" y2="114.89" gradientUnits="userSpaceOnUse">
<stop stop-color="#8C52FF"/>
<stop offset="1" stop-color="#5EC1E6"/>
</linearGradient>
<linearGradient id="paint25_linear_182_5500" x1="367.778" y1="114.89" x2="380" y2="114.89" gradientUnits="userSpaceOnUse">
<stop stop-color="#8C52FF"/>
<stop offset="1" stop-color="#5EC1E6"/>
</linearGradient>
<radialGradient id="paint26_angular_182_5500" cx="0" cy="0" r="1" gradientUnits="userSpaceOnUse" gradientTransform="translate(373.933 114.964) rotate(-119.996) scale(6.19681 6.11111)">
<stop stop-color="#01283E"/>
<stop offset="1" stop-color="#00C2FF"/>
</radialGradient>
<linearGradient id="paint27_linear_182_5500" x1="324" y1="111.001" x2="344" y2="111.001" gradientUnits="userSpaceOnUse">
<stop stop-color="#8C52FF"/>
<stop offset="1" stop-color="#55EECC"/>
</linearGradient>
<linearGradient id="paint28_linear_182_5500" x1="324" y1="111.001" x2="344" y2="111.001" gradientUnits="userSpaceOnUse">
<stop stop-color="#8C52FF"/>
<stop offset="1" stop-color="#55EECC"/>
</linearGradient>
<linearGradient id="paint29_linear_182_5500" x1="327.778" y1="110.89" x2="340" y2="110.89" gradientUnits="userSpaceOnUse">
<stop stop-color="#8C52FF"/>
<stop offset="1" stop-color="#5EC1E6"/>
</linearGradient>
<linearGradient id="paint30_linear_182_5500" x1="327.778" y1="110.89" x2="340" y2="110.89" gradientUnits="userSpaceOnUse">
<stop stop-color="#8C52FF"/>
<stop offset="1" stop-color="#5EC1E6"/>
</linearGradient>
<radialGradient id="paint31_angular_182_5500" cx="0" cy="0" r="1" gradientUnits="userSpaceOnUse" gradientTransform="translate(333.933 110.964) rotate(-119.996) scale(6.19681 6.11111)">
<stop stop-color="#01283E"/>
<stop offset="1" stop-color="#00C2FF"/>
</radialGradient>
<linearGradient id="paint32_linear_182_5500" x1="342" y1="94.0007" x2="362" y2="94.0007" gradientUnits="userSpaceOnUse">
<stop stop-color="#8C52FF"/>
<stop offset="1" stop-color="#55EECC"/>
</linearGradient>
<linearGradient id="paint33_linear_182_5500" x1="342" y1="94.0007" x2="362" y2="94.0007" gradientUnits="userSpaceOnUse">
<stop stop-color="#8C52FF"/>
<stop offset="1" stop-color="#55EECC"/>
</linearGradient>
<linearGradient id="paint34_linear_182_5500" x1="345.778" y1="93.8897" x2="358" y2="93.8897" gradientUnits="userSpaceOnUse">
<stop stop-color="#8C52FF"/>
<stop offset="1" stop-color="#5EC1E6"/>
</linearGradient>
<linearGradient id="paint35_linear_182_5500" x1="345.778" y1="93.8897" x2="358" y2="93.8897" gradientUnits="userSpaceOnUse">
<stop stop-color="#8C52FF"/>
<stop offset="1" stop-color="#5EC1E6"/>
</linearGradient>
<radialGradient id="paint36_angular_182_5500" cx="0" cy="0" r="1" gradientUnits="userSpaceOnUse" gradientTransform="translate(351.933 93.9637) rotate(-119.996) scale(6.19681 6.11111)">
<stop stop-color="#01283E"/>
<stop offset="1" stop-color="#00C2FF"/>
</radialGradient>
<linearGradient id="paint37_linear_182_5500" x1="382" y1="97.0007" x2="402" y2="97.0007" gradientUnits="userSpaceOnUse">
<stop stop-color="#8C52FF"/>
<stop offset="1" stop-color="#55EECC"/>
</linearGradient>
<linearGradient id="paint38_linear_182_5500" x1="382" y1="97.0007" x2="402" y2="97.0007" gradientUnits="userSpaceOnUse">
<stop stop-color="#8C52FF"/>
<stop offset="1" stop-color="#55EECC"/>
</linearGradient>
<linearGradient id="paint39_linear_182_5500" x1="385.778" y1="96.8897" x2="398" y2="96.8897" gradientUnits="userSpaceOnUse">
<stop stop-color="#8C52FF"/>
<stop offset="1" stop-color="#5EC1E6"/>
</linearGradient>
<linearGradient id="paint40_linear_182_5500" x1="385.778" y1="96.8897" x2="398" y2="96.8897" gradientUnits="userSpaceOnUse">
<stop stop-color="#8C52FF"/>
<stop offset="1" stop-color="#5EC1E6"/>
</linearGradient>
<radialGradient id="paint41_angular_182_5500" cx="0" cy="0" r="1" gradientUnits="userSpaceOnUse" gradientTransform="translate(391.933 96.9637) rotate(-119.996) scale(6.19681 6.11111)">
<stop stop-color="#01283E"/>
<stop offset="1" stop-color="#00C2FF"/>
</radialGradient>
<linearGradient id="paint42_linear_182_5500" x1="412" y1="119.001" x2="432" y2="119.001" gradientUnits="userSpaceOnUse">
<stop stop-color="#8C52FF"/>
<stop offset="1" stop-color="#55EECC"/>
</linearGradient>
<linearGradient id="paint43_linear_182_5500" x1="412" y1="119.001" x2="432" y2="119.001" gradientUnits="userSpaceOnUse">
<stop stop-color="#8C52FF"/>
<stop offset="1" stop-color="#55EECC"/>
</linearGradient>
<linearGradient id="paint44_linear_182_5500" x1="415.778" y1="118.89" x2="428" y2="118.89" gradientUnits="userSpaceOnUse">
<stop stop-color="#8C52FF"/>
<stop offset="1" stop-color="#5EC1E6"/>
</linearGradient>
<linearGradient id="paint45_linear_182_5500" x1="415.778" y1="118.89" x2="428" y2="118.89" gradientUnits="userSpaceOnUse">
<stop stop-color="#8C52FF"/>
<stop offset="1" stop-color="#5EC1E6"/>
</linearGradient>
<radialGradient id="paint46_angular_182_5500" cx="0" cy="0" r="1" gradientUnits="userSpaceOnUse" gradientTransform="translate(421.933 118.964) rotate(-119.996) scale(6.19681 6.11111)">
<stop stop-color="#01283E"/>
<stop offset="1" stop-color="#00C2FF"/>
</radialGradient>
<linearGradient id="paint47_linear_182_5500" x1="307" y1="80.0007" x2="327" y2="80.0007" gradientUnits="userSpaceOnUse">
<stop stop-color="#8C52FF"/>
<stop offset="1" stop-color="#55EECC"/>
</linearGradient>
<linearGradient id="paint48_linear_182_5500" x1="307" y1="80.0007" x2="327" y2="80.0007" gradientUnits="userSpaceOnUse">
<stop stop-color="#8C52FF"/>
<stop offset="1" stop-color="#55EECC"/>
</linearGradient>
<linearGradient id="paint49_linear_182_5500" x1="310.778" y1="79.8897" x2="323" y2="79.8897" gradientUnits="userSpaceOnUse">
<stop stop-color="#8C52FF"/>
<stop offset="1" stop-color="#5EC1E6"/>
</linearGradient>
<linearGradient id="paint50_linear_182_5500" x1="310.778" y1="79.8897" x2="323" y2="79.8897" gradientUnits="userSpaceOnUse">
<stop stop-color="#8C52FF"/>
<stop offset="1" stop-color="#5EC1E6"/>
</linearGradient>
<radialGradient id="paint51_angular_182_5500" cx="0" cy="0" r="1" gradientUnits="userSpaceOnUse" gradientTransform="translate(316.933 79.9637) rotate(-119.996) scale(6.19681 6.11111)">
<stop stop-color="#01283E"/>
<stop offset="1" stop-color="#00C2FF"/>
</radialGradient>
<linearGradient id="paint52_linear_182_5500" x1="317" y1="55.0007" x2="337" y2="55.0007" gradientUnits="userSpaceOnUse">
<stop stop-color="#8C52FF"/>
<stop offset="1" stop-color="#55EECC"/>
</linearGradient>
<linearGradient id="paint53_linear_182_5500" x1="317" y1="55.0007" x2="337" y2="55.0007" gradientUnits="userSpaceOnUse">
<stop stop-color="#8C52FF"/>
<stop offset="1" stop-color="#55EECC"/>
</linearGradient>
<linearGradient id="paint54_linear_182_5500" x1="320.778" y1="54.8897" x2="333" y2="54.8897" gradientUnits="userSpaceOnUse">
<stop stop-color="#8C52FF"/>
<stop offset="1" stop-color="#5EC1E6"/>
</linearGradient>
<linearGradient id="paint55_linear_182_5500" x1="320.778" y1="54.8897" x2="333" y2="54.8897" gradientUnits="userSpaceOnUse">
<stop stop-color="#8C52FF"/>
<stop offset="1" stop-color="#5EC1E6"/>
</linearGradient>
<radialGradient id="paint56_angular_182_5500" cx="0" cy="0" r="1" gradientUnits="userSpaceOnUse" gradientTransform="translate(326.933 54.9637) rotate(-119.996) scale(6.19681 6.11111)">
<stop stop-color="#01283E"/>
<stop offset="1" stop-color="#00C2FF"/>
</radialGradient>
<linearGradient id="paint57_linear_182_5500" x1="411" y1="73.0007" x2="431" y2="73.0007" gradientUnits="userSpaceOnUse">
<stop stop-color="#8C52FF"/>
<stop offset="1" stop-color="#55EECC"/>
</linearGradient>
<linearGradient id="paint58_linear_182_5500" x1="411" y1="73.0007" x2="431" y2="73.0007" gradientUnits="userSpaceOnUse">
<stop stop-color="#8C52FF"/>
<stop offset="1" stop-color="#55EECC"/>
</linearGradient>
<linearGradient id="paint59_linear_182_5500" x1="414.778" y1="72.8897" x2="427" y2="72.8897" gradientUnits="userSpaceOnUse">
<stop stop-color="#8C52FF"/>
<stop offset="1" stop-color="#5EC1E6"/>
</linearGradient>
<linearGradient id="paint60_linear_182_5500" x1="414.778" y1="72.8897" x2="427" y2="72.8897" gradientUnits="userSpaceOnUse">
<stop stop-color="#8C52FF"/>
<stop offset="1" stop-color="#5EC1E6"/>
</linearGradient>
<radialGradient id="paint61_angular_182_5500" cx="0" cy="0" r="1" gradientUnits="userSpaceOnUse" gradientTransform="translate(420.933 72.9637) rotate(-119.996) scale(6.19681 6.11111)">
<stop stop-color="#01283E"/>
<stop offset="1" stop-color="#00C2FF"/>
</radialGradient>
<linearGradient id="paint62_linear_182_5500" x1="261" y1="136.001" x2="281" y2="136.001" gradientUnits="userSpaceOnUse">
<stop stop-color="#8C52FF"/>
<stop offset="1" stop-color="#55EECC"/>
</linearGradient>
<linearGradient id="paint63_linear_182_5500" x1="261" y1="136.001" x2="281" y2="136.001" gradientUnits="userSpaceOnUse">
<stop stop-color="#8C52FF"/>
<stop offset="1" stop-color="#55EECC"/>
</linearGradient>
<linearGradient id="paint64_linear_182_5500" x1="264.778" y1="135.89" x2="277" y2="135.89" gradientUnits="userSpaceOnUse">
<stop stop-color="#8C52FF"/>
<stop offset="1" stop-color="#5EC1E6"/>
</linearGradient>
<linearGradient id="paint65_linear_182_5500" x1="264.778" y1="135.89" x2="277" y2="135.89" gradientUnits="userSpaceOnUse">
<stop stop-color="#8C52FF"/>
<stop offset="1" stop-color="#5EC1E6"/>
</linearGradient>
<radialGradient id="paint66_angular_182_5500" cx="0" cy="0" r="1" gradientUnits="userSpaceOnUse" gradientTransform="translate(270.933 135.964) rotate(-119.996) scale(6.19681 6.11111)">
<stop stop-color="#01283E"/>
<stop offset="1" stop-color="#00C2FF"/>
</radialGradient>
<linearGradient id="paint67_linear_182_5500" x1="391" y1="138.001" x2="411" y2="138.001" gradientUnits="userSpaceOnUse">
<stop stop-color="#8C52FF"/>
<stop offset="1" stop-color="#55EECC"/>
</linearGradient>
<linearGradient id="paint68_linear_182_5500" x1="391" y1="138.001" x2="411" y2="138.001" gradientUnits="userSpaceOnUse">
<stop stop-color="#8C52FF"/>
<stop offset="1" stop-color="#55EECC"/>
</linearGradient>
<linearGradient id="paint69_linear_182_5500" x1="394.778" y1="137.89" x2="407" y2="137.89" gradientUnits="userSpaceOnUse">
<stop stop-color="#8C52FF"/>
<stop offset="1" stop-color="#5EC1E6"/>
</linearGradient>
<linearGradient id="paint70_linear_182_5500" x1="394.778" y1="137.89" x2="407" y2="137.89" gradientUnits="userSpaceOnUse">
<stop stop-color="#8C52FF"/>
<stop offset="1" stop-color="#5EC1E6"/>
</linearGradient>
<radialGradient id="paint71_angular_182_5500" cx="0" cy="0" r="1" gradientUnits="userSpaceOnUse" gradientTransform="translate(400.933 137.964) rotate(-119.996) scale(6.19681 6.11111)">
<stop stop-color="#01283E"/>
<stop offset="1" stop-color="#00C2FF"/>
</radialGradient>
<linearGradient id="paint72_linear_182_5500" x1="400" y1="169.001" x2="420" y2="169.001" gradientUnits="userSpaceOnUse">
<stop stop-color="#8C52FF"/>
<stop offset="1" stop-color="#55EECC"/>
</linearGradient>
<linearGradient id="paint73_linear_182_5500" x1="400" y1="169.001" x2="420" y2="169.001" gradientUnits="userSpaceOnUse">
<stop stop-color="#8C52FF"/>
<stop offset="1" stop-color="#55EECC"/>
</linearGradient>
<linearGradient id="paint74_linear_182_5500" x1="403.778" y1="168.89" x2="416" y2="168.89" gradientUnits="userSpaceOnUse">
<stop stop-color="#8C52FF"/>
<stop offset="1" stop-color="#5EC1E6"/>
</linearGradient>
<linearGradient id="paint75_linear_182_5500" x1="403.778" y1="168.89" x2="416" y2="168.89" gradientUnits="userSpaceOnUse">
<stop stop-color="#8C52FF"/>
<stop offset="1" stop-color="#5EC1E6"/>
</linearGradient>
<radialGradient id="paint76_angular_182_5500" cx="0" cy="0" r="1" gradientUnits="userSpaceOnUse" gradientTransform="translate(409.933 168.964) rotate(-119.996) scale(6.19681 6.11111)">
<stop stop-color="#01283E"/>
<stop offset="1" stop-color="#00C2FF"/>
</radialGradient>
<linearGradient id="paint77_linear_182_5500" x1="352" y1="140.001" x2="372" y2="140.001" gradientUnits="userSpaceOnUse">
<stop stop-color="#8C52FF"/>
<stop offset="1" stop-color="#55EECC"/>
</linearGradient>
<linearGradient id="paint78_linear_182_5500" x1="352" y1="140.001" x2="372" y2="140.001" gradientUnits="userSpaceOnUse">
<stop stop-color="#8C52FF"/>
<stop offset="1" stop-color="#55EECC"/>
</linearGradient>
<linearGradient id="paint79_linear_182_5500" x1="355.778" y1="139.89" x2="368" y2="139.89" gradientUnits="userSpaceOnUse">
<stop stop-color="#8C52FF"/>
<stop offset="1" stop-color="#5EC1E6"/>
</linearGradient>
<linearGradient id="paint80_linear_182_5500" x1="355.778" y1="139.89" x2="368" y2="139.89" gradientUnits="userSpaceOnUse">
<stop stop-color="#8C52FF"/>
<stop offset="1" stop-color="#5EC1E6"/>
</linearGradient>
<radialGradient id="paint81_angular_182_5500" cx="0" cy="0" r="1" gradientUnits="userSpaceOnUse" gradientTransform="translate(361.933 139.964) rotate(-119.996) scale(6.19681 6.11111)">
<stop stop-color="#01283E"/>
<stop offset="1" stop-color="#00C2FF"/>
</radialGradient>
<linearGradient id="paint82_linear_182_5500" x1="355" y1="73.0007" x2="375" y2="73.0007" gradientUnits="userSpaceOnUse">
<stop stop-color="#8C52FF"/>
<stop offset="1" stop-color="#55EECC"/>
</linearGradient>
<linearGradient id="paint83_linear_182_5500" x1="355" y1="73.0007" x2="375" y2="73.0007" gradientUnits="userSpaceOnUse">
<stop stop-color="#8C52FF"/>
<stop offset="1" stop-color="#55EECC"/>
</linearGradient>
<linearGradient id="paint84_linear_182_5500" x1="358.778" y1="72.8897" x2="371" y2="72.8897" gradientUnits="userSpaceOnUse">
<stop stop-color="#8C52FF"/>
<stop offset="1" stop-color="#5EC1E6"/>
</linearGradient>
<linearGradient id="paint85_linear_182_5500" x1="358.778" y1="72.8897" x2="371" y2="72.8897" gradientUnits="userSpaceOnUse">
<stop stop-color="#8C52FF"/>
<stop offset="1" stop-color="#5EC1E6"/>
</linearGradient>
<radialGradient id="paint86_angular_182_5500" cx="0" cy="0" r="1" gradientUnits="userSpaceOnUse" gradientTransform="translate(364.933 72.9637) rotate(-119.996) scale(6.19681 6.11111)">
<stop stop-color="#01283E"/>
<stop offset="1" stop-color="#00C2FF"/>
</radialGradient>
<linearGradient id="paint87_linear_182_5500" x1="285" y1="115.001" x2="305" y2="115.001" gradientUnits="userSpaceOnUse">
<stop stop-color="#8C52FF"/>
<stop offset="1" stop-color="#55EECC"/>
</linearGradient>
<linearGradient id="paint88_linear_182_5500" x1="285" y1="115.001" x2="305" y2="115.001" gradientUnits="userSpaceOnUse">
<stop stop-color="#8C52FF"/>
<stop offset="1" stop-color="#55EECC"/>
</linearGradient>
<linearGradient id="paint89_linear_182_5500" x1="288.778" y1="114.89" x2="301" y2="114.89" gradientUnits="userSpaceOnUse">
<stop stop-color="#8C52FF"/>
<stop offset="1" stop-color="#5EC1E6"/>
</linearGradient>
<linearGradient id="paint90_linear_182_5500" x1="288.778" y1="114.89" x2="301" y2="114.89" gradientUnits="userSpaceOnUse">
<stop stop-color="#8C52FF"/>
<stop offset="1" stop-color="#5EC1E6"/>
</linearGradient>
<radialGradient id="paint91_angular_182_5500" cx="0" cy="0" r="1" gradientUnits="userSpaceOnUse" gradientTransform="translate(294.933 114.964) rotate(-119.996) scale(6.19681 6.11111)">
<stop stop-color="#01283E"/>
<stop offset="1" stop-color="#00C2FF"/>
</radialGradient>
<linearGradient id="paint92_linear_182_5500" x1="295" y1="145.001" x2="315" y2="145.001" gradientUnits="userSpaceOnUse">
<stop stop-color="#8C52FF"/>
<stop offset="1" stop-color="#55EECC"/>
</linearGradient>
<linearGradient id="paint93_linear_182_5500" x1="295" y1="145.001" x2="315" y2="145.001" gradientUnits="userSpaceOnUse">
<stop stop-color="#8C52FF"/>
<stop offset="1" stop-color="#55EECC"/>
</linearGradient>
<linearGradient id="paint94_linear_182_5500" x1="298.778" y1="144.89" x2="311" y2="144.89" gradientUnits="userSpaceOnUse">
<stop stop-color="#8C52FF"/>
<stop offset="1" stop-color="#5EC1E6"/>
</linearGradient>
<linearGradient id="paint95_linear_182_5500" x1="298.778" y1="144.89" x2="311" y2="144.89" gradientUnits="userSpaceOnUse">
<stop stop-color="#8C52FF"/>
<stop offset="1" stop-color="#5EC1E6"/>
</linearGradient>
<radialGradient id="paint96_angular_182_5500" cx="0" cy="0" r="1" gradientUnits="userSpaceOnUse" gradientTransform="translate(304.933 144.964) rotate(-119.996) scale(6.19681 6.11111)">
<stop stop-color="#01283E"/>
<stop offset="1" stop-color="#00C2FF"/>
</radialGradient>
<linearGradient id="paint97_linear_182_5500" x1="294.578" y1="201.571" x2="302.866" y2="186.717" gradientUnits="userSpaceOnUse">
<stop stop-color="#8C52FF"/>
<stop offset="1" stop-color="#55EECC"/>
</linearGradient>
<linearGradient id="paint98_linear_182_5500" x1="377.875" y1="212.668" x2="382.785" y2="207.173" gradientUnits="userSpaceOnUse">
<stop stop-color="#8C52FF"/>
<stop offset="1" stop-color="#55EECC"/>
</linearGradient>
<linearGradient id="paint99_linear_182_5500" x1="302.018" y1="170.071" x2="306.928" y2="164.575" gradientUnits="userSpaceOnUse">
<stop stop-color="#8C52FF"/>
<stop offset="1" stop-color="#55EECC"/>
</linearGradient>
<clipPath id="clip0_182_5500">
<rect width="509" height="461" rx="24" fill="white"/>
</clipPath>
</defs>
</svg>
