<svg width="44" height="44" viewBox="0 0 44 44" fill="none" xmlns="http://www.w3.org/2000/svg">
<path d="M14.8315 21.3215H6.23317C6.37984 12.7599 8.0665 11.3482 13.3282 8.23153C13.9332 7.86487 14.1348 7.09487 13.7682 6.47153C13.4198 5.86653 12.6315 5.66487 12.0265 6.03153C5.82984 9.6982 3.6665 11.9349 3.6665 22.5865V32.4682C3.6665 35.6032 6.21484 38.1332 9.3315 38.1332H14.8315C18.0582 38.1332 20.4965 35.6949 20.4965 32.4682V26.9682C20.4965 23.7599 18.0582 21.3215 14.8315 21.3215Z" fill="#7F4BE8"/>
<path d="M34.6682 21.3215H26.0699C26.2165 12.7599 27.9032 11.3482 33.1649 8.23153C33.7699 7.86487 33.9715 7.09487 33.6049 6.47153C33.2382 5.86653 32.4682 5.66487 31.8449 6.03153C25.6482 9.6982 23.4849 11.9349 23.4849 22.6049V32.4865C23.4849 35.6215 26.0332 38.1515 29.1499 38.1515H34.6499C37.8765 38.1515 40.3149 35.7132 40.3149 32.4865V26.9865C40.3332 23.7599 37.8949 21.3215 34.6682 21.3215Z" fill="#7F4BE8"/>
</svg>
